SplineFontDB: 3.0
FontName: Carthage-Sans-LKE
FullName: Carthage Sans LKE Regular
FamilyName: Carthage Sans LKE
Weight: Book
Copyright: Copyright csyde 2015\n"Carthage Sans LKE" is based on A:u'Carthage SansA:u` by A:u'csydeA:u` (http://fontstruct.com/fontstructors/csyde)
Version: 1.0
ItalicAngle: 0
UnderlinePosition: 77
UnderlineWidth: 51
Ascent: 819
Descent: 205
InvalidEm: 0
sfntRevision: 0x00010000
LayerCount: 2
Layer: 0 1 "Back" 1
Layer: 1 1 "Fore" 0
XUID: [1021 273 464692840 14978701]
FSType: 4
OS2Version: 2
OS2_WeightWidthSlopeOnly: 0
OS2_UseTypoMetrics: 1
CreationTime: 1456168009
ModificationTime: 1456168113
PfmFamily: 81
TTFWeight: 400
TTFWidth: 5
LineGap: 0
VLineGap: 0
Panose: 0 0 4 0 0 0 0 0 0 0
OS2TypoAscent: 576
OS2TypoAOffset: 0
OS2TypoDescent: -192
OS2TypoDOffset: 0
OS2TypoLinegap: 0
OS2WinAscent: 896
OS2WinAOffset: 0
OS2WinDescent: 256
OS2WinDOffset: 0
HheadAscent: 896
HheadAOffset: 0
HheadDescent: -256
HheadDOffset: 0
OS2SubXSize: 512
OS2SubYSize: 512
OS2SubXOff: 0
OS2SubYOff: -96
OS2SupXSize: 512
OS2SupYSize: 512
OS2SupXOff: 0
OS2SupYOff: 512
OS2StrikeYSize: 51
OS2StrikeYPos: 204
OS2CapHeight: 576
OS2XHeight: 448
OS2Vendor: 'FSTR'
OS2CodePages: 000001ff.00000000
OS2UnicodeRanges: a000048f.4000000a.00000000.00000000
MarkAttachClasses: 1
DEI: 91125
ShortTable: maxp 16
  1
  0
  1219
  53
  5
  0
  0
  2
  0
  0
  0
  0
  0
  0
  0
  0
EndShort

StartChar: .notdef
Encoding: 65536 -1 0
Width: 512
Flags: W
LayerCount: 2
Back
Fore
SplineSet
288 81 m 1,0,-1
 288 173 l 1,1,-1
 196 173 l 1,2,-1
 196 81 l 1,3,-1
 288 81 l 1,0,-1
379 188 m 1,4,-1
 379 280 l 1,5,-1
 196 280 l 1,6,-1
 196 188 l 1,7,-1
 379 188 l 1,4,-1
288 295 m 1,8,-1
 288 387 l 1,9,-1
 196 387 l 1,10,-1
 196 295 l 1,11,-1
 288 295 l 1,8,-1
379 402 m 1,12,-1
 379 493 l 1,13,-1
 288 493 l 2,14,15
 249 493 249 493 223 467 c 0,16,17
 196 440 196 440 196 402 c 1,18,-1
 379 402 l 1,12,-1
0 0 m 1,19,-1
 0 576 l 1,20,-1
 576 576 l 1,21,-1
 576 0 l 1,22,-1
 0 0 l 1,19,-1
EndSplineSet
EndChar

StartChar: exclam
Encoding: 33 33 4
Width: 192
Flags: W
LayerCount: 2
Back
Fore
SplineSet
0 0 m 1,0,-1
 0 128 l 1,1,-1
 64 128 l 1,2,-1
 64 0 l 1,3,-1
 0 0 l 1,0,-1
0 192 m 1,4,-1
 0 576 l 1,5,-1
 64 576 l 1,6,-1
 64 192 l 1,7,-1
 0 192 l 1,4,-1
EndSplineSet
EndChar

StartChar: quotedbl
Encoding: 34 34 5
Width: 320
Flags: W
LayerCount: 2
Back
Fore
SplineSet
0 448 m 1,0,-1
 0 576 l 1,1,-1
 64 576 l 1,2,-1
 64 448 l 1,3,-1
 0 448 l 1,0,-1
128 448 m 1,4,-1
 128 576 l 1,5,-1
 192 576 l 1,6,-1
 192 448 l 1,7,-1
 128 448 l 1,4,-1
EndSplineSet
EndChar

StartChar: numbersign
Encoding: 35 35 6
Width: 576
Flags: W
LayerCount: 2
Back
Fore
SplineSet
256 320 m 1,0,-1
 256 384 l 1,1,-1
 192 384 l 1,2,-1
 192 320 l 1,3,-1
 256 320 l 1,0,-1
128 128 m 1,4,-1
 128 256 l 1,5,-1
 0 256 l 1,6,-1
 0 320 l 1,7,-1
 128 320 l 1,8,-1
 128 384 l 1,9,-1
 0 384 l 1,10,-1
 0 448 l 1,11,-1
 128 448 l 1,12,-1
 128 576 l 1,13,-1
 192 576 l 1,14,-1
 192 448 l 1,15,-1
 256 448 l 1,16,-1
 256 576 l 1,17,-1
 320 576 l 1,18,-1
 320 448 l 1,19,-1
 448 448 l 1,20,-1
 448 384 l 1,21,-1
 320 384 l 1,22,-1
 320 320 l 1,23,-1
 448 320 l 1,24,-1
 448 256 l 1,25,-1
 320 256 l 1,26,-1
 320 128 l 1,27,-1
 256 128 l 1,28,-1
 256 256 l 1,29,-1
 192 256 l 1,30,-1
 192 128 l 1,31,-1
 128 128 l 1,4,-1
EndSplineSet
EndChar

StartChar: dollar
Encoding: 36 36 7
Width: 448
Flags: W
LayerCount: 2
Back
Fore
SplineSet
224 128 m 1,0,-1
 256 160 l 1,1,-1
 256 224 l 1,2,-1
 192 256 l 1,3,-1
 192 128 l 1,4,-1
 224 128 l 1,0,-1
128 352 m 1,5,-1
 128 448 l 1,6,-1
 96 448 l 1,7,-1
 64 416 l 1,8,-1
 64 384 l 1,9,-1
 128 352 l 1,10,-1
 128 352 l 1,5,-1
128 0 m 1,11,-1
 128 64 l 1,12,-1
 0 64 l 1,13,-1
 0 128 l 1,14,-1
 128 128 l 1,15,-1
 128 288 l 1,16,-1
 64 320 l 1,17,-1
 0 384 l 1,18,-1
 0 448 l 1,19,-1
 64 512 l 1,20,-1
 128 512 l 1,21,-1
 128 576 l 1,22,-1
 192 576 l 1,23,-1
 192 512 l 1,24,-1
 320 512 l 1,25,-1
 320 448 l 1,26,-1
 192 448 l 1,27,-1
 192 320 l 1,28,-1
 256 288 l 1,29,-1
 320 224 l 1,30,-1
 320 128 l 1,31,-1
 256 64 l 1,32,-1
 192 64 l 1,33,-1
 192 0 l 1,34,-1
 128 0 l 1,11,-1
EndSplineSet
EndChar

StartChar: percent
Encoding: 37 37 8
Width: 512
Flags: W
LayerCount: 2
Back
Fore
SplineSet
320 64 m 1,0,-1
 320 128 l 1,1,-1
 256 128 l 1,2,-1
 256 64 l 1,3,-1
 320 64 l 1,0,-1
256 0 m 1,4,-1
 192 64 l 1,5,-1
 192 128 l 1,6,-1
 256 192 l 1,7,-1
 320 192 l 1,8,-1
 384 128 l 1,9,-1
 384 64 l 1,10,-1
 320 0 l 1,11,-1
 256 0 l 1,4,-1
128 448 m 1,12,-1
 128 512 l 1,13,-1
 64 512 l 1,14,-1
 64 448 l 1,15,-1
 128 448 l 1,12,-1
64 384 m 1,16,-1
 0 448 l 1,17,-1
 0 512 l 1,18,-1
 64 576 l 1,19,-1
 128 576 l 1,20,-1
 192 512 l 1,21,-1
 192 448 l 1,22,-1
 128 384 l 1,23,-1
 64 384 l 1,16,-1
32 0 m 1,24,-1
 320 576 l 1,25,-1
 384 576 l 1,26,-1
 96 0 l 1,27,-1
 32 0 l 1,24,-1
EndSplineSet
EndChar

StartChar: ampersand
Encoding: 38 38 9
Width: 640
Flags: W
LayerCount: 2
Back
Fore
SplineSet
192 64 m 1,0,-1
 304 176 l 1,1,-1
 256 224 l 1,2,-1
 192 256 l 1,3,-1
 64 192 l 1,4,-1
 64 128 l 1,5,-1
 85 85 l 1,6,-1
 128 64 l 1,7,-1
 192 64 l 1,0,-1
192 320 m 1,8,-1
 320 448 l 1,9,-1
 298 490 l 1,10,-1
 256 512 l 1,11,-1
 192 512 l 1,12,-1
 149 490 l 1,13,-1
 128 448 l 1,14,-1
 128 384 l 1,15,-1
 192 320 l 1,16,-1
 192 320 l 1,8,-1
128 0 m 1,17,-1
 64 32 l 1,18,-1
 32 64 l 1,19,-1
 0 128 l 1,20,-1
 0 192 l 1,21,-1
 128 320 l 1,22,-1
 64 384 l 1,23,-1
 64 448 l 1,24,-1
 96 512 l 1,25,-1
 128 544 l 1,26,-1
 192 576 l 1,27,-1
 256 576 l 1,28,-1
 320 544 l 1,29,-1
 352 512 l 1,30,-1
 384 448 l 1,31,-1
 256 320 l 1,32,-1
 320 256 l 1,33,-1
 320 255 l 1,34,-1
 352 224 l 1,35,-1
 448 320 l 1,36,-1
 512 320 l 1,37,-1
 512 288 l 1,38,-1
 400 176 l 1,39,-1
 512 64 l 1,40,-1
 512 0 l 1,41,-1
 480 0 l 1,42,-1
 352 128 l 1,43,-1
 256 32 l 1,44,-1
 192 0 l 1,45,-1
 128 0 l 1,17,-1
EndSplineSet
EndChar

StartChar: quotesingle
Encoding: 39 39 10
Width: 192
Flags: W
LayerCount: 2
Back
Fore
SplineSet
0 448 m 1,0,-1
 0 576 l 1,1,-1
 64 576 l 1,2,-1
 64 448 l 1,3,-1
 0 448 l 1,0,-1
EndSplineSet
EndChar

StartChar: parenleft
Encoding: 40 40 11
Width: 320
Flags: W
LayerCount: 2
Back
Fore
SplineSet
160 -64 m 1,0,-1
 96 0 l 1,1,-1
 0 192 l 1,2,-1
 0 384 l 1,3,-1
 96 576 l 1,4,-1
 160 640 l 1,5,-1
 192 640 l 1,6,-1
 192 576 l 1,7,-1
 160 576 l 1,8,-1
 64 384 l 1,9,-1
 64 192 l 1,10,-1
 160 0 l 1,11,-1
 192 0 l 1,12,-1
 192 -64 l 1,13,-1
 160 -64 l 1,0,-1
EndSplineSet
EndChar

StartChar: parenright
Encoding: 41 41 12
Width: 320
Flags: W
LayerCount: 2
Back
Fore
SplineSet
0 -64 m 1,0,-1
 0 0 l 1,1,-1
 32 0 l 1,2,-1
 128 192 l 1,3,-1
 128 384 l 1,4,-1
 32 576 l 1,5,-1
 0 576 l 1,6,-1
 0 640 l 1,7,-1
 32 640 l 1,8,-1
 96 576 l 1,9,-1
 192 384 l 1,10,-1
 192 192 l 1,11,-1
 96 0 l 1,12,-1
 32 -64 l 1,13,-1
 0 -64 l 1,0,-1
EndSplineSet
EndChar

StartChar: asterisk
Encoding: 42 42 13
Width: 448
Flags: W
LayerCount: 2
Back
Fore
SplineSet
128 192 m 1,0,-1
 128 320 l 1,1,-1
 0 256 l 1,2,-1
 0 320 l 1,3,-1
 128 384 l 1,4,-1
 0 448 l 1,5,-1
 0 512 l 1,6,-1
 128 448 l 1,7,-1
 128 576 l 1,8,-1
 192 576 l 1,9,-1
 192 448 l 1,10,-1
 320 512 l 1,11,-1
 320 448 l 1,12,-1
 192 384 l 1,13,-1
 320 320 l 1,14,-1
 320 256 l 1,15,-1
 192 320 l 1,16,-1
 192 192 l 1,17,-1
 128 192 l 1,0,-1
EndSplineSet
EndChar

StartChar: plus
Encoding: 43 43 14
Width: 576
Flags: W
LayerCount: 2
Back
Fore
SplineSet
192 128 m 1,0,-1
 192 320 l 1,1,-1
 0 320 l 1,2,-1
 0 384 l 1,3,-1
 192 384 l 1,4,-1
 192 576 l 1,5,-1
 256 576 l 1,6,-1
 256 384 l 1,7,-1
 448 384 l 1,8,-1
 448 320 l 1,9,-1
 256 320 l 1,10,-1
 256 128 l 1,11,-1
 192 128 l 1,0,-1
EndSplineSet
EndChar

StartChar: comma
Encoding: 44 44 15
Width: 256
Flags: W
LayerCount: 2
Back
Fore
SplineSet
32 -64 m 1,0,-1
 64 0 l 1,1,-1
 64 128 l 1,2,-1
 128 128 l 1,3,-1
 128 0 l 1,4,-1
 64 -64 l 1,5,-1
 32 -64 l 1,0,-1
EndSplineSet
EndChar

StartChar: hyphen
Encoding: 45 45 16
Width: 512
Flags: W
LayerCount: 2
Back
Fore
SplineSet
64 320 m 1,0,-1
 64 384 l 1,1,-1
 384 384 l 1,2,-1
 384 320 l 1,3,-1
 64 320 l 1,0,-1
EndSplineSet
EndChar

StartChar: period
Encoding: 46 46 17
Width: 192
Flags: W
LayerCount: 2
Back
Fore
SplineSet
0 0 m 1,0,-1
 0 128 l 1,1,-1
 64 128 l 1,2,-1
 64 0 l 1,3,-1
 0 0 l 1,0,-1
EndSplineSet
EndChar

StartChar: slash
Encoding: 47 47 18
Width: 448
Flags: W
LayerCount: 2
Back
Fore
SplineSet
0 0 m 1,0,-1
 0 64 l 1,1,-1
 256 576 l 1,2,-1
 320 576 l 1,3,-1
 32 0 l 1,4,-1
 0 0 l 1,0,-1
EndSplineSet
EndChar

StartChar: zero
Encoding: 48 48 19
Width: 512
Flags: W
LayerCount: 2
Back
Fore
SplineSet
256 64 m 1,0,-1
 298 85 l 1,1,-1
 320 128 l 1,2,-1
 320 448 l 1,3,-1
 298 490 l 1,4,-1
 256 512 l 1,5,-1
 128 512 l 1,6,-1
 85 490 l 1,7,-1
 64 448 l 1,8,-1
 64 128 l 1,9,-1
 85 85 l 1,10,-1
 128 64 l 1,11,-1
 256 64 l 1,0,-1
128 0 m 1,12,-1
 64 32 l 1,13,-1
 32 64 l 1,14,-1
 0 128 l 1,15,-1
 0 448 l 1,16,-1
 32 512 l 1,17,-1
 64 544 l 1,18,-1
 128 576 l 1,19,-1
 256 576 l 1,20,-1
 320 544 l 1,21,-1
 352 512 l 1,22,-1
 384 448 l 1,23,-1
 384 128 l 1,24,-1
 352 64 l 1,25,-1
 320 32 l 1,26,-1
 256 0 l 1,27,-1
 128 0 l 1,12,-1
EndSplineSet
EndChar

StartChar: one
Encoding: 49 49 20
Width: 320
Flags: W
LayerCount: 2
Back
Fore
SplineSet
128 0 m 1,0,-1
 128 480 l 1,1,-1
 0 416 l 1,2,-1
 0 480 l 1,3,-1
 192 576 l 1,4,-1
 192 0 l 1,5,-1
 128 0 l 1,0,-1
EndSplineSet
EndChar

StartChar: two
Encoding: 50 50 21
Width: 512
Flags: W
LayerCount: 2
Back
Fore
SplineSet
0 0 m 1,0,-1
 0 96 l 1,1,-1
 320 416 l 1,2,-1
 320 448 l 1,3,-1
 298 490 l 1,4,-1
 256 512 l 1,5,-1
 128 512 l 1,6,-1
 85 490 l 1,7,-1
 64 448 l 1,8,-1
 0 448 l 1,9,-1
 32 512 l 1,10,-1
 64 544 l 1,11,-1
 128 576 l 1,12,-1
 256 576 l 1,13,-1
 320 544 l 1,14,-1
 352 512 l 1,15,-1
 384 448 l 1,16,-1
 384 384 l 1,17,-1
 64 64 l 1,18,-1
 384 64 l 1,19,-1
 384 0 l 1,20,-1
 0 0 l 1,0,-1
EndSplineSet
EndChar

StartChar: three
Encoding: 51 51 22
Width: 512
Flags: W
LayerCount: 2
Back
Fore
SplineSet
128 0 m 1,0,-1
 64 32 l 1,1,-1
 32 64 l 1,2,-1
 0 128 l 1,3,-1
 64 128 l 1,4,-1
 85 85 l 1,5,-1
 128 64 l 1,6,-1
 256 64 l 1,7,-1
 298 85 l 1,8,-1
 320 128 l 1,9,-1
 320 192 l 1,10,-1
 298 234 l 1,11,-1
 256 256 l 1,12,-1
 64 256 l 1,13,-1
 64 320 l 1,14,-1
 256 320 l 1,15,-1
 298 341 l 1,16,-1
 320 384 l 1,17,-1
 320 448 l 1,18,-1
 298 490 l 1,19,-1
 256 512 l 1,20,-1
 128 512 l 1,21,-1
 85 490 l 1,22,-1
 64 448 l 1,23,-1
 0 448 l 1,24,-1
 32 512 l 1,25,-1
 64 544 l 1,26,-1
 128 576 l 1,27,-1
 256 576 l 1,28,-1
 320 544 l 1,29,-1
 352 512 l 1,30,-1
 384 448 l 1,31,-1
 384 384 l 1,32,-1
 352 320 l 1,33,-1
 320 288 l 1,34,-1
 352 256 l 1,35,-1
 384 192 l 1,36,-1
 384 128 l 1,37,-1
 352 64 l 1,38,-1
 320 32 l 1,39,-1
 256 0 l 1,40,-1
 128 0 l 1,0,-1
EndSplineSet
EndChar

StartChar: four
Encoding: 52 52 23
Width: 512
Flags: W
LayerCount: 2
Back
Fore
SplineSet
256 256 m 1,0,-1
 256 480 l 1,1,-1
 32 256 l 1,2,-1
 256 256 l 1,0,-1
256 0 m 1,3,-1
 256 192 l 1,4,-1
 0 192 l 1,5,-1
 0 320 l 1,6,-1
 256 576 l 1,7,-1
 320 576 l 1,8,-1
 320 256 l 1,9,-1
 384 256 l 1,10,-1
 384 192 l 1,11,-1
 320 192 l 1,12,-1
 320 0 l 1,13,-1
 256 0 l 1,3,-1
EndSplineSet
EndChar

StartChar: five
Encoding: 53 53 24
Width: 512
Flags: W
LayerCount: 2
Back
Fore
SplineSet
0 0 m 1,0,-1
 0 64 l 1,1,-1
 256 64 l 1,2,-1
 298 85 l 1,3,-1
 320 128 l 1,4,-1
 320 256 l 1,5,-1
 298 298 l 1,6,-1
 256 320 l 1,7,-1
 0 320 l 1,8,-1
 0 576 l 1,9,-1
 320 576 l 1,10,-1
 320 512 l 1,11,-1
 64 512 l 1,12,-1
 64 384 l 1,13,-1
 256 384 l 1,14,-1
 320 352 l 1,15,-1
 352 320 l 1,16,-1
 384 256 l 1,17,-1
 384 128 l 1,18,-1
 352 64 l 1,19,-1
 320 32 l 1,20,-1
 256 0 l 1,21,-1
 0 0 l 1,0,-1
EndSplineSet
EndChar

StartChar: six
Encoding: 54 54 25
Width: 512
Flags: W
LayerCount: 2
Back
Fore
SplineSet
256 64 m 1,0,-1
 298 85 l 1,1,-1
 320 128 l 1,2,-1
 320 256 l 1,3,-1
 298 298 l 1,4,-1
 256 320 l 1,5,-1
 64 320 l 1,6,-1
 64 128 l 1,7,-1
 85 85 l 1,8,-1
 128 64 l 1,9,-1
 256 64 l 1,0,-1
128 0 m 1,10,-1
 64 32 l 1,11,-1
 32 64 l 1,12,-1
 0 128 l 1,13,-1
 0 384 l 1,14,-1
 64 512 l 1,15,-1
 192 576 l 1,16,-1
 320 576 l 1,17,-1
 320 512 l 1,18,-1
 192 512 l 1,19,-1
 128 480 l 1,20,-1
 96 448 l 1,21,-1
 64 384 l 1,22,-1
 256 384 l 1,23,-1
 320 352 l 1,24,-1
 352 320 l 1,25,-1
 384 256 l 1,26,-1
 384 128 l 1,27,-1
 352 64 l 1,28,-1
 320 32 l 1,29,-1
 256 0 l 1,30,-1
 128 0 l 1,10,-1
EndSplineSet
EndChar

StartChar: seven
Encoding: 55 55 26
Width: 512
Flags: W
LayerCount: 2
Back
Fore
SplineSet
128 0 m 1,0,-1
 128 128 l 1,1,-1
 320 512 l 1,2,-1
 0 512 l 1,3,-1
 0 576 l 1,4,-1
 384 576 l 1,5,-1
 384 512 l 1,6,-1
 192 128 l 1,7,-1
 192 0 l 1,8,-1
 128 0 l 1,0,-1
EndSplineSet
EndChar

StartChar: eight
Encoding: 56 56 27
Width: 512
Flags: W
LayerCount: 2
Back
Fore
SplineSet
256 64 m 1,0,-1
 298 85 l 1,1,-1
 320 128 l 1,2,-1
 320 192 l 1,3,-1
 298 234 l 1,4,-1
 256 256 l 1,5,-1
 128 256 l 1,6,-1
 85 234 l 1,7,-1
 64 192 l 1,8,-1
 64 128 l 1,9,-1
 85 85 l 1,10,-1
 128 64 l 1,11,-1
 256 64 l 1,0,-1
256 320 m 1,12,-1
 298 341 l 1,13,-1
 320 384 l 1,14,-1
 320 448 l 1,15,-1
 298 490 l 1,16,-1
 256 512 l 1,17,-1
 128 512 l 1,18,-1
 85 490 l 1,19,-1
 64 448 l 1,20,-1
 64 384 l 1,21,-1
 85 341 l 1,22,-1
 128 320 l 1,23,-1
 256 320 l 1,12,-1
128 0 m 1,24,-1
 64 32 l 1,25,-1
 32 64 l 1,26,-1
 0 128 l 1,27,-1
 0 192 l 1,28,-1
 32 256 l 1,29,-1
 64 288 l 1,30,-1
 32 320 l 1,31,-1
 0 384 l 1,32,-1
 0 448 l 1,33,-1
 32 512 l 1,34,-1
 64 544 l 1,35,-1
 128 576 l 1,36,-1
 256 576 l 1,37,-1
 320 544 l 1,38,-1
 352 512 l 1,39,-1
 384 448 l 1,40,-1
 384 384 l 1,41,-1
 352 320 l 1,42,-1
 320 288 l 1,43,-1
 352 256 l 1,44,-1
 384 192 l 1,45,-1
 384 128 l 1,46,-1
 352 64 l 1,47,-1
 320 32 l 1,48,-1
 256 0 l 1,49,-1
 128 0 l 1,24,-1
EndSplineSet
EndChar

StartChar: nine
Encoding: 57 57 28
Width: 512
Flags: W
LayerCount: 2
Back
Fore
SplineSet
320 256 m 1,0,-1
 320 448 l 1,1,-1
 298 490 l 1,2,-1
 256 512 l 1,3,-1
 128 512 l 1,4,-1
 85 490 l 1,5,-1
 64 448 l 1,6,-1
 64 320 l 1,7,-1
 85 277 l 1,8,-1
 128 256 l 1,9,-1
 320 256 l 1,0,-1
64 0 m 1,10,-1
 64 64 l 1,11,-1
 192 64 l 1,12,-1
 256 96 l 1,13,-1
 288 128 l 1,14,-1
 320 192 l 1,15,-1
 128 192 l 1,16,-1
 64 224 l 1,17,-1
 32 256 l 1,18,-1
 0 320 l 1,19,-1
 0 448 l 1,20,-1
 32 512 l 1,21,-1
 64 544 l 1,22,-1
 128 576 l 1,23,-1
 256 576 l 1,24,-1
 320 544 l 1,25,-1
 352 512 l 1,26,-1
 384 448 l 1,27,-1
 384 192 l 1,28,-1
 320 64 l 1,29,-1
 192 0 l 1,30,-1
 64 0 l 1,10,-1
EndSplineSet
EndChar

StartChar: colon
Encoding: 58 58 29
Width: 256
Flags: W
LayerCount: 2
Back
Fore
SplineSet
64 0 m 1,0,-1
 64 128 l 1,1,-1
 128 128 l 1,2,-1
 128 0 l 1,3,-1
 64 0 l 1,0,-1
64 256 m 1,4,-1
 64 384 l 1,5,-1
 128 384 l 1,6,-1
 128 256 l 1,7,-1
 64 256 l 1,4,-1
EndSplineSet
EndChar

StartChar: semicolon
Encoding: 59 59 30
Width: 256
Flags: W
LayerCount: 2
Back
Fore
SplineSet
32 -64 m 1,0,-1
 64 0 l 1,1,-1
 64 128 l 1,2,-1
 128 128 l 1,3,-1
 128 0 l 1,4,-1
 96 -64 l 1,5,-1
 32 -64 l 1,0,-1
64 256 m 1,6,-1
 64 384 l 1,7,-1
 128 384 l 1,8,-1
 128 256 l 1,9,-1
 64 256 l 1,6,-1
EndSplineSet
EndChar

StartChar: less
Encoding: 60 60 31
Width: 448
Flags: W
LayerCount: 2
Back
Fore
SplineSet
256 64 m 1,0,-1
 32 288 l 1,1,-1
 256 512 l 1,2,-1
 320 512 l 1,3,-1
 320 480 l 1,4,-1
 128 288 l 1,5,-1
 320 96 l 1,6,-1
 320 64 l 1,7,-1
 256 64 l 1,0,-1
EndSplineSet
EndChar

StartChar: equal
Encoding: 61 61 32
Width: 512
Flags: W
LayerCount: 2
Back
Fore
SplineSet
64 192 m 1,0,-1
 64 256 l 1,1,-1
 384 256 l 1,2,-1
 384 192 l 1,3,-1
 64 192 l 1,0,-1
64 320 m 1,4,-1
 64 384 l 1,5,-1
 384 384 l 1,6,-1
 384 320 l 1,7,-1
 64 320 l 1,4,-1
EndSplineSet
EndChar

StartChar: greater
Encoding: 62 62 33
Width: 448
Flags: W
LayerCount: 2
Back
Fore
SplineSet
0 64 m 1,0,-1
 0 96 l 1,1,-1
 192 288 l 1,2,-1
 0 480 l 1,3,-1
 0 512 l 1,4,-1
 64 512 l 1,5,-1
 288 288 l 1,6,-1
 64 64 l 1,7,-1
 0 64 l 1,0,-1
EndSplineSet
EndChar

StartChar: question
Encoding: 63 63 34
Width: 512
Flags: W
LayerCount: 2
Back
Fore
SplineSet
128 0 m 1,0,-1
 128 128 l 1,1,-1
 192 128 l 1,2,-1
 192 0 l 1,3,-1
 128 0 l 1,0,-1
128 192 m 1,4,-1
 160 256 l 1,5,-1
 192 288 l 1,6,-1
 298 341 l 1,7,-1
 320 384 l 1,8,-1
 320 448 l 1,9,-1
 192 512 l 1,10,-1
 128 512 l 1,11,-1
 85 490 l 1,12,-1
 64 448 l 1,13,-1
 0 448 l 1,14,-1
 32 512 l 1,15,-1
 64 544 l 1,16,-1
 128 576 l 1,17,-1
 192 576 l 1,18,-1
 320 512 l 1,19,-1
 384 448 l 1,20,-1
 384 384 l 1,21,-1
 352 320 l 1,22,-1
 320 288 l 1,23,-1
 213 234 l 1,24,-1
 192 192 l 1,25,-1
 128 192 l 1,4,-1
EndSplineSet
EndChar

StartChar: at
Encoding: 64 64 35
Width: 640
Flags: W
LayerCount: 2
Back
Fore
SplineSet
256 128 m 1,0,-1
 320 192 l 1,1,-1
 320 256 l 1,2,-1
 192 256 l 1,3,-1
 192 128 l 1,4,-1
 256 128 l 1,0,-1
192 -64 m 1,5,-1
 64 0 l 1,6,-1
 0 128 l 1,7,-1
 0 256 l 1,8,-1
 64 384 l 1,9,-1
 192 448 l 1,10,-1
 320 448 l 1,11,-1
 448 384 l 1,12,-1
 512 256 l 1,13,-1
 512 96 l 1,14,-1
 480 64 l 1,15,-1
 384 64 l 1,16,-1
 320 128 l 1,17,-1
 256 64 l 1,18,-1
 192 64 l 1,19,-1
 128 128 l 1,20,-1
 128 256 l 1,21,-1
 192 320 l 1,22,-1
 320 320 l 1,23,-1
 384 256 l 1,24,-1
 384 128 l 1,25,-1
 448 128 l 1,26,-1
 448 256 l 1,27,-1
 416 320 l 1,28,-1
 384 352 l 1,29,-1
 320 384 l 1,30,-1
 192 384 l 1,31,-1
 128 352 l 1,32,-1
 96 320 l 1,33,-1
 64 256 l 1,34,-1
 64 128 l 1,35,-1
 96 64 l 1,36,-1
 128 32 l 1,37,-1
 192 0 l 1,38,-1
 384 0 l 1,39,-1
 384 -64 l 1,40,-1
 192 -64 l 1,5,-1
EndSplineSet
EndChar

StartChar: A
Encoding: 65 65 36
Width: 704
Flags: W
LayerCount: 2
Back
Fore
SplineSet
384 256 m 1,0,-1
 288 448 l 1,1,-1
 192 256 l 1,2,-1
 384 256 l 1,0,-1
0 0 m 1,3,-1
 288 576 l 1,4,-1
 576 0 l 1,5,-1
 512 0 l 1,6,-1
 416 192 l 1,7,-1
 160 192 l 1,8,-1
 64 0 l 1,9,-1
 0 0 l 1,3,-1
EndSplineSet
EndChar

StartChar: B
Encoding: 66 66 37
Width: 512
Flags: W
LayerCount: 2
Back
Fore
SplineSet
256 64 m 1,0,-1
 320 128 l 1,1,-1
 288 192 l 1,2,-1
 256 224 l 1,3,-1
 192 256 l 1,4,-1
 64 256 l 1,5,-1
 64 64 l 1,6,-1
 256 64 l 1,0,-1
192 320 m 1,7,-1
 256 384 l 1,8,-1
 256 448 l 1,9,-1
 192 512 l 1,10,-1
 64 512 l 1,11,-1
 64 320 l 1,12,-1
 192 320 l 1,7,-1
0 0 m 1,13,-1
 0 576 l 1,14,-1
 192 576 l 1,15,-1
 256 544 l 1,16,-1
 288 512 l 1,17,-1
 320 448 l 1,18,-1
 320 384 l 1,19,-1
 256 320 l 1,20,-1
 384 192 l 1,21,-1
 384 128 l 1,22,-1
 352 64 l 1,23,-1
 320 32 l 1,24,-1
 256 0 l 1,25,-1
 0 0 l 1,13,-1
EndSplineSet
EndChar

StartChar: C
Encoding: 67 67 38
Width: 512
Flags: W
LayerCount: 2
Back
Fore
SplineSet
192 0 m 1,0,-1
 64 64 l 1,1,-1
 0 192 l 1,2,-1
 0 384 l 1,3,-1
 64 512 l 1,4,-1
 192 576 l 1,5,-1
 384 576 l 1,6,-1
 384 512 l 1,7,-1
 192 512 l 1,8,-1
 128 480 l 1,9,-1
 96 448 l 1,10,-1
 64 384 l 1,11,-1
 64 192 l 1,12,-1
 96 128 l 1,13,-1
 128 96 l 1,14,-1
 192 64 l 1,15,-1
 384 64 l 1,16,-1
 384 0 l 1,17,-1
 192 0 l 1,0,-1
EndSplineSet
EndChar

StartChar: D
Encoding: 68 68 39
Width: 576
Flags: W
LayerCount: 2
Back
Fore
SplineSet
256 64 m 1,0,-1
 320 96 l 1,1,-1
 352 128 l 1,2,-1
 384 192 l 1,3,-1
 384 384 l 1,4,-1
 352 448 l 1,5,-1
 320 480 l 1,6,-1
 256 512 l 1,7,-1
 64 512 l 1,8,-1
 64 64 l 1,9,-1
 256 64 l 1,0,-1
0 0 m 1,10,-1
 0 576 l 1,11,-1
 256 576 l 1,12,-1
 384 512 l 1,13,-1
 448 384 l 1,14,-1
 448 192 l 1,15,-1
 384 64 l 1,16,-1
 256 0 l 1,17,-1
 0 0 l 1,10,-1
EndSplineSet
EndChar

StartChar: E
Encoding: 69 69 40
Width: 512
Flags: W
LayerCount: 2
Back
Fore
SplineSet
0 0 m 1,0,-1
 0 576 l 1,1,-1
 384 576 l 1,2,-1
 384 512 l 1,3,-1
 64 512 l 1,4,-1
 64 320 l 1,5,-1
 320 320 l 1,6,-1
 320 256 l 1,7,-1
 64 256 l 1,8,-1
 64 64 l 1,9,-1
 384 64 l 1,10,-1
 384 0 l 1,11,-1
 0 0 l 1,0,-1
EndSplineSet
EndChar

StartChar: F
Encoding: 70 70 41
Width: 512
Flags: W
LayerCount: 2
Back
Fore
SplineSet
0 0 m 1,0,-1
 0 576 l 1,1,-1
 384 576 l 1,2,-1
 384 512 l 1,3,-1
 64 512 l 1,4,-1
 64 320 l 1,5,-1
 320 320 l 1,6,-1
 320 256 l 1,7,-1
 64 256 l 1,8,-1
 64 0 l 1,9,-1
 0 0 l 1,0,-1
EndSplineSet
EndChar

StartChar: G
Encoding: 71 71 42
Width: 576
Flags: W
LayerCount: 2
Back
Fore
SplineSet
192 0 m 1,0,-1
 64 64 l 1,1,-1
 0 192 l 1,2,-1
 0 384 l 1,3,-1
 64 512 l 1,4,-1
 192 576 l 1,5,-1
 384 576 l 1,6,-1
 384 512 l 1,7,-1
 192 512 l 1,8,-1
 128 480 l 1,9,-1
 96 448 l 1,10,-1
 64 384 l 1,11,-1
 64 192 l 1,12,-1
 96 128 l 1,13,-1
 128 96 l 1,14,-1
 192 64 l 1,15,-1
 352 64 l 1,16,-1
 384 96 l 1,17,-1
 384 256 l 1,18,-1
 256 256 l 1,19,-1
 256 320 l 1,20,-1
 448 320 l 1,21,-1
 448 64 l 1,22,-1
 384 0 l 1,23,-1
 192 0 l 1,0,-1
EndSplineSet
EndChar

StartChar: H
Encoding: 72 72 43
Width: 512
Flags: W
LayerCount: 2
Back
Fore
SplineSet
0 0 m 1,0,-1
 0 576 l 1,1,-1
 64 576 l 1,2,-1
 64 320 l 1,3,-1
 320 320 l 1,4,-1
 320 576 l 1,5,-1
 384 576 l 1,6,-1
 384 0 l 1,7,-1
 320 0 l 1,8,-1
 320 256 l 1,9,-1
 64 256 l 1,10,-1
 64 0 l 1,11,-1
 0 0 l 1,0,-1
EndSplineSet
EndChar

StartChar: I
Encoding: 73 73 44
Width: 192
Flags: W
LayerCount: 2
Back
Fore
SplineSet
0 0 m 1,0,-1
 0 576 l 1,1,-1
 64 576 l 1,2,-1
 64 0 l 1,3,-1
 0 0 l 1,0,-1
EndSplineSet
EndChar

StartChar: J
Encoding: 74 74 45
Width: 384
Flags: W
LayerCount: 2
Back
Fore
SplineSet
0 0 m 1,0,-1
 0 64 l 1,1,-1
 128 64 l 1,2,-1
 170 85 l 1,3,-1
 192 128 l 1,4,-1
 192 576 l 1,5,-1
 256 576 l 1,6,-1
 256 128 l 1,7,-1
 224 64 l 1,8,-1
 192 32 l 1,9,-1
 128 0 l 1,10,-1
 0 0 l 1,0,-1
EndSplineSet
EndChar

StartChar: K
Encoding: 75 75 46
Width: 512
Flags: W
LayerCount: 2
Back
Fore
SplineSet
0 0 m 1,0,-1
 0 576 l 1,1,-1
 64 576 l 1,2,-1
 64 320 l 1,3,-1
 320 576 l 1,4,-1
 384 576 l 1,5,-1
 384 544 l 1,6,-1
 128 288 l 1,7,-1
 384 32 l 1,8,-1
 384 0 l 1,9,-1
 320 0 l 1,10,-1
 64 256 l 1,11,-1
 64 0 l 1,12,-1
 0 0 l 1,0,-1
EndSplineSet
EndChar

StartChar: L
Encoding: 76 76 47
Width: 512
Flags: W
LayerCount: 2
Back
Fore
SplineSet
0 0 m 1,0,-1
 0 576 l 1,1,-1
 64 576 l 1,2,-1
 64 64 l 1,3,-1
 384 64 l 1,4,-1
 384 0 l 1,5,-1
 0 0 l 1,0,-1
EndSplineSet
EndChar

StartChar: M
Encoding: 77 77 48
Width: 704
Flags: W
LayerCount: 2
Back
Fore
SplineSet
0 0 m 1,0,-1
 0 576 l 1,1,-1
 64 576 l 1,2,-1
 288 128 l 1,3,-1
 512 576 l 1,4,-1
 576 576 l 1,5,-1
 576 0 l 1,6,-1
 512 0 l 1,7,-1
 512 448 l 1,8,-1
 288 0 l 1,9,-1
 64 448 l 1,10,-1
 64 0 l 1,11,-1
 0 0 l 1,0,-1
EndSplineSet
EndChar

StartChar: N
Encoding: 78 78 49
Width: 576
Flags: W
LayerCount: 2
Back
Fore
SplineSet
0 0 m 1,0,-1
 0 576 l 1,1,-1
 128 576 l 1,2,-1
 384 64 l 1,3,-1
 384 576 l 1,4,-1
 448 576 l 1,5,-1
 448 0 l 1,6,-1
 352 0 l 1,7,-1
 96 512 l 1,8,-1
 64 512 l 1,9,-1
 64 0 l 1,10,-1
 0 0 l 1,0,-1
EndSplineSet
EndChar

StartChar: O
Encoding: 79 79 50
Width: 576
Flags: W
LayerCount: 2
Back
Fore
SplineSet
256 64 m 1,0,-1
 320 96 l 1,1,-1
 352 128 l 1,2,-1
 384 192 l 1,3,-1
 384 384 l 1,4,-1
 352 448 l 1,5,-1
 320 480 l 1,6,-1
 256 512 l 1,7,-1
 192 512 l 1,8,-1
 128 480 l 1,9,-1
 96 448 l 1,10,-1
 64 384 l 1,11,-1
 64 192 l 1,12,-1
 96 128 l 1,13,-1
 128 96 l 1,14,-1
 192 64 l 1,15,-1
 256 64 l 1,0,-1
192 0 m 1,16,-1
 64 64 l 1,17,-1
 0 192 l 1,18,-1
 0 384 l 1,19,-1
 64 512 l 1,20,-1
 192 576 l 1,21,-1
 256 576 l 1,22,-1
 384 512 l 1,23,-1
 448 384 l 1,24,-1
 448 192 l 1,25,-1
 384 64 l 1,26,-1
 256 0 l 1,27,-1
 192 0 l 1,16,-1
EndSplineSet
EndChar

StartChar: P
Encoding: 80 80 51
Width: 512
Flags: W
LayerCount: 2
Back
Fore
SplineSet
192 256 m 1,0,-1
 256 288 l 1,1,-1
 288 320 l 1,2,-1
 320 384 l 1,3,-1
 288 448 l 1,4,-1
 256 480 l 1,5,-1
 192 512 l 1,6,-1
 64 512 l 1,7,-1
 64 256 l 1,8,-1
 192 256 l 1,0,-1
0 0 m 1,9,-1
 0 576 l 1,10,-1
 192 576 l 1,11,-1
 320 512 l 1,12,-1
 384 384 l 1,13,-1
 320 256 l 1,14,-1
 192 192 l 1,15,-1
 64 192 l 1,16,-1
 64 0 l 1,17,-1
 0 0 l 1,9,-1
EndSplineSet
EndChar

StartChar: Q
Encoding: 81 81 52
Width: 576
Flags: W
LayerCount: 2
Back
Fore
SplineSet
256 64 m 1,0,-1
 320 96 l 1,1,-1
 352 128 l 1,2,-1
 384 192 l 1,3,-1
 384 384 l 1,4,-1
 352 448 l 1,5,-1
 320 480 l 1,6,-1
 256 512 l 1,7,-1
 192 512 l 1,8,-1
 128 480 l 1,9,-1
 96 448 l 1,10,-1
 64 384 l 1,11,-1
 64 192 l 1,12,-1
 96 128 l 1,13,-1
 128 96 l 1,14,-1
 192 64 l 1,15,-1
 256 64 l 1,0,-1
384 -128 m 1,16,-1
 320 -96 l 1,17,-1
 224 0 l 1,18,-1
 192 0 l 1,19,-1
 64 64 l 1,20,-1
 0 192 l 1,21,-1
 0 384 l 1,22,-1
 64 512 l 1,23,-1
 192 576 l 1,24,-1
 256 576 l 1,25,-1
 384 512 l 1,26,-1
 448 384 l 1,27,-1
 448 192 l 1,28,-1
 384 64 l 1,29,-1
 307 25 l 1,30,-1
 320 0 l 1,31,-1
 384 -64 l 1,32,-1
 448 -64 l 1,33,-1
 448 -128 l 1,34,-1
 384 -128 l 1,16,-1
EndSplineSet
EndChar

StartChar: R
Encoding: 82 82 53
Width: 512
Flags: W
LayerCount: 2
Back
Fore
SplineSet
192 256 m 1,0,-1
 256 288 l 1,1,-1
 288 320 l 1,2,-1
 320 384 l 1,3,-1
 288 448 l 1,4,-1
 256 480 l 1,5,-1
 192 512 l 1,6,-1
 64 512 l 1,7,-1
 64 256 l 1,8,-1
 192 256 l 1,0,-1
0 0 m 1,9,-1
 0 576 l 1,10,-1
 192 576 l 1,11,-1
 320 512 l 1,12,-1
 384 384 l 1,13,-1
 320 256 l 1,14,-1
 234 213 l 1,15,-1
 384 64 l 1,16,-1
 384 0 l 1,17,-1
 352 0 l 1,18,-1
 160 192 l 1,19,-1
 64 192 l 1,20,-1
 64 0 l 1,21,-1
 0 0 l 1,9,-1
EndSplineSet
EndChar

StartChar: S
Encoding: 83 83 54
Width: 512
Flags: W
LayerCount: 2
Back
Fore
SplineSet
0 0 m 1,0,-1
 0 64 l 1,1,-1
 256 64 l 1,2,-1
 320 128 l 1,3,-1
 288 192 l 1,4,-1
 256 224 l 1,5,-1
 64 320 l 1,6,-1
 0 448 l 1,7,-1
 32 512 l 1,8,-1
 64 544 l 1,9,-1
 128 576 l 1,10,-1
 384 576 l 1,11,-1
 384 512 l 1,12,-1
 128 512 l 1,13,-1
 64 448 l 1,14,-1
 96 384 l 1,15,-1
 128 352 l 1,16,-1
 320 256 l 1,17,-1
 384 128 l 1,18,-1
 352 64 l 1,19,-1
 320 32 l 1,20,-1
 256 0 l 1,21,-1
 0 0 l 1,0,-1
EndSplineSet
EndChar

StartChar: T
Encoding: 84 84 55
Width: 576
Flags: W
LayerCount: 2
Back
Fore
SplineSet
192 0 m 1,0,-1
 192 512 l 1,1,-1
 0 512 l 1,2,-1
 0 576 l 1,3,-1
 448 576 l 1,4,-1
 448 512 l 1,5,-1
 256 512 l 1,6,-1
 256 0 l 1,7,-1
 192 0 l 1,0,-1
EndSplineSet
EndChar

StartChar: U
Encoding: 85 85 56
Width: 576
Flags: W
LayerCount: 2
Back
Fore
SplineSet
192 0 m 1,0,-1
 64 64 l 1,1,-1
 0 192 l 1,2,-1
 0 576 l 1,3,-1
 64 576 l 1,4,-1
 64 192 l 1,5,-1
 96 128 l 1,6,-1
 128 96 l 1,7,-1
 192 64 l 1,8,-1
 256 64 l 1,9,-1
 320 96 l 1,10,-1
 352 128 l 1,11,-1
 384 192 l 1,12,-1
 384 576 l 1,13,-1
 448 576 l 1,14,-1
 448 192 l 1,15,-1
 384 64 l 1,16,-1
 256 0 l 1,17,-1
 192 0 l 1,0,-1
EndSplineSet
EndChar

StartChar: V
Encoding: 86 86 57
Width: 576
Flags: W
LayerCount: 2
Back
Fore
SplineSet
192 0 m 1,0,-1
 0 576 l 1,1,-1
 64 576 l 1,2,-1
 213 128 l 1,3,-1
 213 127 l 1,4,-1
 224 96 l 1,5,-1
 384 576 l 1,6,-1
 448 576 l 1,7,-1
 256 0 l 1,8,-1
 192 0 l 1,0,-1
EndSplineSet
EndChar

StartChar: W
Encoding: 87 87 58
Width: 704
Flags: W
LayerCount: 2
Back
Fore
SplineSet
144 0 m 1,0,-1
 0 576 l 1,1,-1
 64 576 l 1,2,-1
 160 192 l 1,3,-1
 256 576 l 1,4,-1
 320 576 l 1,5,-1
 416 192 l 1,6,-1
 512 576 l 1,7,-1
 576 576 l 1,8,-1
 432 0 l 1,9,-1
 400 0 l 1,10,-1
 288 448 l 1,11,-1
 176 0 l 1,12,-1
 144 0 l 1,0,-1
EndSplineSet
EndChar

StartChar: X
Encoding: 88 88 59
Width: 512
Flags: W
LayerCount: 2
Back
Fore
SplineSet
0 0 m 1,0,-1
 144 288 l 1,1,-1
 0 576 l 1,2,-1
 64 576 l 1,3,-1
 192 320 l 1,4,-1
 224 320 l 1,5,-1
 352 576 l 1,6,-1
 416 576 l 1,7,-1
 272 288 l 1,8,-1
 416 0 l 1,9,-1
 352 0 l 1,10,-1
 224 256 l 1,11,-1
 192 256 l 1,12,-1
 64 0 l 1,13,-1
 0 0 l 1,0,-1
EndSplineSet
EndChar

StartChar: Y
Encoding: 89 89 60
Width: 576
Flags: W
LayerCount: 2
Back
Fore
SplineSet
192 0 m 1,0,-1
 192 192 l 1,1,-1
 0 576 l 1,2,-1
 64 576 l 1,3,-1
 224 256 l 1,4,-1
 384 576 l 1,5,-1
 448 576 l 1,6,-1
 256 192 l 1,7,-1
 256 0 l 1,8,-1
 192 0 l 1,0,-1
EndSplineSet
EndChar

StartChar: Z
Encoding: 90 90 61
Width: 576
Flags: W
LayerCount: 2
Back
Fore
SplineSet
0 0 m 1,0,-1
 0 96 l 1,1,-1
 416 512 l 1,2,-1
 0 512 l 1,3,-1
 0 576 l 1,4,-1
 448 576 l 1,5,-1
 448 448 l 1,6,-1
 64 64 l 1,7,-1
 448 64 l 1,8,-1
 448 0 l 1,9,-1
 0 0 l 1,0,-1
EndSplineSet
EndChar

StartChar: bracketleft
Encoding: 91 91 62
Width: 320
Flags: W
LayerCount: 2
Back
Fore
SplineSet
0 -64 m 1,0,-1
 0 640 l 1,1,-1
 192 640 l 1,2,-1
 192 576 l 1,3,-1
 64 576 l 1,4,-1
 64 0 l 1,5,-1
 192 0 l 1,6,-1
 192 -64 l 1,7,-1
 0 -64 l 1,0,-1
EndSplineSet
EndChar

StartChar: backslash
Encoding: 92 92 63
Width: 448
Flags: W
LayerCount: 2
Back
Fore
SplineSet
288 0 m 1,0,-1
 0 576 l 1,1,-1
 64 576 l 1,2,-1
 320 64 l 1,3,-1
 320 0 l 1,4,-1
 288 0 l 1,0,-1
EndSplineSet
EndChar

StartChar: bracketright
Encoding: 93 93 64
Width: 320
Flags: W
LayerCount: 2
Back
Fore
SplineSet
0 -64 m 1,0,-1
 0 0 l 1,1,-1
 128 0 l 1,2,-1
 128 576 l 1,3,-1
 0 576 l 1,4,-1
 0 640 l 1,5,-1
 192 640 l 1,6,-1
 192 -64 l 1,7,-1
 0 -64 l 1,0,-1
EndSplineSet
EndChar

StartChar: asciicircum
Encoding: 94 94 65
Width: 448
Flags: W
LayerCount: 2
Back
Fore
SplineSet
0 448 m 1,0,-1
 160 608 l 1,1,-1
 320 448 l 1,2,-1
 256 448 l 1,3,-1
 192 512 l 1,4,-1
 192 512 l 1,5,-1
 160 544 l 1,6,-1
 64 448 l 1,7,-1
 0 448 l 1,0,-1
EndSplineSet
EndChar

StartChar: underscore
Encoding: 95 95 66
Width: 512
Flags: W
LayerCount: 2
Back
Fore
SplineSet
0 -64 m 1,0,-1
 0 0 l 1,1,-1
 384 0 l 1,2,-1
 384 -64 l 1,3,-1
 0 -64 l 1,0,-1
EndSplineSet
EndChar

StartChar: grave
Encoding: 96 96 67
Width: 384
Flags: W
LayerCount: 2
Back
Fore
SplineSet
192 512 m 1,0,-1
 0 608 l 1,1,-1
 0 640 l 1,2,-1
 64 640 l 1,3,-1
 256 544 l 1,4,-1
 256 512 l 1,5,-1
 192 512 l 1,0,-1
EndSplineSet
EndChar

StartChar: a
Encoding: 97 97 68
Width: 512
Flags: W
LayerCount: 2
Back
Fore
SplineSet
192 64 m 1,0,-1
 320 128 l 1,1,-1
 320 192 l 1,2,-1
 128 192 l 1,3,-1
 85 170 l 1,4,-1
 64 128 l 1,5,-1
 85 85 l 1,6,-1
 128 64 l 1,7,-1
 192 64 l 1,0,-1
128 0 m 1,8,-1
 64 32 l 1,9,-1
 32 64 l 1,10,-1
 0 128 l 1,11,-1
 32 192 l 1,12,-1
 64 224 l 1,13,-1
 128 256 l 1,14,-1
 320 256 l 1,15,-1
 320 320 l 1,16,-1
 298 362 l 1,17,-1
 256 384 l 1,18,-1
 64 384 l 1,19,-1
 64 448 l 1,20,-1
 256 448 l 1,21,-1
 320 416 l 1,22,-1
 352 384 l 1,23,-1
 384 320 l 1,24,-1
 384 0 l 1,25,-1
 320 0 l 1,26,-1
 320 64 l 1,27,-1
 192 0 l 1,28,-1
 128 0 l 1,8,-1
EndSplineSet
EndChar

StartChar: b
Encoding: 98 98 69
Width: 512
Flags: W
LayerCount: 2
Back
Fore
SplineSet
192 64 m 1,0,-1
 256 96 l 1,1,-1
 288 128 l 1,2,-1
 320 192 l 1,3,-1
 320 320 l 1,4,-1
 256 384 l 1,5,-1
 192 384 l 1,6,-1
 64 320 l 1,7,-1
 64 64 l 1,8,-1
 192 64 l 1,0,-1
0 0 m 1,9,-1
 0 576 l 1,10,-1
 64 576 l 1,11,-1
 64 384 l 1,12,-1
 192 448 l 1,13,-1
 256 448 l 1,14,-1
 320 416 l 1,15,-1
 352 384 l 1,16,-1
 384 320 l 1,17,-1
 384 192 l 1,18,-1
 320 64 l 1,19,-1
 192 0 l 1,20,-1
 0 0 l 1,9,-1
EndSplineSet
EndChar

StartChar: c
Encoding: 99 99 70
Width: 448
Flags: W
LayerCount: 2
Back
Fore
SplineSet
192 0 m 1,0,-1
 64 64 l 1,1,-1
 0 192 l 1,2,-1
 0 256 l 1,3,-1
 64 384 l 1,4,-1
 192 448 l 1,5,-1
 320 448 l 1,6,-1
 320 384 l 1,7,-1
 192 384 l 1,8,-1
 128 352 l 1,9,-1
 96 320 l 1,10,-1
 64 256 l 1,11,-1
 64 192 l 1,12,-1
 96 128 l 1,13,-1
 128 96 l 1,14,-1
 192 64 l 1,15,-1
 320 64 l 1,16,-1
 320 0 l 1,17,-1
 192 0 l 1,0,-1
EndSplineSet
EndChar

StartChar: d
Encoding: 100 100 71
Width: 512
Flags: W
LayerCount: 2
Back
Fore
SplineSet
192 64 m 1,0,-1
 320 128 l 1,1,-1
 320 384 l 1,2,-1
 192 384 l 1,3,-1
 128 352 l 1,4,-1
 96 320 l 1,5,-1
 64 256 l 1,6,-1
 64 128 l 1,7,-1
 128 64 l 1,8,-1
 192 64 l 1,0,-1
128 0 m 1,9,-1
 64 32 l 1,10,-1
 32 64 l 1,11,-1
 0 128 l 1,12,-1
 0 256 l 1,13,-1
 64 384 l 1,14,-1
 192 448 l 1,15,-1
 320 448 l 1,16,-1
 320 576 l 1,17,-1
 384 576 l 1,18,-1
 384 0 l 1,19,-1
 320 0 l 1,20,-1
 320 64 l 1,21,-1
 192 0 l 1,22,-1
 128 0 l 1,9,-1
EndSplineSet
EndChar

StartChar: e
Encoding: 101 101 72
Width: 512
Flags: W
LayerCount: 2
Back
Fore
SplineSet
320 256 m 1,0,-1
 320 320 l 1,1,-1
 298 362 l 1,2,-1
 256 384 l 1,3,-1
 192 384 l 1,4,-1
 128 352 l 1,5,-1
 96 320 l 1,6,-1
 64 256 l 1,7,-1
 320 256 l 1,0,-1
128 0 m 1,8,-1
 64 32 l 1,9,-1
 32 64 l 1,10,-1
 0 128 l 1,11,-1
 0 256 l 1,12,-1
 64 384 l 1,13,-1
 192 448 l 1,14,-1
 256 448 l 1,15,-1
 320 416 l 1,16,-1
 352 384 l 1,17,-1
 384 320 l 1,18,-1
 384 192 l 1,19,-1
 64 192 l 1,20,-1
 64 128 l 1,21,-1
 85 85 l 1,22,-1
 128 64 l 1,23,-1
 384 64 l 1,24,-1
 384 0 l 1,25,-1
 128 0 l 1,8,-1
EndSplineSet
EndChar

StartChar: f
Encoding: 102 102 73
Width: 448
Flags: W
LayerCount: 2
Back
Fore
SplineSet
64 0 m 1,0,-1
 64 384 l 1,1,-1
 0 384 l 1,2,-1
 0 448 l 1,3,-1
 64 448 l 1,4,-1
 96 512 l 1,5,-1
 128 544 l 1,6,-1
 192 576 l 1,7,-1
 320 576 l 1,8,-1
 320 512 l 1,9,-1
 192 512 l 1,10,-1
 149 490 l 1,11,-1
 128 448 l 1,12,-1
 256 448 l 1,13,-1
 256 384 l 1,14,-1
 128 384 l 1,15,-1
 128 0 l 1,16,-1
 64 0 l 1,0,-1
EndSplineSet
EndChar

StartChar: g
Encoding: 103 103 74
Width: 512
Flags: W
LayerCount: 2
Back
Fore
SplineSet
192 64 m 1,0,-1
 320 128 l 1,1,-1
 320 384 l 1,2,-1
 192 384 l 1,3,-1
 128 352 l 1,4,-1
 96 320 l 1,5,-1
 64 256 l 1,6,-1
 64 128 l 1,7,-1
 128 64 l 1,8,-1
 192 64 l 1,0,-1
64 -192 m 1,9,-1
 64 -128 l 1,10,-1
 192 -128 l 1,11,-1
 256 -96 l 1,12,-1
 288 -64 l 1,13,-1
 320 0 l 1,14,-1
 320 64 l 1,15,-1
 192 0 l 1,16,-1
 128 0 l 1,17,-1
 64 32 l 1,18,-1
 32 64 l 1,19,-1
 0 128 l 1,20,-1
 0 256 l 1,21,-1
 64 384 l 1,22,-1
 192 448 l 1,23,-1
 384 448 l 1,24,-1
 384 0 l 1,25,-1
 320 -128 l 1,26,-1
 192 -192 l 1,27,-1
 64 -192 l 1,9,-1
EndSplineSet
EndChar

StartChar: h
Encoding: 104 104 75
Width: 512
Flags: W
LayerCount: 2
Back
Fore
SplineSet
0 0 m 1,0,-1
 0 576 l 1,1,-1
 64 576 l 1,2,-1
 64 384 l 1,3,-1
 192 448 l 1,4,-1
 256 448 l 1,5,-1
 320 416 l 1,6,-1
 352 384 l 1,7,-1
 384 320 l 1,8,-1
 384 0 l 1,9,-1
 320 0 l 1,10,-1
 320 320 l 1,11,-1
 256 384 l 1,12,-1
 192 384 l 1,13,-1
 64 320 l 1,14,-1
 64 0 l 1,15,-1
 0 0 l 1,0,-1
EndSplineSet
EndChar

StartChar: i
Encoding: 105 105 76
Width: 192
Flags: W
LayerCount: 2
Back
Fore
SplineSet
0 0 m 1,0,-1
 0 448 l 1,1,-1
 64 448 l 1,2,-1
 64 0 l 1,3,-1
 0 0 l 1,0,-1
0 512 m 1,4,-1
 0 576 l 1,5,-1
 64 576 l 1,6,-1
 64 512 l 1,7,-1
 0 512 l 1,4,-1
EndSplineSet
EndChar

StartChar: j
Encoding: 106 106 77
Width: 320
Flags: W
LayerCount: 2
Back
Fore
SplineSet
0 -128 m 1,0,-1
 0 -64 l 1,1,-1
 64 -64 l 1,2,-1
 106 -42 l 1,3,-1
 128 0 l 1,4,-1
 128 448 l 1,5,-1
 192 448 l 1,6,-1
 192 0 l 1,7,-1
 160 -64 l 1,8,-1
 128 -96 l 1,9,-1
 64 -128 l 1,10,-1
 0 -128 l 1,0,-1
128 512 m 1,11,-1
 128 576 l 1,12,-1
 192 576 l 1,13,-1
 192 512 l 1,14,-1
 128 512 l 1,11,-1
EndSplineSet
EndChar

StartChar: k
Encoding: 107 107 78
Width: 448
Flags: W
LayerCount: 2
Back
Fore
SplineSet
0 0 m 1,0,-1
 0 576 l 1,1,-1
 64 576 l 1,2,-1
 64 256 l 1,3,-1
 256 448 l 1,4,-1
 320 448 l 1,5,-1
 320 416 l 1,6,-1
 144 240 l 1,7,-1
 320 64 l 1,8,-1
 320 0 l 1,9,-1
 288 0 l 1,10,-1
 64 224 l 1,11,-1
 64 0 l 1,12,-1
 0 0 l 1,0,-1
EndSplineSet
EndChar

StartChar: l
Encoding: 108 108 79
Width: 192
Flags: W
LayerCount: 2
Back
Fore
SplineSet
0 0 m 1,0,-1
 0 576 l 1,1,-1
 64 576 l 1,2,-1
 64 0 l 1,3,-1
 0 0 l 1,0,-1
EndSplineSet
EndChar

StartChar: m
Encoding: 109 109 80
Width: 704
Flags: W
LayerCount: 2
Back
Fore
SplineSet
0 0 m 1,0,-1
 0 448 l 1,1,-1
 64 448 l 1,2,-1
 64 384 l 1,3,-1
 192 448 l 1,4,-1
 256 416 l 1,5,-1
 288 384 l 1,6,-1
 294 371 l 1,7,-1
 448 448 l 1,8,-1
 512 416 l 1,9,-1
 544 384 l 1,10,-1
 576 320 l 1,11,-1
 576 0 l 1,12,-1
 512 0 l 1,13,-1
 512 320 l 1,14,-1
 490 362 l 1,15,-1
 448 384 l 1,16,-1
 320 320 l 1,17,-1
 320 0 l 1,18,-1
 256 0 l 1,19,-1
 256 320 l 1,20,-1
 234 362 l 1,21,-1
 192 384 l 1,22,-1
 64 320 l 1,23,-1
 64 0 l 1,24,-1
 0 0 l 1,0,-1
EndSplineSet
EndChar

StartChar: n
Encoding: 110 110 81
Width: 512
Flags: W
LayerCount: 2
Back
Fore
SplineSet
0 0 m 1,0,-1
 0 448 l 1,1,-1
 64 448 l 1,2,-1
 64 384 l 1,3,-1
 192 448 l 1,4,-1
 256 448 l 1,5,-1
 320 416 l 1,6,-1
 352 384 l 1,7,-1
 384 320 l 1,8,-1
 384 0 l 1,9,-1
 320 0 l 1,10,-1
 320 320 l 1,11,-1
 256 384 l 1,12,-1
 192 384 l 1,13,-1
 64 320 l 1,14,-1
 64 0 l 1,15,-1
 0 0 l 1,0,-1
EndSplineSet
EndChar

StartChar: o
Encoding: 111 111 82
Width: 576
Flags: W
LayerCount: 2
Back
Fore
SplineSet
256 64 m 1,0,-1
 320 96 l 1,1,-1
 352 128 l 1,2,-1
 384 192 l 1,3,-1
 384 256 l 1,4,-1
 352 320 l 1,5,-1
 320 352 l 1,6,-1
 256 384 l 1,7,-1
 192 384 l 1,8,-1
 128 352 l 1,9,-1
 96 320 l 1,10,-1
 64 256 l 1,11,-1
 64 192 l 1,12,-1
 96 128 l 1,13,-1
 128 96 l 1,14,-1
 192 64 l 1,15,-1
 256 64 l 1,0,-1
192 0 m 1,16,-1
 64 64 l 1,17,-1
 0 192 l 1,18,-1
 0 256 l 1,19,-1
 64 384 l 1,20,-1
 192 448 l 1,21,-1
 256 448 l 1,22,-1
 384 384 l 1,23,-1
 448 256 l 1,24,-1
 448 192 l 1,25,-1
 384 64 l 1,26,-1
 256 0 l 1,27,-1
 192 0 l 1,16,-1
EndSplineSet
EndChar

StartChar: p
Encoding: 112 112 83
Width: 512
Flags: W
LayerCount: 2
Back
Fore
SplineSet
192 64 m 1,0,-1
 256 96 l 1,1,-1
 288 128 l 1,2,-1
 320 192 l 1,3,-1
 320 320 l 1,4,-1
 298 362 l 1,5,-1
 256 384 l 1,6,-1
 192 384 l 1,7,-1
 64 320 l 1,8,-1
 64 64 l 1,9,-1
 192 64 l 1,0,-1
0 -192 m 1,10,-1
 0 448 l 1,11,-1
 64 448 l 1,12,-1
 64 384 l 1,13,-1
 192 448 l 1,14,-1
 256 448 l 1,15,-1
 320 416 l 1,16,-1
 352 384 l 1,17,-1
 384 320 l 1,18,-1
 384 192 l 1,19,-1
 320 64 l 1,20,-1
 192 0 l 1,21,-1
 64 0 l 1,22,-1
 64 -192 l 1,23,-1
 0 -192 l 1,10,-1
EndSplineSet
EndChar

StartChar: q
Encoding: 113 113 84
Width: 512
Flags: W
LayerCount: 2
Back
Fore
SplineSet
192 64 m 1,0,-1
 320 128 l 1,1,-1
 320 384 l 1,2,-1
 192 384 l 1,3,-1
 128 352 l 1,4,-1
 96 320 l 1,5,-1
 64 256 l 1,6,-1
 64 128 l 1,7,-1
 85 85 l 1,8,-1
 128 64 l 1,9,-1
 192 64 l 1,0,-1
320 -192 m 1,10,-1
 320 64 l 1,11,-1
 192 0 l 1,12,-1
 128 0 l 1,13,-1
 64 32 l 1,14,-1
 32 64 l 1,15,-1
 0 128 l 1,16,-1
 0 256 l 1,17,-1
 64 384 l 1,18,-1
 192 448 l 1,19,-1
 384 448 l 1,20,-1
 384 -192 l 1,21,-1
 320 -192 l 1,10,-1
EndSplineSet
EndChar

StartChar: r
Encoding: 114 114 85
Width: 384
Flags: W
LayerCount: 2
Back
Fore
SplineSet
0 0 m 1,0,-1
 0 448 l 1,1,-1
 64 448 l 1,2,-1
 64 384 l 1,3,-1
 192 448 l 1,4,-1
 256 448 l 1,5,-1
 256 384 l 1,6,-1
 192 384 l 1,7,-1
 128 352 l 1,8,-1
 96 320 l 1,9,-1
 64 256 l 1,10,-1
 64 0 l 1,11,-1
 0 0 l 1,0,-1
EndSplineSet
EndChar

StartChar: s
Encoding: 115 115 86
Width: 448
Flags: W
LayerCount: 2
Back
Fore
SplineSet
0 0 m 1,0,-1
 0 64 l 1,1,-1
 192 64 l 1,2,-1
 234 85 l 1,3,-1
 256 128 l 1,4,-1
 234 170 l 1,5,-1
 192 192 l 1,6,-1
 128 192 l 1,7,-1
 64 224 l 1,8,-1
 32 256 l 1,9,-1
 0 320 l 1,10,-1
 32 384 l 1,11,-1
 64 416 l 1,12,-1
 128 448 l 1,13,-1
 320 448 l 1,14,-1
 320 384 l 1,15,-1
 128 384 l 1,16,-1
 85 362 l 1,17,-1
 64 320 l 1,18,-1
 85 277 l 1,19,-1
 128 256 l 1,20,-1
 192 256 l 1,21,-1
 256 224 l 1,22,-1
 288 192 l 1,23,-1
 320 128 l 1,24,-1
 288 64 l 1,25,-1
 256 32 l 1,26,-1
 192 0 l 1,27,-1
 0 0 l 1,0,-1
EndSplineSet
EndChar

StartChar: t
Encoding: 116 116 87
Width: 448
Flags: W
LayerCount: 2
Back
Fore
SplineSet
192 0 m 1,0,-1
 128 32 l 1,1,-1
 96 64 l 1,2,-1
 64 128 l 1,3,-1
 64 384 l 1,4,-1
 0 384 l 1,5,-1
 0 448 l 1,6,-1
 64 448 l 1,7,-1
 64 576 l 1,8,-1
 128 576 l 1,9,-1
 128 448 l 1,10,-1
 320 448 l 1,11,-1
 320 384 l 1,12,-1
 128 384 l 1,13,-1
 128 128 l 1,14,-1
 149 85 l 1,15,-1
 192 64 l 1,16,-1
 320 64 l 1,17,-1
 320 0 l 1,18,-1
 192 0 l 1,0,-1
EndSplineSet
EndChar

StartChar: u
Encoding: 117 117 88
Width: 512
Flags: W
LayerCount: 2
Back
Fore
SplineSet
128 0 m 1,0,-1
 64 32 l 1,1,-1
 32 64 l 1,2,-1
 0 128 l 1,3,-1
 0 448 l 1,4,-1
 64 448 l 1,5,-1
 64 128 l 1,6,-1
 85 85 l 1,7,-1
 128 64 l 1,8,-1
 192 64 l 1,9,-1
 320 128 l 1,10,-1
 320 448 l 1,11,-1
 384 448 l 1,12,-1
 384 0 l 1,13,-1
 320 0 l 1,14,-1
 320 64 l 1,15,-1
 192 0 l 1,16,-1
 128 0 l 1,0,-1
EndSplineSet
EndChar

StartChar: v
Encoding: 118 118 89
Width: 512
Flags: W
LayerCount: 2
Back
Fore
SplineSet
112 0 m 1,0,-1
 0 448 l 1,1,-1
 64 448 l 1,2,-1
 160 64 l 1,3,-1
 352 448 l 1,4,-1
 384 448 l 1,5,-1
 384 384 l 1,6,-1
 192 0 l 1,7,-1
 112 0 l 1,0,-1
EndSplineSet
EndChar

StartChar: w
Encoding: 119 119 90
Width: 704
Flags: W
LayerCount: 2
Back
Fore
SplineSet
149 0 m 1,0,-1
 0 448 l 1,1,-1
 64 448 l 1,2,-1
 149 192 l 1,3,-1
 149 191 l 1,4,-1
 160 160 l 1,5,-1
 256 448 l 1,6,-1
 320 448 l 1,7,-1
 405 192 l 1,8,-1
 405 191 l 1,9,-1
 416 160 l 1,10,-1
 512 448 l 1,11,-1
 576 448 l 1,12,-1
 426 0 l 1,13,-1
 405 0 l 1,14,-1
 288 352 l 1,15,-1
 277 320 l 1,16,-1
 277 320 l 1,17,-1
 170 0 l 1,18,-1
 149 0 l 1,0,-1
EndSplineSet
EndChar

StartChar: x
Encoding: 120 120 91
Width: 512
Flags: W
LayerCount: 2
Back
Fore
SplineSet
0 0 m 1,0,-1
 0 64 l 1,1,-1
 128 192 l 1,2,-1
 128 192 l 1,3,-1
 160 224 l 1,4,-1
 0 384 l 1,5,-1
 0 448 l 1,6,-1
 32 448 l 1,7,-1
 192 288 l 1,8,-1
 352 448 l 1,9,-1
 384 448 l 1,10,-1
 384 384 l 1,11,-1
 224 224 l 1,12,-1
 255 192 l 1,13,-1
 256 192 l 1,14,-1
 384 64 l 1,15,-1
 384 0 l 1,16,-1
 352 0 l 1,17,-1
 192 160 l 1,18,-1
 32 0 l 1,19,-1
 0 0 l 1,0,-1
EndSplineSet
EndChar

StartChar: y
Encoding: 121 121 92
Width: 512
Flags: W
LayerCount: 2
Back
Fore
SplineSet
-64 -192 m 1,0,-1
 -64 -128 l 1,1,-1
 0 -128 l 1,2,-1
 64 -96 l 1,3,-1
 96 -64 l 1,4,-1
 112 0 l 1,5,-1
 0 448 l 1,6,-1
 64 448 l 1,7,-1
 160 64 l 1,8,-1
 352 448 l 1,9,-1
 384 448 l 1,10,-1
 384 384 l 1,11,-1
 128 -128 l 1,12,-1
 0 -192 l 1,13,-1
 -64 -192 l 1,0,-1
EndSplineSet
EndChar

StartChar: z
Encoding: 122 122 93
Width: 448
Flags: W
LayerCount: 2
Back
Fore
SplineSet
0 0 m 1,0,-1
 0 96 l 1,1,-1
 288 384 l 1,2,-1
 0 384 l 1,3,-1
 0 448 l 1,4,-1
 320 448 l 1,5,-1
 320 320 l 1,6,-1
 64 64 l 1,7,-1
 320 64 l 1,8,-1
 320 0 l 1,9,-1
 0 0 l 1,0,-1
EndSplineSet
EndChar

StartChar: braceleft
Encoding: 123 123 94
Width: 320
Flags: W
LayerCount: 2
Back
Fore
SplineSet
128 -64 m 1,0,-1
 64 0 l 1,1,-1
 64 224 l 1,2,-1
 0 256 l 1,3,-1
 0 320 l 1,4,-1
 64 352 l 1,5,-1
 64 576 l 1,6,-1
 128 640 l 1,7,-1
 192 640 l 1,8,-1
 192 576 l 1,9,-1
 128 576 l 1,10,-1
 128 352 l 1,11,-1
 64 320 l 1,12,-1
 64 256 l 1,13,-1
 128 224 l 1,14,-1
 128 0 l 1,15,-1
 192 0 l 1,16,-1
 192 -64 l 1,17,-1
 128 -64 l 1,0,-1
EndSplineSet
EndChar

StartChar: bar
Encoding: 124 124 95
Width: 192
Flags: W
LayerCount: 2
Back
Fore
SplineSet
0 -64 m 1,0,-1
 0 640 l 1,1,-1
 64 640 l 1,2,-1
 64 -64 l 1,3,-1
 0 -64 l 1,0,-1
EndSplineSet
EndChar

StartChar: braceright
Encoding: 125 125 96
Width: 320
Flags: W
LayerCount: 2
Back
Fore
SplineSet
0 -64 m 1,0,-1
 0 0 l 1,1,-1
 64 0 l 1,2,-1
 64 224 l 1,3,-1
 128 256 l 1,4,-1
 128 320 l 1,5,-1
 64 352 l 1,6,-1
 64 576 l 1,7,-1
 0 576 l 1,8,-1
 0 640 l 1,9,-1
 64 640 l 1,10,-1
 128 576 l 1,11,-1
 128 352 l 1,12,-1
 192 320 l 1,13,-1
 192 256 l 1,14,-1
 128 224 l 1,15,-1
 128 0 l 1,16,-1
 64 -64 l 1,17,-1
 0 -64 l 1,0,-1
EndSplineSet
EndChar

StartChar: asciitilde
Encoding: 126 126 97
Width: 512
Flags: W
LayerCount: 2
Back
Fore
SplineSet
32 512 m 1,0,-1
 32 576 l 1,1,-1
 64 608 l 1,2,-1
 128 640 l 1,3,-1
 256 576 l 1,4,-1
 320 608 l 1,5,-1
 352 640 l 1,6,-1
 352 576 l 1,7,-1
 320 544 l 1,8,-1
 256 512 l 1,9,-1
 128 576 l 1,10,-1
 64 544 l 1,11,-1
 32 512 l 1,12,-1
 32 512 l 1,0,-1
EndSplineSet
EndChar

StartChar: exclamdown
Encoding: 161 161 98
Width: 192
Flags: W
LayerCount: 2
Back
Fore
SplineSet
0 0 m 1,0,-1
 0 384 l 1,1,-1
 64 384 l 1,2,-1
 64 0 l 1,3,-1
 0 0 l 1,0,-1
0 448 m 1,4,-1
 0 576 l 1,5,-1
 64 576 l 1,6,-1
 64 448 l 1,7,-1
 0 448 l 1,4,-1
EndSplineSet
EndChar

StartChar: cent
Encoding: 162 162 99
Width: 448
Flags: W
LayerCount: 2
Back
Fore
SplineSet
160 144 m 1,0,-1
 160 432 l 1,1,-1
 128 416 l 1,2,-1
 96 384 l 1,3,-1
 64 320 l 1,4,-1
 64 256 l 1,5,-1
 96 192 l 1,6,-1
 128 160 l 1,7,-1
 160 144 l 1,8,-1
 160 144 l 1,0,-1
160 0 m 1,9,-1
 160 64 l 1,10,-1
 128 96 l 1,11,-1
 64 128 l 1,12,-1
 0 256 l 1,13,-1
 0 320 l 1,14,-1
 64 448 l 1,15,-1
 128 480 l 1,16,-1
 160 512 l 1,17,-1
 160 576 l 1,18,-1
 224 576 l 1,19,-1
 224 512 l 1,20,-1
 320 512 l 1,21,-1
 320 448 l 1,22,-1
 224 448 l 1,23,-1
 224 128 l 1,24,-1
 320 128 l 1,25,-1
 320 64 l 1,26,-1
 224 64 l 1,27,-1
 224 0 l 1,28,-1
 160 0 l 1,9,-1
EndSplineSet
EndChar

StartChar: sterling
Encoding: 163 163 100
Width: 512
Flags: W
LayerCount: 2
Back
Fore
SplineSet
0 0 m 1,0,-1
 0 32 l 1,1,-1
 64 96 l 1,2,-1
 64 256 l 1,3,-1
 0 256 l 1,4,-1
 0 320 l 1,5,-1
 64 320 l 1,6,-1
 64 384 l 1,7,-1
 128 512 l 1,8,-1
 256 576 l 1,9,-1
 384 576 l 1,10,-1
 384 512 l 1,11,-1
 256 512 l 1,12,-1
 192 480 l 1,13,-1
 160 448 l 1,14,-1
 128 384 l 1,15,-1
 128 320 l 1,16,-1
 256 320 l 1,17,-1
 256 256 l 1,18,-1
 128 256 l 1,19,-1
 128 128 l 1,20,-1
 192 128 l 1,21,-1
 320 64 l 1,22,-1
 384 64 l 1,23,-1
 384 0 l 1,24,-1
 320 0 l 1,25,-1
 192 64 l 1,26,-1
 128 64 l 1,27,-1
 85 42 l 1,28,-1
 64 0 l 1,29,-1
 0 0 l 1,0,-1
EndSplineSet
EndChar

StartChar: currency
Encoding: 164 164 101
Width: 512
Flags: W
LayerCount: 2
Back
Fore
SplineSet
256 192 m 1,0,-1
 298 213 l 1,1,-1
 320 256 l 1,2,-1
 320 320 l 1,3,-1
 298 362 l 1,4,-1
 256 384 l 1,5,-1
 192 384 l 1,6,-1
 149 362 l 1,7,-1
 149 362 l 1,8,-1
 128 320 l 1,9,-1
 128 256 l 1,10,-1
 149 213 l 1,11,-1
 149 213 l 1,12,-1
 192 192 l 1,13,-1
 256 192 l 1,0,-1
64 128 m 1,14,-1
 64 192 l 1,15,-1
 89 204 l 1,16,-1
 64 256 l 1,17,-1
 64 320 l 1,18,-1
 89 371 l 1,19,-1
 64 384 l 1,20,-1
 64 448 l 1,21,-1
 128 448 l 1,22,-1
 140 422 l 1,23,-1
 192 448 l 1,24,-1
 256 448 l 1,25,-1
 307 422 l 1,26,-1
 320 448 l 1,27,-1
 384 448 l 1,28,-1
 384 384 l 1,29,-1
 358 371 l 1,30,-1
 384 320 l 1,31,-1
 384 256 l 1,32,-1
 358 204 l 1,33,-1
 384 192 l 1,34,-1
 384 128 l 1,35,-1
 320 128 l 1,36,-1
 307 153 l 1,37,-1
 256 128 l 1,38,-1
 192 128 l 1,39,-1
 140 153 l 1,40,-1
 128 128 l 1,41,-1
 64 128 l 1,14,-1
EndSplineSet
EndChar

StartChar: yen
Encoding: 165 165 102
Width: 576
Flags: W
LayerCount: 2
Back
Fore
SplineSet
192 0 m 1,0,-1
 192 64 l 1,1,-1
 64 64 l 1,2,-1
 64 128 l 1,3,-1
 192 128 l 1,4,-1
 192 192 l 1,5,-1
 64 192 l 1,6,-1
 64 256 l 1,7,-1
 160 256 l 1,8,-1
 0 576 l 1,9,-1
 64 576 l 1,10,-1
 224 256 l 1,11,-1
 384 576 l 1,12,-1
 448 576 l 1,13,-1
 288 256 l 1,14,-1
 384 256 l 1,15,-1
 384 192 l 1,16,-1
 256 192 l 1,17,-1
 256 128 l 1,18,-1
 384 128 l 1,19,-1
 384 64 l 1,20,-1
 256 64 l 1,21,-1
 256 0 l 1,22,-1
 192 0 l 1,0,-1
EndSplineSet
EndChar

StartChar: brokenbar
Encoding: 166 166 103
Width: 192
Flags: W
LayerCount: 2
Back
Fore
SplineSet
0 -64 m 1,0,-1
 0 256 l 1,1,-1
 64 256 l 1,2,-1
 64 -64 l 1,3,-1
 0 -64 l 1,0,-1
0 320 m 1,4,-1
 0 640 l 1,5,-1
 64 640 l 1,6,-1
 64 320 l 1,7,-1
 0 320 l 1,4,-1
EndSplineSet
EndChar

StartChar: section
Encoding: 167 167 104
Width: 384
Flags: W
LayerCount: 2
Back
Fore
SplineSet
0 -64 m 1,0,-1
 0 0 l 1,1,-1
 128 0 l 1,2,-1
 170 21 l 1,3,-1
 192 64 l 1,4,-1
 160 128 l 1,5,-1
 0 288 l 1,6,-1
 0 352 l 1,7,-1
 32 384 l 1,8,-1
 64 384 l 1,9,-1
 64 320 l 1,10,-1
 192 192 l 1,11,-1
 256 64 l 1,12,-1
 224 0 l 1,13,-1
 192 -32 l 1,14,-1
 128 -64 l 1,15,-1
 0 -64 l 1,0,-1
192 192 m 1,16,-1
 192 256 l 1,17,-1
 64 384 l 1,18,-1
 0 512 l 1,19,-1
 32 576 l 1,20,-1
 64 608 l 1,21,-1
 128 640 l 1,22,-1
 256 640 l 1,23,-1
 256 576 l 1,24,-1
 128 576 l 1,25,-1
 85 554 l 1,26,-1
 64 512 l 1,27,-1
 96 448 l 1,28,-1
 256 288 l 1,29,-1
 256 224 l 1,30,-1
 224 192 l 1,31,-1
 192 192 l 1,16,-1
EndSplineSet
EndChar

StartChar: dieresis
Encoding: 168 168 105
Width: 384
Flags: W
LayerCount: 2
Back
Fore
SplineSet
0 512 m 1,0,-1
 0 640 l 1,1,-1
 64 640 l 1,2,-1
 64 512 l 1,3,-1
 0 512 l 1,0,-1
192 512 m 1,4,-1
 192 640 l 1,5,-1
 256 640 l 1,6,-1
 256 512 l 1,7,-1
 192 512 l 1,4,-1
EndSplineSet
EndChar

StartChar: copyright
Encoding: 169 169 106
Width: 576
Flags: W
LayerCount: 2
Back
Fore
SplineSet
192 128 m 1,0,-1
 128 192 l 1,1,-1
 128 384 l 1,2,-1
 192 448 l 1,3,-1
 256 448 l 1,4,-1
 320 384 l 1,5,-1
 320 320 l 1,6,-1
 256 320 l 1,7,-1
 256 384 l 1,8,-1
 192 384 l 1,9,-1
 192 192 l 1,10,-1
 256 192 l 1,11,-1
 256 256 l 1,12,-1
 320 256 l 1,13,-1
 320 192 l 1,14,-1
 256 128 l 1,15,-1
 192 128 l 1,0,-1
256 64 m 1,16,-1
 320 96 l 1,17,-1
 352 128 l 1,18,-1
 384 192 l 1,19,-1
 384 384 l 1,20,-1
 352 448 l 1,21,-1
 320 480 l 1,22,-1
 256 512 l 1,23,-1
 192 512 l 1,24,-1
 128 480 l 1,25,-1
 96 448 l 1,26,-1
 64 384 l 1,27,-1
 64 192 l 1,28,-1
 96 128 l 1,29,-1
 128 96 l 1,30,-1
 192 64 l 1,31,-1
 256 64 l 1,16,-1
192 0 m 1,32,-1
 64 64 l 1,33,-1
 0 192 l 1,34,-1
 0 384 l 1,35,-1
 64 512 l 1,36,-1
 192 576 l 1,37,-1
 256 576 l 1,38,-1
 384 512 l 1,39,-1
 448 384 l 1,40,-1
 448 192 l 1,41,-1
 384 64 l 1,42,-1
 256 0 l 1,43,-1
 192 0 l 1,32,-1
EndSplineSet
EndChar

StartChar: ordfeminine
Encoding: 170 170 107
Width: 320
Flags: W
LayerCount: 2
Back
Fore
SplineSet
128 320 m 1,0,-1
 128 384 l 1,1,-1
 64 384 l 1,2,-1
 64 320 l 1,3,-1
 128 320 l 1,0,-1
64 256 m 1,4,-1
 0 320 l 1,5,-1
 0 384 l 1,6,-1
 64 448 l 1,7,-1
 128 448 l 1,8,-1
 128 512 l 1,9,-1
 0 512 l 1,10,-1
 64 576 l 1,11,-1
 128 576 l 1,12,-1
 192 512 l 1,13,-1
 192 256 l 1,14,-1
 64 256 l 1,4,-1
EndSplineSet
EndChar

StartChar: guillemotleft
Encoding: 171 171 108
Width: 512
Flags: W
LayerCount: 2
Back
Fore
SplineSet
96 64 m 1,0,-1
 0 256 l 1,1,-1
 96 448 l 1,2,-1
 160 448 l 1,3,-1
 64 256 l 1,4,-1
 160 64 l 1,5,-1
 96 64 l 1,0,-1
288 64 m 1,6,-1
 192 256 l 1,7,-1
 288 448 l 1,8,-1
 352 448 l 1,9,-1
 256 256 l 1,10,-1
 352 64 l 1,11,-1
 288 64 l 1,6,-1
EndSplineSet
EndChar

StartChar: logicalnot
Encoding: 172 172 109
Width: 576
Flags: W
LayerCount: 2
Back
Fore
SplineSet
384 128 m 1,0,-1
 384 320 l 1,1,-1
 0 320 l 1,2,-1
 0 384 l 1,3,-1
 448 384 l 1,4,-1
 448 128 l 1,5,-1
 384 128 l 1,0,-1
EndSplineSet
EndChar

StartChar: registered
Encoding: 174 174 110
Width: 576
Flags: W
LayerCount: 2
Back
Fore
SplineSet
128 128 m 1,0,-1
 128 448 l 1,1,-1
 256 448 l 1,2,-1
 320 384 l 1,3,-1
 320 320 l 1,4,-1
 256 320 l 1,5,-1
 256 384 l 1,6,-1
 192 384 l 1,7,-1
 192 320 l 1,8,-1
 256 320 l 1,9,-1
 320 256 l 1,10,-1
 320 128 l 1,11,-1
 256 128 l 1,12,-1
 256 256 l 1,13,-1
 192 256 l 1,14,-1
 192 128 l 1,15,-1
 128 128 l 1,0,-1
256 64 m 1,16,-1
 320 96 l 1,17,-1
 352 128 l 1,18,-1
 384 192 l 1,19,-1
 384 384 l 1,20,-1
 352 448 l 1,21,-1
 320 480 l 1,22,-1
 256 512 l 1,23,-1
 192 512 l 1,24,-1
 128 480 l 1,25,-1
 96 448 l 1,26,-1
 64 384 l 1,27,-1
 64 192 l 1,28,-1
 96 128 l 1,29,-1
 128 96 l 1,30,-1
 192 64 l 1,31,-1
 256 64 l 1,16,-1
192 0 m 1,32,-1
 64 64 l 1,33,-1
 0 192 l 1,34,-1
 0 384 l 1,35,-1
 64 512 l 1,36,-1
 192 576 l 1,37,-1
 256 576 l 1,38,-1
 384 512 l 1,39,-1
 448 384 l 1,40,-1
 448 192 l 1,41,-1
 384 64 l 1,42,-1
 256 0 l 1,43,-1
 192 0 l 1,32,-1
EndSplineSet
EndChar

StartChar: macron
Encoding: 175 175 111
Width: 448
Flags: W
LayerCount: 2
Back
Fore
SplineSet
0 512 m 1,0,-1
 0 576 l 1,1,-1
 320 576 l 1,2,-1
 320 512 l 1,3,-1
 0 512 l 1,0,-1
EndSplineSet
EndChar

StartChar: degree
Encoding: 176 176 112
Width: 384
Flags: W
LayerCount: 2
Back
Fore
SplineSet
128 384 m 1,0,1
 154 384 154 384 173 402 c 0,2,3
 192 421 192 421 192 448 c 0,4,5
 192 474 192 474 173 493 c 256,6,7
 154 512 154 512 128 512 c 0,8,9
 101 512 101 512 82 493 c 0,10,11
 64 474 64 474 64 448 c 0,12,13
 64 421 64 421 82 402 c 0,14,15
 101 384 101 384 128 384 c 1,16,-1
 128 384 l 1,0,1
128 320 m 1,17,-1
 64 352 l 1,18,-1
 32 384 l 1,19,-1
 0 448 l 1,20,-1
 32 512 l 1,21,-1
 64 544 l 1,22,-1
 128 576 l 1,23,-1
 192 544 l 1,24,-1
 224 512 l 1,25,-1
 256 448 l 1,26,-1
 224 384 l 1,27,-1
 192 352 l 1,28,-1
 128 320 l 1,29,-1
 128 320 l 1,17,-1
EndSplineSet
EndChar

StartChar: plusminus
Encoding: 177 177 113
Width: 576
Flags: W
LayerCount: 2
Back
Fore
SplineSet
0 0 m 1,0,-1
 0 64 l 1,1,-1
 448 64 l 1,2,-1
 448 0 l 1,3,-1
 0 0 l 1,0,-1
192 128 m 1,4,-1
 192 320 l 1,5,-1
 0 320 l 1,6,-1
 0 384 l 1,7,-1
 192 384 l 1,8,-1
 192 576 l 1,9,-1
 256 576 l 1,10,-1
 256 384 l 1,11,-1
 448 384 l 1,12,-1
 448 320 l 1,13,-1
 256 320 l 1,14,-1
 256 128 l 1,15,-1
 192 128 l 1,4,-1
EndSplineSet
EndChar

StartChar: uni00B2
Encoding: 178 178 114
Width: 320
Flags: W
LayerCount: 2
Back
Fore
SplineSet
0 256 m 1,0,-1
 128 512 l 1,1,-1
 64 512 l 1,2,-1
 0 480 l 1,3,-1
 0 512 l 1,4,-1
 64 576 l 1,5,-1
 128 576 l 1,6,-1
 192 512 l 1,7,-1
 96 320 l 1,8,-1
 192 320 l 1,9,-1
 192 256 l 1,10,-1
 0 256 l 1,0,-1
EndSplineSet
EndChar

StartChar: uni00B3
Encoding: 179 179 115
Width: 320
Flags: W
LayerCount: 2
Back
Fore
SplineSet
64 256 m 1,0,-1
 0 320 l 1,1,-1
 128 320 l 1,2,-1
 128 384 l 1,3,-1
 64 384 l 1,4,-1
 64 448 l 1,5,-1
 128 448 l 1,6,-1
 128 512 l 1,7,-1
 0 512 l 1,8,-1
 64 576 l 1,9,-1
 128 576 l 1,10,-1
 192 512 l 1,11,-1
 192 448 l 1,12,-1
 191 448 l 1,13,-1
 160 416 l 1,14,-1
 192 384 l 1,15,-1
 192 320 l 1,16,-1
 128 256 l 1,17,-1
 64 256 l 1,0,-1
EndSplineSet
EndChar

StartChar: acute
Encoding: 180 180 116
Width: 448
Flags: W
LayerCount: 2
Back
Fore
SplineSet
64 512 m 1,0,-1
 64 544 l 1,1,-1
 256 640 l 1,2,-1
 320 640 l 1,3,-1
 320 608 l 1,4,-1
 128 512 l 1,5,-1
 64 512 l 1,0,-1
EndSplineSet
EndChar

StartChar: mu
Encoding: 181 181 117
Width: 512
Flags: W
LayerCount: 2
Back
Fore
SplineSet
0 -192 m 1,0,-1
 0 448 l 1,1,-1
 64 448 l 1,2,-1
 64 128 l 1,3,-1
 85 85 l 1,4,-1
 128 64 l 1,5,-1
 192 64 l 1,6,-1
 320 128 l 1,7,-1
 320 448 l 1,8,-1
 384 448 l 1,9,-1
 384 0 l 1,10,-1
 320 0 l 1,11,-1
 320 64 l 1,12,-1
 192 0 l 1,13,-1
 128 0 l 1,14,-1
 64 32 l 1,15,-1
 64 -192 l 1,16,-1
 0 -192 l 1,0,-1
EndSplineSet
EndChar

StartChar: paragraph
Encoding: 182 182 118
Width: 512
Flags: W
LayerCount: 2
Back
Fore
SplineSet
192 0 m 1,0,-1
 192 192 l 1,1,-1
 64 256 l 1,2,-1
 0 384 l 1,3,-1
 64 512 l 1,4,-1
 192 576 l 1,5,-1
 384 576 l 1,6,-1
 384 0 l 1,7,-1
 320 0 l 1,8,-1
 320 512 l 1,9,-1
 256 512 l 1,10,-1
 256 0 l 1,11,-1
 192 0 l 1,0,-1
EndSplineSet
EndChar

StartChar: periodcentered
Encoding: 183 183 119
Width: 320
Flags: W
LayerCount: 2
Back
Fore
SplineSet
128 256 m 1,0,1
 101 256 101 256 82 274 c 0,2,3
 64 293 64 293 64 320 c 0,4,5
 64 346 64 346 82 365 c 0,6,7
 101 384 101 384 128 384 c 0,8,9
 154 384 154 384 173 365 c 256,10,11
 192 346 192 346 192 320 c 0,12,13
 192 293 192 293 173 274 c 0,14,15
 154 256 154 256 128 256 c 1,16,-1
 128 256 l 1,0,1
EndSplineSet
EndChar

StartChar: cedilla
Encoding: 184 184 120
Width: 256
Flags: W
LayerCount: 2
Back
Fore
SplineSet
0 -160 m 1,0,-1
 0 -128 l 1,1,-1
 64 -96 l 1,2,-1
 64 -64 l 1,3,-1
 0 -32 l 1,4,-1
 0 0 l 1,5,-1
 64 0 l 1,6,-1
 128 -32 l 1,7,-1
 128 -128 l 1,8,-1
 64 -160 l 1,9,-1
 0 -160 l 1,0,-1
EndSplineSet
EndChar

StartChar: uni00B9
Encoding: 185 185 121
Width: 256
Flags: W
LayerCount: 2
Back
Fore
SplineSet
64 256 m 1,0,-1
 64 512 l 1,1,-1
 0 512 l 1,2,-1
 0 544 l 1,3,-1
 64 576 l 1,4,-1
 128 576 l 1,5,-1
 128 256 l 1,6,-1
 64 256 l 1,0,-1
EndSplineSet
EndChar

StartChar: ordmasculine
Encoding: 186 186 122
Width: 320
Flags: W
LayerCount: 2
Back
Fore
SplineSet
128 320 m 1,0,-1
 128 512 l 1,1,-1
 64 512 l 1,2,-1
 64 320 l 1,3,-1
 128 320 l 1,0,-1
64 256 m 1,4,-1
 0 320 l 1,5,-1
 0 512 l 1,6,-1
 64 576 l 1,7,-1
 128 576 l 1,8,-1
 192 512 l 1,9,-1
 192 320 l 1,10,-1
 128 256 l 1,11,-1
 64 256 l 1,4,-1
EndSplineSet
EndChar

StartChar: guillemotright
Encoding: 187 187 123
Width: 512
Flags: W
LayerCount: 2
Back
Fore
SplineSet
32 64 m 1,0,-1
 128 256 l 1,1,-1
 32 448 l 1,2,-1
 96 448 l 1,3,-1
 192 256 l 1,4,-1
 96 64 l 1,5,-1
 32 64 l 1,0,-1
224 64 m 1,6,-1
 320 256 l 1,7,-1
 224 448 l 1,8,-1
 288 448 l 1,9,-1
 384 256 l 1,10,-1
 288 64 l 1,11,-1
 224 64 l 1,6,-1
EndSplineSet
EndChar

StartChar: onequarter
Encoding: 188 188 124
Width: 640
Flags: W
LayerCount: 2
Back
Fore
SplineSet
448 0 m 1,0,-1
 448 128 l 1,1,-1
 320 128 l 1,2,-1
 320 320 l 1,3,-1
 384 320 l 1,4,-1
 384 192 l 1,5,-1
 448 192 l 1,6,-1
 448 320 l 1,7,-1
 512 320 l 1,8,-1
 512 0 l 1,9,-1
 448 0 l 1,0,-1
64 256 m 1,10,-1
 64 512 l 1,11,-1
 0 512 l 1,12,-1
 0 544 l 1,13,-1
 64 576 l 1,14,-1
 128 576 l 1,15,-1
 128 256 l 1,16,-1
 64 256 l 1,10,-1
32 0 m 1,17,-1
 320 576 l 1,18,-1
 384 576 l 1,19,-1
 96 0 l 1,20,-1
 32 0 l 1,17,-1
EndSplineSet
EndChar

StartChar: onehalf
Encoding: 189 189 125
Width: 576
Flags: W
LayerCount: 2
Back
Fore
SplineSet
256 0 m 1,0,-1
 384 256 l 1,1,-1
 320 256 l 1,2,-1
 256 224 l 1,3,-1
 256 256 l 1,4,-1
 320 320 l 1,5,-1
 384 320 l 1,6,-1
 448 256 l 1,7,-1
 352 64 l 1,8,-1
 448 64 l 1,9,-1
 448 0 l 1,10,-1
 256 0 l 1,0,-1
64 256 m 1,11,-1
 64 512 l 1,12,-1
 0 512 l 1,13,-1
 0 544 l 1,14,-1
 64 576 l 1,15,-1
 128 576 l 1,16,-1
 128 256 l 1,17,-1
 64 256 l 1,11,-1
32 0 m 1,18,-1
 320 576 l 1,19,-1
 384 576 l 1,20,-1
 96 0 l 1,21,-1
 32 0 l 1,18,-1
EndSplineSet
EndChar

StartChar: threequarters
Encoding: 190 190 126
Width: 640
Flags: W
LayerCount: 2
Back
Fore
SplineSet
448 0 m 1,0,-1
 448 128 l 1,1,-1
 320 128 l 1,2,-1
 320 320 l 1,3,-1
 384 320 l 1,4,-1
 384 192 l 1,5,-1
 448 192 l 1,6,-1
 448 320 l 1,7,-1
 512 320 l 1,8,-1
 512 0 l 1,9,-1
 448 0 l 1,0,-1
64 256 m 1,10,-1
 0 320 l 1,11,-1
 128 320 l 1,12,-1
 128 384 l 1,13,-1
 64 384 l 1,14,-1
 64 448 l 1,15,-1
 128 448 l 1,16,-1
 128 512 l 1,17,-1
 0 512 l 1,18,-1
 64 576 l 1,19,-1
 128 576 l 1,20,-1
 192 512 l 1,21,-1
 192 448 l 1,22,-1
 191 448 l 1,23,-1
 160 416 l 1,24,-1
 192 384 l 1,25,-1
 192 320 l 1,26,-1
 128 256 l 1,27,-1
 64 256 l 1,10,-1
64 0 m 1,28,-1
 352 576 l 1,29,-1
 416 576 l 1,30,-1
 128 0 l 1,31,-1
 64 0 l 1,28,-1
EndSplineSet
EndChar

StartChar: questiondown
Encoding: 191 191 127
Width: 512
Flags: W
LayerCount: 2
Back
Fore
SplineSet
192 0 m 1,0,-1
 64 64 l 1,1,-1
 0 128 l 1,2,-1
 0 192 l 1,3,-1
 32 256 l 1,4,-1
 64 288 l 1,5,-1
 170 341 l 1,6,-1
 192 384 l 1,7,-1
 256 384 l 1,8,-1
 224 320 l 1,9,-1
 192 288 l 1,10,-1
 85 234 l 1,11,-1
 64 192 l 1,12,-1
 64 128 l 1,13,-1
 192 64 l 1,14,-1
 256 64 l 1,15,-1
 298 85 l 1,16,-1
 320 128 l 1,17,-1
 384 128 l 1,18,-1
 352 64 l 1,19,-1
 320 32 l 1,20,-1
 256 0 l 1,21,-1
 192 0 l 1,0,-1
192 448 m 1,22,-1
 192 576 l 1,23,-1
 256 576 l 1,24,-1
 256 448 l 1,25,-1
 192 448 l 1,22,-1
EndSplineSet
EndChar

StartChar: Agrave
Encoding: 192 192 128
Width: 704
Flags: W
LayerCount: 2
Back
Fore
SplineSet
384 256 m 1,0,-1
 288 448 l 1,1,-1
 192 256 l 1,2,-1
 384 256 l 1,0,-1
0 0 m 1,3,-1
 288 576 l 1,4,-1
 576 0 l 1,5,-1
 512 0 l 1,6,-1
 416 192 l 1,7,-1
 160 192 l 1,8,-1
 64 0 l 1,9,-1
 0 0 l 1,3,-1
320 640 m 1,10,-1
 128 736 l 1,11,-1
 128 768 l 1,12,-1
 192 768 l 1,13,-1
 384 672 l 1,14,-1
 384 640 l 1,15,-1
 320 640 l 1,10,-1
EndSplineSet
EndChar

StartChar: Aacute
Encoding: 193 193 129
Width: 704
Flags: W
LayerCount: 2
Back
Fore
SplineSet
384 256 m 1,0,-1
 288 448 l 1,1,-1
 192 256 l 1,2,-1
 384 256 l 1,0,-1
0 0 m 1,3,-1
 288 576 l 1,4,-1
 576 0 l 1,5,-1
 512 0 l 1,6,-1
 416 192 l 1,7,-1
 160 192 l 1,8,-1
 64 0 l 1,9,-1
 0 0 l 1,3,-1
192 640 m 1,10,-1
 192 672 l 1,11,-1
 384 768 l 1,12,-1
 448 768 l 1,13,-1
 448 736 l 1,14,-1
 256 640 l 1,15,-1
 192 640 l 1,10,-1
EndSplineSet
EndChar

StartChar: Acircumflex
Encoding: 194 194 130
Width: 704
Flags: W
LayerCount: 2
Back
Fore
SplineSet
384 256 m 1,0,-1
 288 448 l 1,1,-1
 192 256 l 1,2,-1
 384 256 l 1,0,-1
0 0 m 1,3,-1
 288 576 l 1,4,-1
 576 0 l 1,5,-1
 512 0 l 1,6,-1
 416 192 l 1,7,-1
 160 192 l 1,8,-1
 64 0 l 1,9,-1
 0 0 l 1,3,-1
128 576 m 1,10,-1
 288 736 l 1,11,-1
 448 576 l 1,12,-1
 384 576 l 1,13,-1
 320 640 l 1,14,-1
 320 640 l 1,15,-1
 288 672 l 1,16,-1
 192 576 l 1,17,-1
 128 576 l 1,10,-1
EndSplineSet
EndChar

StartChar: Atilde
Encoding: 195 195 131
Width: 704
Flags: W
LayerCount: 2
Back
Fore
SplineSet
384 256 m 1,0,-1
 288 448 l 1,1,-1
 192 256 l 1,2,-1
 384 256 l 1,0,-1
0 0 m 1,3,-1
 288 576 l 1,4,-1
 576 0 l 1,5,-1
 512 0 l 1,6,-1
 416 192 l 1,7,-1
 160 192 l 1,8,-1
 64 0 l 1,9,-1
 0 0 l 1,3,-1
128 640 m 1,10,-1
 128 704 l 1,11,-1
 160 736 l 1,12,-1
 224 768 l 1,13,-1
 352 704 l 1,14,-1
 416 736 l 1,15,-1
 448 768 l 1,16,-1
 448 704 l 1,17,-1
 416 672 l 1,18,-1
 352 640 l 1,19,-1
 224 704 l 1,20,-1
 160 672 l 1,21,-1
 128 640 l 1,22,-1
 128 640 l 1,10,-1
EndSplineSet
EndChar

StartChar: Adieresis
Encoding: 196 196 132
Width: 704
Flags: W
LayerCount: 2
Back
Fore
SplineSet
384 256 m 1,0,-1
 288 448 l 1,1,-1
 192 256 l 1,2,-1
 384 256 l 1,0,-1
0 0 m 1,3,-1
 288 576 l 1,4,-1
 576 0 l 1,5,-1
 512 0 l 1,6,-1
 416 192 l 1,7,-1
 160 192 l 1,8,-1
 64 0 l 1,9,-1
 0 0 l 1,3,-1
160 640 m 1,10,-1
 160 768 l 1,11,-1
 224 768 l 1,12,-1
 224 640 l 1,13,-1
 160 640 l 1,10,-1
352 640 m 1,14,-1
 352 768 l 1,15,-1
 416 768 l 1,16,-1
 416 640 l 1,17,-1
 352 640 l 1,14,-1
EndSplineSet
EndChar

StartChar: Aring
Encoding: 197 197 133
Width: 704
Flags: W
LayerCount: 2
Back
Fore
SplineSet
384 256 m 1,0,-1
 288 448 l 1,1,-1
 192 256 l 1,2,-1
 384 256 l 1,0,-1
0 0 m 1,3,-1
 288 576 l 1,4,-1
 576 0 l 1,5,-1
 512 0 l 1,6,-1
 416 192 l 1,7,-1
 160 192 l 1,8,-1
 64 0 l 1,9,-1
 0 0 l 1,3,-1
320 640 m 1,10,-1
 320 704 l 1,11,-1
 256 704 l 1,12,-1
 256 640 l 1,13,-1
 320 640 l 1,10,-1
256 576 m 1,14,-1
 192 640 l 1,15,-1
 192 704 l 1,16,-1
 256 768 l 1,17,-1
 320 768 l 1,18,-1
 384 704 l 1,19,-1
 384 640 l 1,20,-1
 320 576 l 1,21,-1
 256 576 l 1,14,-1
EndSplineSet
EndChar

StartChar: AE
Encoding: 198 198 134
Width: 704
Flags: W
LayerCount: 2
Back
Fore
SplineSet
320 256 m 1,0,-1
 320 512 l 1,1,-1
 192 256 l 1,2,-1
 320 256 l 1,0,-1
0 0 m 1,3,-1
 288 576 l 1,4,-1
 576 576 l 1,5,-1
 576 512 l 1,6,-1
 384 512 l 1,7,-1
 384 320 l 1,8,-1
 576 320 l 1,9,-1
 576 256 l 1,10,-1
 384 256 l 1,11,-1
 384 64 l 1,12,-1
 576 64 l 1,13,-1
 576 0 l 1,14,-1
 320 0 l 1,15,-1
 320 192 l 1,16,-1
 160 192 l 1,17,-1
 64 0 l 1,18,-1
 0 0 l 1,3,-1
EndSplineSet
EndChar

StartChar: Ccedilla
Encoding: 199 199 135
Width: 512
Flags: W
LayerCount: 2
Back
Fore
SplineSet
192 -160 m 1,0,-1
 192 -128 l 1,1,-1
 256 -96 l 1,2,-1
 256 -64 l 1,3,-1
 192 -32 l 1,4,-1
 192 0 l 1,5,-1
 64 64 l 1,6,-1
 0 192 l 1,7,-1
 0 384 l 1,8,-1
 64 512 l 1,9,-1
 192 576 l 1,10,-1
 384 576 l 1,11,-1
 384 512 l 1,12,-1
 192 512 l 1,13,-1
 128 480 l 1,14,-1
 96 448 l 1,15,-1
 64 384 l 1,16,-1
 64 192 l 1,17,-1
 96 128 l 1,18,-1
 128 96 l 1,19,-1
 192 64 l 1,20,-1
 384 64 l 1,21,-1
 384 0 l 1,22,-1
 256 0 l 1,23,-1
 320 -32 l 1,24,-1
 320 -128 l 1,25,-1
 256 -160 l 1,26,-1
 192 -160 l 1,0,-1
EndSplineSet
EndChar

StartChar: Egrave
Encoding: 200 200 136
Width: 512
Flags: W
LayerCount: 2
Back
Fore
SplineSet
0 0 m 1,0,-1
 0 576 l 1,1,-1
 384 576 l 1,2,-1
 384 512 l 1,3,-1
 64 512 l 1,4,-1
 64 320 l 1,5,-1
 320 320 l 1,6,-1
 320 256 l 1,7,-1
 64 256 l 1,8,-1
 64 64 l 1,9,-1
 384 64 l 1,10,-1
 384 0 l 1,11,-1
 0 0 l 1,0,-1
256 640 m 1,12,-1
 64 736 l 1,13,-1
 64 768 l 1,14,-1
 128 768 l 1,15,-1
 320 672 l 1,16,-1
 320 640 l 1,17,-1
 256 640 l 1,12,-1
EndSplineSet
EndChar

StartChar: Eacute
Encoding: 201 201 137
Width: 512
Flags: W
LayerCount: 2
Back
Fore
SplineSet
0 0 m 1,0,-1
 0 576 l 1,1,-1
 384 576 l 1,2,-1
 384 512 l 1,3,-1
 64 512 l 1,4,-1
 64 320 l 1,5,-1
 320 320 l 1,6,-1
 320 256 l 1,7,-1
 64 256 l 1,8,-1
 64 64 l 1,9,-1
 384 64 l 1,10,-1
 384 0 l 1,11,-1
 0 0 l 1,0,-1
64 640 m 1,12,-1
 64 672 l 1,13,-1
 256 768 l 1,14,-1
 320 768 l 1,15,-1
 320 736 l 1,16,-1
 128 640 l 1,17,-1
 64 640 l 1,12,-1
EndSplineSet
EndChar

StartChar: Ecircumflex
Encoding: 202 202 138
Width: 512
Flags: W
LayerCount: 2
Back
Fore
SplineSet
0 0 m 1,0,-1
 0 576 l 1,1,-1
 384 576 l 1,2,-1
 384 512 l 1,3,-1
 64 512 l 1,4,-1
 64 320 l 1,5,-1
 320 320 l 1,6,-1
 320 256 l 1,7,-1
 64 256 l 1,8,-1
 64 64 l 1,9,-1
 384 64 l 1,10,-1
 384 0 l 1,11,-1
 0 0 l 1,0,-1
32 640 m 1,12,-1
 192 800 l 1,13,-1
 352 640 l 1,14,-1
 288 640 l 1,15,-1
 224 704 l 1,16,-1
 224 704 l 1,17,-1
 192 736 l 1,18,-1
 96 640 l 1,19,-1
 32 640 l 1,12,-1
EndSplineSet
EndChar

StartChar: Edieresis
Encoding: 203 203 139
Width: 512
Flags: W
LayerCount: 2
Back
Fore
SplineSet
0 0 m 1,0,-1
 0 576 l 1,1,-1
 384 576 l 1,2,-1
 384 512 l 1,3,-1
 64 512 l 1,4,-1
 64 320 l 1,5,-1
 320 320 l 1,6,-1
 320 256 l 1,7,-1
 64 256 l 1,8,-1
 64 64 l 1,9,-1
 384 64 l 1,10,-1
 384 0 l 1,11,-1
 0 0 l 1,0,-1
64 640 m 1,12,-1
 64 768 l 1,13,-1
 128 768 l 1,14,-1
 128 640 l 1,15,-1
 64 640 l 1,12,-1
256 640 m 1,16,-1
 256 768 l 1,17,-1
 320 768 l 1,18,-1
 320 640 l 1,19,-1
 256 640 l 1,16,-1
EndSplineSet
EndChar

StartChar: Igrave
Encoding: 204 204 140
Width: 320
Flags: W
LayerCount: 2
Back
Fore
SplineSet
64 0 m 1,0,-1
 64 576 l 1,1,-1
 128 576 l 1,2,-1
 128 0 l 1,3,-1
 64 0 l 1,0,-1
128 640 m 1,4,-1
 -64 736 l 1,5,-1
 -64 768 l 1,6,-1
 0 768 l 1,7,-1
 192 672 l 1,8,-1
 192 640 l 1,9,-1
 128 640 l 1,4,-1
EndSplineSet
EndChar

StartChar: Iacute
Encoding: 205 205 141
Width: 384
Flags: W
LayerCount: 2
Back
Fore
SplineSet
64 0 m 1,0,-1
 64 576 l 1,1,-1
 128 576 l 1,2,-1
 128 0 l 1,3,-1
 64 0 l 1,0,-1
0 640 m 1,4,-1
 0 672 l 1,5,-1
 192 768 l 1,6,-1
 256 768 l 1,7,-1
 256 736 l 1,8,-1
 64 640 l 1,9,-1
 0 640 l 1,4,-1
EndSplineSet
EndChar

StartChar: Icircumflex
Encoding: 206 206 142
Width: 448
Flags: W
LayerCount: 2
Back
Fore
SplineSet
128 0 m 1,0,-1
 128 576 l 1,1,-1
 192 576 l 1,2,-1
 192 0 l 1,3,-1
 128 0 l 1,0,-1
0 640 m 1,4,-1
 160 800 l 1,5,-1
 320 640 l 1,6,-1
 256 640 l 1,7,-1
 192 704 l 1,8,-1
 192 704 l 1,9,-1
 160 736 l 1,10,-1
 64 640 l 1,11,-1
 0 640 l 1,4,-1
EndSplineSet
EndChar

StartChar: Idieresis
Encoding: 207 207 143
Width: 448
Flags: W
LayerCount: 2
Back
Fore
SplineSet
128 0 m 1,0,-1
 128 576 l 1,1,-1
 192 576 l 1,2,-1
 192 0 l 1,3,-1
 128 0 l 1,0,-1
32 640 m 1,4,-1
 32 768 l 1,5,-1
 96 768 l 1,6,-1
 96 640 l 1,7,-1
 32 640 l 1,4,-1
224 640 m 1,8,-1
 224 768 l 1,9,-1
 288 768 l 1,10,-1
 288 640 l 1,11,-1
 224 640 l 1,8,-1
EndSplineSet
EndChar

StartChar: Eth
Encoding: 208 208 144
Width: 640
Flags: W
LayerCount: 2
Back
Fore
SplineSet
320 64 m 1,0,-1
 384 96 l 1,1,-1
 416 128 l 1,2,-1
 448 192 l 1,3,-1
 448 384 l 1,4,-1
 416 448 l 1,5,-1
 384 480 l 1,6,-1
 320 512 l 1,7,-1
 128 512 l 1,8,-1
 128 320 l 1,9,-1
 256 320 l 1,10,-1
 256 256 l 1,11,-1
 128 256 l 1,12,-1
 128 64 l 1,13,-1
 320 64 l 1,0,-1
64 0 m 1,14,-1
 64 256 l 1,15,-1
 0 256 l 1,16,-1
 0 320 l 1,17,-1
 64 320 l 1,18,-1
 64 576 l 1,19,-1
 320 576 l 1,20,-1
 448 512 l 1,21,-1
 512 384 l 1,22,-1
 512 192 l 1,23,-1
 448 64 l 1,24,-1
 320 0 l 1,25,-1
 64 0 l 1,14,-1
EndSplineSet
EndChar

StartChar: Ntilde
Encoding: 209 209 145
Width: 576
Flags: W
LayerCount: 2
Back
Fore
SplineSet
0 0 m 1,0,-1
 0 576 l 1,1,-1
 128 576 l 1,2,-1
 384 64 l 1,3,-1
 384 576 l 1,4,-1
 448 576 l 1,5,-1
 448 0 l 1,6,-1
 352 0 l 1,7,-1
 96 512 l 1,8,-1
 64 512 l 1,9,-1
 64 0 l 1,10,-1
 0 0 l 1,0,-1
64 640 m 1,11,-1
 64 704 l 1,12,-1
 96 736 l 1,13,-1
 160 768 l 1,14,-1
 288 704 l 1,15,-1
 352 736 l 1,16,-1
 384 768 l 1,17,-1
 384 704 l 1,18,-1
 352 672 l 1,19,-1
 288 640 l 1,20,-1
 160 704 l 1,21,-1
 96 672 l 1,22,-1
 64 640 l 1,23,-1
 64 640 l 1,11,-1
EndSplineSet
EndChar

StartChar: Ograve
Encoding: 210 210 146
Width: 576
Flags: W
LayerCount: 2
Back
Fore
SplineSet
256 64 m 1,0,-1
 320 96 l 1,1,-1
 352 128 l 1,2,-1
 384 192 l 1,3,-1
 384 384 l 1,4,-1
 352 448 l 1,5,-1
 320 480 l 1,6,-1
 256 512 l 1,7,-1
 192 512 l 1,8,-1
 128 480 l 1,9,-1
 96 448 l 1,10,-1
 64 384 l 1,11,-1
 64 192 l 1,12,-1
 96 128 l 1,13,-1
 128 96 l 1,14,-1
 192 64 l 1,15,-1
 256 64 l 1,0,-1
192 0 m 1,16,-1
 64 64 l 1,17,-1
 0 192 l 1,18,-1
 0 384 l 1,19,-1
 64 512 l 1,20,-1
 192 576 l 1,21,-1
 256 576 l 1,22,-1
 384 512 l 1,23,-1
 448 384 l 1,24,-1
 448 192 l 1,25,-1
 384 64 l 1,26,-1
 256 0 l 1,27,-1
 192 0 l 1,16,-1
256 640 m 1,28,-1
 64 736 l 1,29,-1
 64 768 l 1,30,-1
 128 768 l 1,31,-1
 320 672 l 1,32,-1
 320 640 l 1,33,-1
 256 640 l 1,28,-1
EndSplineSet
EndChar

StartChar: Oacute
Encoding: 211 211 147
Width: 576
Flags: W
LayerCount: 2
Back
Fore
SplineSet
256 64 m 1,0,-1
 320 96 l 1,1,-1
 352 128 l 1,2,-1
 384 192 l 1,3,-1
 384 384 l 1,4,-1
 352 448 l 1,5,-1
 320 480 l 1,6,-1
 256 512 l 1,7,-1
 192 512 l 1,8,-1
 128 480 l 1,9,-1
 96 448 l 1,10,-1
 64 384 l 1,11,-1
 64 192 l 1,12,-1
 96 128 l 1,13,-1
 128 96 l 1,14,-1
 192 64 l 1,15,-1
 256 64 l 1,0,-1
192 0 m 1,16,-1
 64 64 l 1,17,-1
 0 192 l 1,18,-1
 0 384 l 1,19,-1
 64 512 l 1,20,-1
 192 576 l 1,21,-1
 256 576 l 1,22,-1
 384 512 l 1,23,-1
 448 384 l 1,24,-1
 448 192 l 1,25,-1
 384 64 l 1,26,-1
 256 0 l 1,27,-1
 192 0 l 1,16,-1
128 640 m 1,28,-1
 128 672 l 1,29,-1
 320 768 l 1,30,-1
 384 768 l 1,31,-1
 384 736 l 1,32,-1
 192 640 l 1,33,-1
 128 640 l 1,28,-1
EndSplineSet
EndChar

StartChar: Ocircumflex
Encoding: 212 212 148
Width: 576
Flags: W
LayerCount: 2
Back
Fore
SplineSet
256 64 m 1,0,-1
 320 96 l 1,1,-1
 352 128 l 1,2,-1
 384 192 l 1,3,-1
 384 384 l 1,4,-1
 352 448 l 1,5,-1
 320 480 l 1,6,-1
 256 512 l 1,7,-1
 192 512 l 1,8,-1
 128 480 l 1,9,-1
 96 448 l 1,10,-1
 64 384 l 1,11,-1
 64 192 l 1,12,-1
 96 128 l 1,13,-1
 128 96 l 1,14,-1
 192 64 l 1,15,-1
 256 64 l 1,0,-1
192 0 m 1,16,-1
 64 64 l 1,17,-1
 0 192 l 1,18,-1
 0 384 l 1,19,-1
 64 512 l 1,20,-1
 192 576 l 1,21,-1
 256 576 l 1,22,-1
 384 512 l 1,23,-1
 448 384 l 1,24,-1
 448 192 l 1,25,-1
 384 64 l 1,26,-1
 256 0 l 1,27,-1
 192 0 l 1,16,-1
64 640 m 1,28,-1
 224 800 l 1,29,-1
 384 640 l 1,30,-1
 320 640 l 1,31,-1
 256 704 l 1,32,-1
 256 704 l 1,33,-1
 224 736 l 1,34,-1
 128 640 l 1,35,-1
 64 640 l 1,28,-1
EndSplineSet
EndChar

StartChar: Otilde
Encoding: 213 213 149
Width: 576
Flags: W
LayerCount: 2
Back
Fore
SplineSet
256 64 m 1,0,-1
 320 96 l 1,1,-1
 352 128 l 1,2,-1
 384 192 l 1,3,-1
 384 384 l 1,4,-1
 352 448 l 1,5,-1
 320 480 l 1,6,-1
 256 512 l 1,7,-1
 192 512 l 1,8,-1
 128 480 l 1,9,-1
 96 448 l 1,10,-1
 64 384 l 1,11,-1
 64 192 l 1,12,-1
 96 128 l 1,13,-1
 128 96 l 1,14,-1
 192 64 l 1,15,-1
 256 64 l 1,0,-1
192 0 m 1,16,-1
 64 64 l 1,17,-1
 0 192 l 1,18,-1
 0 384 l 1,19,-1
 64 512 l 1,20,-1
 192 576 l 1,21,-1
 256 576 l 1,22,-1
 384 512 l 1,23,-1
 448 384 l 1,24,-1
 448 192 l 1,25,-1
 384 64 l 1,26,-1
 256 0 l 1,27,-1
 192 0 l 1,16,-1
64 640 m 1,28,-1
 64 704 l 1,29,-1
 96 736 l 1,30,-1
 160 768 l 1,31,-1
 288 704 l 1,32,-1
 352 736 l 1,33,-1
 384 768 l 1,34,-1
 384 704 l 1,35,-1
 352 672 l 1,36,-1
 288 640 l 1,37,-1
 160 704 l 1,38,-1
 96 672 l 1,39,-1
 64 640 l 1,40,-1
 64 640 l 1,28,-1
EndSplineSet
EndChar

StartChar: Odieresis
Encoding: 214 214 150
Width: 576
Flags: W
LayerCount: 2
Back
Fore
SplineSet
256 64 m 1,0,-1
 320 96 l 1,1,-1
 352 128 l 1,2,-1
 384 192 l 1,3,-1
 384 384 l 1,4,-1
 352 448 l 1,5,-1
 320 480 l 1,6,-1
 256 512 l 1,7,-1
 192 512 l 1,8,-1
 128 480 l 1,9,-1
 96 448 l 1,10,-1
 64 384 l 1,11,-1
 64 192 l 1,12,-1
 96 128 l 1,13,-1
 128 96 l 1,14,-1
 192 64 l 1,15,-1
 256 64 l 1,0,-1
192 0 m 1,16,-1
 64 64 l 1,17,-1
 0 192 l 1,18,-1
 0 384 l 1,19,-1
 64 512 l 1,20,-1
 192 576 l 1,21,-1
 256 576 l 1,22,-1
 384 512 l 1,23,-1
 448 384 l 1,24,-1
 448 192 l 1,25,-1
 384 64 l 1,26,-1
 256 0 l 1,27,-1
 192 0 l 1,16,-1
96 640 m 1,28,-1
 96 768 l 1,29,-1
 160 768 l 1,30,-1
 160 640 l 1,31,-1
 96 640 l 1,28,-1
288 640 m 1,32,-1
 288 768 l 1,33,-1
 352 768 l 1,34,-1
 352 640 l 1,35,-1
 288 640 l 1,32,-1
EndSplineSet
EndChar

StartChar: multiply
Encoding: 215 215 151
Width: 512
Flags: W
LayerCount: 2
Back
Fore
SplineSet
0 96 m 1,0,-1
 0 160 l 1,1,-1
 144 304 l 1,2,-1
 0 448 l 1,3,-1
 0 512 l 1,4,-1
 32 512 l 1,5,-1
 192 352 l 1,6,-1
 352 512 l 1,7,-1
 384 512 l 1,8,-1
 384 448 l 1,9,-1
 240 304 l 1,10,-1
 384 160 l 1,11,-1
 384 96 l 1,12,-1
 352 96 l 1,13,-1
 192 256 l 1,14,-1
 32 96 l 1,15,-1
 0 96 l 1,0,-1
EndSplineSet
EndChar

StartChar: Oslash
Encoding: 216 216 152
Width: 576
Flags: W
LayerCount: 2
Back
Fore
SplineSet
256 64 m 1,0,-1
 320 96 l 1,1,-1
 352 128 l 1,2,-1
 384 192 l 1,3,-1
 384 384 l 1,4,-1
 106 106 l 1,5,-1
 192 64 l 1,6,-1
 256 64 l 1,0,-1
74 170 m 1,7,-1
 352 448 l 1,8,-1
 320 480 l 1,9,-1
 256 512 l 1,10,-1
 192 512 l 1,11,-1
 128 480 l 1,12,-1
 96 448 l 1,13,-1
 64 384 l 1,14,-1
 64 192 l 1,15,-1
 74 170 l 1,16,-1
 74 170 l 1,7,-1
192 0 m 1,17,-1
 64 64 l 1,18,-1
 32 32 l 1,19,-1
 0 32 l 1,20,-1
 0 96 l 1,21,-1
 32 128 l 1,22,-1
 0 192 l 1,23,-1
 0 384 l 1,24,-1
 64 512 l 1,25,-1
 192 576 l 1,26,-1
 256 576 l 1,27,-1
 384 512 l 1,28,-1
 394 490 l 1,29,-1
 416 512 l 1,30,-1
 448 512 l 1,31,-1
 448 448 l 1,32,-1
 426 426 l 1,33,-1
 448 384 l 1,34,-1
 448 192 l 1,35,-1
 384 64 l 1,36,-1
 256 0 l 1,37,-1
 192 0 l 1,17,-1
EndSplineSet
EndChar

StartChar: Ugrave
Encoding: 217 217 153
Width: 576
Flags: W
LayerCount: 2
Back
Fore
SplineSet
192 0 m 1,0,-1
 64 64 l 1,1,-1
 0 192 l 1,2,-1
 0 576 l 1,3,-1
 64 576 l 1,4,-1
 64 192 l 1,5,-1
 96 128 l 1,6,-1
 128 96 l 1,7,-1
 192 64 l 1,8,-1
 256 64 l 1,9,-1
 320 96 l 1,10,-1
 352 128 l 1,11,-1
 384 192 l 1,12,-1
 384 576 l 1,13,-1
 448 576 l 1,14,-1
 448 192 l 1,15,-1
 384 64 l 1,16,-1
 256 0 l 1,17,-1
 192 0 l 1,0,-1
256 640 m 1,18,-1
 64 736 l 1,19,-1
 64 768 l 1,20,-1
 128 768 l 1,21,-1
 320 672 l 1,22,-1
 320 640 l 1,23,-1
 256 640 l 1,18,-1
EndSplineSet
EndChar

StartChar: Uacute
Encoding: 218 218 154
Width: 576
Flags: W
LayerCount: 2
Back
Fore
SplineSet
192 0 m 1,0,-1
 64 64 l 1,1,-1
 0 192 l 1,2,-1
 0 576 l 1,3,-1
 64 576 l 1,4,-1
 64 192 l 1,5,-1
 96 128 l 1,6,-1
 128 96 l 1,7,-1
 192 64 l 1,8,-1
 256 64 l 1,9,-1
 320 96 l 1,10,-1
 352 128 l 1,11,-1
 384 192 l 1,12,-1
 384 576 l 1,13,-1
 448 576 l 1,14,-1
 448 192 l 1,15,-1
 384 64 l 1,16,-1
 256 0 l 1,17,-1
 192 0 l 1,0,-1
128 640 m 1,18,-1
 128 672 l 1,19,-1
 320 768 l 1,20,-1
 384 768 l 1,21,-1
 384 736 l 1,22,-1
 192 640 l 1,23,-1
 128 640 l 1,18,-1
EndSplineSet
EndChar

StartChar: Ucircumflex
Encoding: 219 219 155
Width: 576
Flags: W
LayerCount: 2
Back
Fore
SplineSet
192 0 m 1,0,-1
 64 64 l 1,1,-1
 0 192 l 1,2,-1
 0 576 l 1,3,-1
 64 576 l 1,4,-1
 64 192 l 1,5,-1
 96 128 l 1,6,-1
 128 96 l 1,7,-1
 192 64 l 1,8,-1
 256 64 l 1,9,-1
 320 96 l 1,10,-1
 352 128 l 1,11,-1
 384 192 l 1,12,-1
 384 576 l 1,13,-1
 448 576 l 1,14,-1
 448 192 l 1,15,-1
 384 64 l 1,16,-1
 256 0 l 1,17,-1
 192 0 l 1,0,-1
64 640 m 1,18,-1
 224 800 l 1,19,-1
 384 640 l 1,20,-1
 320 640 l 1,21,-1
 256 704 l 1,22,-1
 256 704 l 1,23,-1
 224 736 l 1,24,-1
 128 640 l 1,25,-1
 64 640 l 1,18,-1
EndSplineSet
EndChar

StartChar: Udieresis
Encoding: 220 220 156
Width: 576
Flags: W
LayerCount: 2
Back
Fore
SplineSet
192 0 m 1,0,-1
 64 64 l 1,1,-1
 0 192 l 1,2,-1
 0 576 l 1,3,-1
 64 576 l 1,4,-1
 64 192 l 1,5,-1
 96 128 l 1,6,-1
 128 96 l 1,7,-1
 192 64 l 1,8,-1
 256 64 l 1,9,-1
 320 96 l 1,10,-1
 352 128 l 1,11,-1
 384 192 l 1,12,-1
 384 576 l 1,13,-1
 448 576 l 1,14,-1
 448 192 l 1,15,-1
 384 64 l 1,16,-1
 256 0 l 1,17,-1
 192 0 l 1,0,-1
96 640 m 1,18,-1
 96 768 l 1,19,-1
 160 768 l 1,20,-1
 160 640 l 1,21,-1
 96 640 l 1,18,-1
288 640 m 1,22,-1
 288 768 l 1,23,-1
 352 768 l 1,24,-1
 352 640 l 1,25,-1
 288 640 l 1,22,-1
EndSplineSet
EndChar

StartChar: Yacute
Encoding: 221 221 157
Width: 576
Flags: W
LayerCount: 2
Back
Fore
SplineSet
192 0 m 1,0,-1
 192 192 l 1,1,-1
 0 576 l 1,2,-1
 64 576 l 1,3,-1
 224 256 l 1,4,-1
 384 576 l 1,5,-1
 448 576 l 1,6,-1
 256 192 l 1,7,-1
 256 0 l 1,8,-1
 192 0 l 1,0,-1
128 640 m 1,9,-1
 128 672 l 1,10,-1
 320 768 l 1,11,-1
 384 768 l 1,12,-1
 384 736 l 1,13,-1
 192 640 l 1,14,-1
 128 640 l 1,9,-1
EndSplineSet
EndChar

StartChar: Thorn
Encoding: 222 222 158
Width: 512
Flags: W
LayerCount: 2
Back
Fore
SplineSet
192 192 m 1,0,-1
 256 224 l 1,1,-1
 288 256 l 1,2,-1
 320 320 l 1,3,-1
 288 384 l 1,4,-1
 256 416 l 1,5,-1
 192 448 l 1,6,-1
 64 448 l 1,7,-1
 64 192 l 1,8,-1
 192 192 l 1,0,-1
0 0 m 1,9,-1
 0 576 l 1,10,-1
 64 576 l 1,11,-1
 64 512 l 1,12,-1
 192 512 l 1,13,-1
 320 448 l 1,14,-1
 384 320 l 1,15,-1
 320 192 l 1,16,-1
 192 128 l 1,17,-1
 64 128 l 1,18,-1
 64 0 l 1,19,-1
 0 0 l 1,9,-1
EndSplineSet
EndChar

StartChar: germandbls
Encoding: 223 223 159
Width: 512
Flags: W
LayerCount: 2
Back
Fore
SplineSet
0 0 m 1,0,-1
 0 448 l 1,1,-1
 32 512 l 1,2,-1
 64 544 l 1,3,-1
 128 576 l 1,4,-1
 192 576 l 1,5,-1
 256 544 l 1,6,-1
 288 512 l 1,7,-1
 320 448 l 1,8,-1
 288 384 l 1,9,-1
 224 320 l 1,10,-1
 384 160 l 1,11,-1
 384 128 l 1,12,-1
 352 64 l 1,13,-1
 320 32 l 1,14,-1
 256 0 l 1,15,-1
 128 0 l 1,16,-1
 128 64 l 1,17,-1
 256 64 l 1,18,-1
 298 85 l 1,19,-1
 320 128 l 1,20,-1
 192 256 l 1,21,-1
 160 320 l 1,22,-1
 192 384 l 1,23,-1
 234 405 l 1,24,-1
 256 448 l 1,25,-1
 234 490 l 1,26,-1
 192 512 l 1,27,-1
 128 512 l 1,28,-1
 85 490 l 1,29,-1
 64 448 l 1,30,-1
 64 0 l 1,31,-1
 0 0 l 1,0,-1
EndSplineSet
EndChar

StartChar: agrave
Encoding: 224 224 160
Width: 512
Flags: W
LayerCount: 2
Back
Fore
SplineSet
192 64 m 1,0,-1
 320 128 l 1,1,-1
 320 192 l 1,2,-1
 128 192 l 1,3,-1
 85 170 l 1,4,-1
 64 128 l 1,5,-1
 85 85 l 1,6,-1
 128 64 l 1,7,-1
 192 64 l 1,0,-1
128 0 m 1,8,-1
 64 32 l 1,9,-1
 32 64 l 1,10,-1
 0 128 l 1,11,-1
 32 192 l 1,12,-1
 64 224 l 1,13,-1
 128 256 l 1,14,-1
 320 256 l 1,15,-1
 320 320 l 1,16,-1
 298 362 l 1,17,-1
 256 384 l 1,18,-1
 64 384 l 1,19,-1
 64 448 l 1,20,-1
 256 448 l 1,21,-1
 320 416 l 1,22,-1
 352 384 l 1,23,-1
 384 320 l 1,24,-1
 384 0 l 1,25,-1
 320 0 l 1,26,-1
 320 64 l 1,27,-1
 192 0 l 1,28,-1
 128 0 l 1,8,-1
256 512 m 1,29,-1
 64 608 l 1,30,-1
 64 640 l 1,31,-1
 128 640 l 1,32,-1
 320 544 l 1,33,-1
 320 512 l 1,34,-1
 256 512 l 1,29,-1
EndSplineSet
EndChar

StartChar: aacute
Encoding: 225 225 161
Width: 512
Flags: W
LayerCount: 2
Back
Fore
SplineSet
192 64 m 1,0,-1
 320 128 l 1,1,-1
 320 192 l 1,2,-1
 128 192 l 1,3,-1
 85 170 l 1,4,-1
 64 128 l 1,5,-1
 85 85 l 1,6,-1
 128 64 l 1,7,-1
 192 64 l 1,0,-1
128 0 m 1,8,-1
 64 32 l 1,9,-1
 32 64 l 1,10,-1
 0 128 l 1,11,-1
 32 192 l 1,12,-1
 64 224 l 1,13,-1
 128 256 l 1,14,-1
 320 256 l 1,15,-1
 320 320 l 1,16,-1
 298 362 l 1,17,-1
 256 384 l 1,18,-1
 64 384 l 1,19,-1
 64 448 l 1,20,-1
 256 448 l 1,21,-1
 320 416 l 1,22,-1
 352 384 l 1,23,-1
 384 320 l 1,24,-1
 384 0 l 1,25,-1
 320 0 l 1,26,-1
 320 64 l 1,27,-1
 192 0 l 1,28,-1
 128 0 l 1,8,-1
64 512 m 1,29,-1
 64 544 l 1,30,-1
 256 640 l 1,31,-1
 320 640 l 1,32,-1
 320 608 l 1,33,-1
 128 512 l 1,34,-1
 64 512 l 1,29,-1
EndSplineSet
EndChar

StartChar: acircumflex
Encoding: 226 226 162
Width: 512
Flags: W
LayerCount: 2
Back
Fore
SplineSet
192 64 m 1,0,-1
 320 128 l 1,1,-1
 320 192 l 1,2,-1
 128 192 l 1,3,-1
 85 170 l 1,4,-1
 64 128 l 1,5,-1
 85 85 l 1,6,-1
 128 64 l 1,7,-1
 192 64 l 1,0,-1
128 0 m 1,8,-1
 64 32 l 1,9,-1
 32 64 l 1,10,-1
 0 128 l 1,11,-1
 32 192 l 1,12,-1
 64 224 l 1,13,-1
 128 256 l 1,14,-1
 320 256 l 1,15,-1
 320 320 l 1,16,-1
 298 362 l 1,17,-1
 256 384 l 1,18,-1
 64 384 l 1,19,-1
 64 448 l 1,20,-1
 256 448 l 1,21,-1
 320 416 l 1,22,-1
 352 384 l 1,23,-1
 384 320 l 1,24,-1
 384 0 l 1,25,-1
 320 0 l 1,26,-1
 320 64 l 1,27,-1
 192 0 l 1,28,-1
 128 0 l 1,8,-1
64 512 m 1,29,-1
 224 672 l 1,30,-1
 384 512 l 1,31,-1
 320 512 l 1,32,-1
 256 576 l 1,33,-1
 256 576 l 1,34,-1
 224 608 l 1,35,-1
 128 512 l 1,36,-1
 64 512 l 1,29,-1
EndSplineSet
EndChar

StartChar: atilde
Encoding: 227 227 163
Width: 512
Flags: W
LayerCount: 2
Back
Fore
SplineSet
192 64 m 1,0,-1
 320 128 l 1,1,-1
 320 192 l 1,2,-1
 128 192 l 1,3,-1
 85 170 l 1,4,-1
 64 128 l 1,5,-1
 85 85 l 1,6,-1
 128 64 l 1,7,-1
 192 64 l 1,0,-1
128 0 m 1,8,-1
 64 32 l 1,9,-1
 32 64 l 1,10,-1
 0 128 l 1,11,-1
 32 192 l 1,12,-1
 64 224 l 1,13,-1
 128 256 l 1,14,-1
 320 256 l 1,15,-1
 320 320 l 1,16,-1
 298 362 l 1,17,-1
 256 384 l 1,18,-1
 64 384 l 1,19,-1
 64 448 l 1,20,-1
 256 448 l 1,21,-1
 320 416 l 1,22,-1
 352 384 l 1,23,-1
 384 320 l 1,24,-1
 384 0 l 1,25,-1
 320 0 l 1,26,-1
 320 64 l 1,27,-1
 192 0 l 1,28,-1
 128 0 l 1,8,-1
32 512 m 1,29,-1
 32 576 l 1,30,-1
 64 608 l 1,31,-1
 128 640 l 1,32,-1
 256 576 l 1,33,-1
 320 608 l 1,34,-1
 352 640 l 1,35,-1
 352 576 l 1,36,-1
 320 544 l 1,37,-1
 256 512 l 1,38,-1
 128 576 l 1,39,-1
 64 544 l 1,40,-1
 32 512 l 1,41,-1
 32 512 l 1,29,-1
EndSplineSet
EndChar

StartChar: adieresis
Encoding: 228 228 164
Width: 512
Flags: W
LayerCount: 2
Back
Fore
SplineSet
192 64 m 1,0,-1
 320 128 l 1,1,-1
 320 192 l 1,2,-1
 128 192 l 1,3,-1
 85 170 l 1,4,-1
 64 128 l 1,5,-1
 85 85 l 1,6,-1
 128 64 l 1,7,-1
 192 64 l 1,0,-1
128 0 m 1,8,-1
 64 32 l 1,9,-1
 32 64 l 1,10,-1
 0 128 l 1,11,-1
 32 192 l 1,12,-1
 64 224 l 1,13,-1
 128 256 l 1,14,-1
 320 256 l 1,15,-1
 320 320 l 1,16,-1
 298 362 l 1,17,-1
 256 384 l 1,18,-1
 64 384 l 1,19,-1
 64 448 l 1,20,-1
 256 448 l 1,21,-1
 320 416 l 1,22,-1
 352 384 l 1,23,-1
 384 320 l 1,24,-1
 384 0 l 1,25,-1
 320 0 l 1,26,-1
 320 64 l 1,27,-1
 192 0 l 1,28,-1
 128 0 l 1,8,-1
64 512 m 1,29,-1
 64 640 l 1,30,-1
 128 640 l 1,31,-1
 128 512 l 1,32,-1
 64 512 l 1,29,-1
256 512 m 1,33,-1
 256 640 l 1,34,-1
 320 640 l 1,35,-1
 320 512 l 1,36,-1
 256 512 l 1,33,-1
EndSplineSet
EndChar

StartChar: aring
Encoding: 229 229 165
Width: 512
Flags: W
LayerCount: 2
Back
Fore
SplineSet
192 64 m 1,0,-1
 320 128 l 1,1,-1
 320 192 l 1,2,-1
 128 192 l 1,3,-1
 85 170 l 1,4,-1
 64 128 l 1,5,-1
 85 85 l 1,6,-1
 128 64 l 1,7,-1
 192 64 l 1,0,-1
128 0 m 1,8,-1
 64 32 l 1,9,-1
 32 64 l 1,10,-1
 0 128 l 1,11,-1
 32 192 l 1,12,-1
 64 224 l 1,13,-1
 128 256 l 1,14,-1
 320 256 l 1,15,-1
 320 320 l 1,16,-1
 298 362 l 1,17,-1
 256 384 l 1,18,-1
 64 384 l 1,19,-1
 64 448 l 1,20,-1
 256 448 l 1,21,-1
 320 416 l 1,22,-1
 352 384 l 1,23,-1
 384 320 l 1,24,-1
 384 0 l 1,25,-1
 320 0 l 1,26,-1
 320 64 l 1,27,-1
 192 0 l 1,28,-1
 128 0 l 1,8,-1
192 576 m 1,29,-1
 192 640 l 1,30,-1
 128 640 l 1,31,-1
 128 576 l 1,32,-1
 192 576 l 1,29,-1
128 512 m 1,33,-1
 64 576 l 1,34,-1
 64 640 l 1,35,-1
 128 704 l 1,36,-1
 192 704 l 1,37,-1
 256 640 l 1,38,-1
 256 576 l 1,39,-1
 192 512 l 1,40,-1
 128 512 l 1,33,-1
EndSplineSet
EndChar

StartChar: ae
Encoding: 230 230 166
Width: 704
Flags: W
LayerCount: 2
Back
Fore
SplineSet
128 64 m 1,0,-1
 256 128 l 1,1,-1
 256 192 l 1,2,-1
 128 192 l 1,3,-1
 85 170 l 1,4,-1
 64 128 l 1,5,-1
 85 85 l 1,6,-1
 128 64 l 1,7,-1
 128 64 l 1,0,-1
512 256 m 1,8,-1
 512 320 l 1,9,-1
 490 362 l 1,10,-1
 448 384 l 1,11,-1
 384 352 l 1,12,-1
 352 320 l 1,13,-1
 320 256 l 1,14,-1
 512 256 l 1,8,-1
128 0 m 1,15,-1
 64 32 l 1,16,-1
 32 64 l 1,17,-1
 0 128 l 1,18,-1
 32 192 l 1,19,-1
 64 224 l 1,20,-1
 128 256 l 1,21,-1
 256 256 l 1,22,-1
 256 320 l 1,23,-1
 234 362 l 1,24,-1
 192 384 l 1,25,-1
 64 384 l 1,26,-1
 64 448 l 1,27,-1
 192 448 l 1,28,-1
 256 416 l 1,29,-1
 288 384 l 1,30,-1
 304 352 l 1,31,-1
 320 384 l 1,32,-1
 448 448 l 1,33,-1
 512 416 l 1,34,-1
 544 384 l 1,35,-1
 576 320 l 1,36,-1
 576 192 l 1,37,-1
 320 192 l 1,38,-1
 320 128 l 1,39,-1
 341 85 l 1,40,-1
 384 64 l 1,41,-1
 576 64 l 1,42,-1
 576 0 l 1,43,-1
 384 0 l 1,44,-1
 256 64 l 1,45,-1
 128 0 l 1,46,-1
 128 0 l 1,15,-1
EndSplineSet
EndChar

StartChar: ccedilla
Encoding: 231 231 167
Width: 448
Flags: W
LayerCount: 2
Back
Fore
SplineSet
128 -160 m 1,0,-1
 128 -128 l 1,1,-1
 192 -96 l 1,2,-1
 192 -64 l 1,3,-1
 128 -32 l 1,4,-1
 128 0 l 1,5,-1
 192 0 l 1,6,-1
 256 -32 l 1,7,-1
 256 -128 l 1,8,-1
 192 -160 l 1,9,-1
 128 -160 l 1,0,-1
192 0 m 1,10,-1
 64 64 l 1,11,-1
 0 192 l 1,12,-1
 0 256 l 1,13,-1
 64 384 l 1,14,-1
 192 448 l 1,15,-1
 320 448 l 1,16,-1
 320 384 l 1,17,-1
 192 384 l 1,18,-1
 128 352 l 1,19,-1
 96 320 l 1,20,-1
 64 256 l 1,21,-1
 64 192 l 1,22,-1
 96 128 l 1,23,-1
 128 96 l 1,24,-1
 192 64 l 1,25,-1
 320 64 l 1,26,-1
 320 0 l 1,27,-1
 192 0 l 1,10,-1
EndSplineSet
EndChar

StartChar: egrave
Encoding: 232 232 168
Width: 512
Flags: W
LayerCount: 2
Back
Fore
SplineSet
320 256 m 1,0,-1
 320 320 l 1,1,-1
 298 362 l 1,2,-1
 256 384 l 1,3,-1
 192 384 l 1,4,-1
 128 352 l 1,5,-1
 96 320 l 1,6,-1
 64 256 l 1,7,-1
 320 256 l 1,0,-1
128 0 m 1,8,-1
 64 32 l 1,9,-1
 32 64 l 1,10,-1
 0 128 l 1,11,-1
 0 256 l 1,12,-1
 64 384 l 1,13,-1
 192 448 l 1,14,-1
 256 448 l 1,15,-1
 320 416 l 1,16,-1
 352 384 l 1,17,-1
 384 320 l 1,18,-1
 384 192 l 1,19,-1
 64 192 l 1,20,-1
 64 128 l 1,21,-1
 85 85 l 1,22,-1
 128 64 l 1,23,-1
 384 64 l 1,24,-1
 384 0 l 1,25,-1
 128 0 l 1,8,-1
256 512 m 1,26,-1
 64 608 l 1,27,-1
 64 640 l 1,28,-1
 128 640 l 1,29,-1
 320 544 l 1,30,-1
 320 512 l 1,31,-1
 256 512 l 1,26,-1
EndSplineSet
EndChar

StartChar: eacute
Encoding: 233 233 169
Width: 512
Flags: W
LayerCount: 2
Back
Fore
SplineSet
320 256 m 1,0,-1
 320 320 l 1,1,-1
 298 362 l 1,2,-1
 256 384 l 1,3,-1
 192 384 l 1,4,-1
 128 352 l 1,5,-1
 96 320 l 1,6,-1
 64 256 l 1,7,-1
 320 256 l 1,0,-1
128 0 m 1,8,-1
 64 32 l 1,9,-1
 32 64 l 1,10,-1
 0 128 l 1,11,-1
 0 256 l 1,12,-1
 64 384 l 1,13,-1
 192 448 l 1,14,-1
 256 448 l 1,15,-1
 320 416 l 1,16,-1
 352 384 l 1,17,-1
 384 320 l 1,18,-1
 384 192 l 1,19,-1
 64 192 l 1,20,-1
 64 128 l 1,21,-1
 85 85 l 1,22,-1
 128 64 l 1,23,-1
 384 64 l 1,24,-1
 384 0 l 1,25,-1
 128 0 l 1,8,-1
64 512 m 1,26,-1
 64 544 l 1,27,-1
 256 640 l 1,28,-1
 320 640 l 1,29,-1
 320 608 l 1,30,-1
 128 512 l 1,31,-1
 64 512 l 1,26,-1
EndSplineSet
EndChar

StartChar: ecircumflex
Encoding: 234 234 170
Width: 512
Flags: W
LayerCount: 2
Back
Fore
SplineSet
320 256 m 1,0,-1
 320 320 l 1,1,-1
 298 362 l 1,2,-1
 256 384 l 1,3,-1
 192 384 l 1,4,-1
 128 352 l 1,5,-1
 96 320 l 1,6,-1
 64 256 l 1,7,-1
 320 256 l 1,0,-1
128 0 m 1,8,-1
 64 32 l 1,9,-1
 32 64 l 1,10,-1
 0 128 l 1,11,-1
 0 256 l 1,12,-1
 64 384 l 1,13,-1
 192 448 l 1,14,-1
 256 448 l 1,15,-1
 320 416 l 1,16,-1
 352 384 l 1,17,-1
 384 320 l 1,18,-1
 384 192 l 1,19,-1
 64 192 l 1,20,-1
 64 128 l 1,21,-1
 85 85 l 1,22,-1
 128 64 l 1,23,-1
 384 64 l 1,24,-1
 384 0 l 1,25,-1
 128 0 l 1,8,-1
64 512 m 1,26,-1
 224 672 l 1,27,-1
 384 512 l 1,28,-1
 320 512 l 1,29,-1
 256 576 l 1,30,-1
 256 576 l 1,31,-1
 224 608 l 1,32,-1
 128 512 l 1,33,-1
 64 512 l 1,26,-1
EndSplineSet
EndChar

StartChar: edieresis
Encoding: 235 235 171
Width: 512
Flags: W
LayerCount: 2
Back
Fore
SplineSet
320 256 m 1,0,-1
 320 320 l 1,1,-1
 298 362 l 1,2,-1
 256 384 l 1,3,-1
 192 384 l 1,4,-1
 128 352 l 1,5,-1
 96 320 l 1,6,-1
 64 256 l 1,7,-1
 320 256 l 1,0,-1
128 0 m 1,8,-1
 64 32 l 1,9,-1
 32 64 l 1,10,-1
 0 128 l 1,11,-1
 0 256 l 1,12,-1
 64 384 l 1,13,-1
 192 448 l 1,14,-1
 256 448 l 1,15,-1
 320 416 l 1,16,-1
 352 384 l 1,17,-1
 384 320 l 1,18,-1
 384 192 l 1,19,-1
 64 192 l 1,20,-1
 64 128 l 1,21,-1
 85 85 l 1,22,-1
 128 64 l 1,23,-1
 384 64 l 1,24,-1
 384 0 l 1,25,-1
 128 0 l 1,8,-1
64 512 m 1,26,-1
 64 640 l 1,27,-1
 128 640 l 1,28,-1
 128 512 l 1,29,-1
 64 512 l 1,26,-1
256 512 m 1,30,-1
 256 640 l 1,31,-1
 320 640 l 1,32,-1
 320 512 l 1,33,-1
 256 512 l 1,30,-1
EndSplineSet
EndChar

StartChar: igrave
Encoding: 236 236 172
Width: 384
Flags: W
LayerCount: 2
Back
Fore
SplineSet
128 0 m 1,0,-1
 128 448 l 1,1,-1
 192 448 l 1,2,-1
 192 0 l 1,3,-1
 128 0 l 1,0,-1
192 512 m 1,4,-1
 0 608 l 1,5,-1
 0 640 l 1,6,-1
 64 640 l 1,7,-1
 256 544 l 1,8,-1
 256 512 l 1,9,-1
 192 512 l 1,4,-1
EndSplineSet
EndChar

StartChar: iacute
Encoding: 237 237 173
Width: 384
Flags: W
LayerCount: 2
Back
Fore
SplineSet
64 0 m 1,0,-1
 64 448 l 1,1,-1
 128 448 l 1,2,-1
 128 0 l 1,3,-1
 64 0 l 1,0,-1
0 512 m 1,4,-1
 0 544 l 1,5,-1
 192 640 l 1,6,-1
 256 640 l 1,7,-1
 256 608 l 1,8,-1
 64 512 l 1,9,-1
 0 512 l 1,4,-1
EndSplineSet
EndChar

StartChar: icircumflex
Encoding: 238 238 174
Width: 448
Flags: W
LayerCount: 2
Back
Fore
SplineSet
128 0 m 1,0,-1
 128 448 l 1,1,-1
 192 448 l 1,2,-1
 192 0 l 1,3,-1
 128 0 l 1,0,-1
0 512 m 1,4,-1
 160 672 l 1,5,-1
 320 512 l 1,6,-1
 256 512 l 1,7,-1
 192 576 l 1,8,-1
 192 576 l 1,9,-1
 160 608 l 1,10,-1
 64 512 l 1,11,-1
 0 512 l 1,4,-1
EndSplineSet
EndChar

StartChar: idieresis
Encoding: 239 239 175
Width: 448
Flags: W
LayerCount: 2
Back
Fore
SplineSet
128 0 m 1,0,-1
 128 448 l 1,1,-1
 192 448 l 1,2,-1
 192 0 l 1,3,-1
 128 0 l 1,0,-1
32 512 m 1,4,-1
 32 640 l 1,5,-1
 96 640 l 1,6,-1
 96 512 l 1,7,-1
 32 512 l 1,4,-1
224 512 m 1,8,-1
 224 640 l 1,9,-1
 288 640 l 1,10,-1
 288 512 l 1,11,-1
 224 512 l 1,8,-1
EndSplineSet
EndChar

StartChar: eth
Encoding: 240 240 176
Width: 576
Flags: W
LayerCount: 2
Back
Fore
SplineSet
192 64 m 1,0,-1
 256 96 l 1,1,-1
 288 128 l 1,2,-1
 320 192 l 1,3,-1
 320 320 l 1,4,-1
 192 320 l 1,5,-1
 128 288 l 1,6,-1
 96 256 l 1,7,-1
 64 192 l 1,8,-1
 64 128 l 1,9,-1
 128 64 l 1,10,-1
 192 64 l 1,0,-1
128 0 m 1,11,-1
 64 32 l 1,12,-1
 32 64 l 1,13,-1
 0 128 l 1,14,-1
 0 192 l 1,15,-1
 64 320 l 1,16,-1
 192 384 l 1,17,-1
 320 384 l 1,18,-1
 320 448 l 1,19,-1
 192 448 l 1,20,-1
 192 512 l 1,21,-1
 320 512 l 1,22,-1
 320 576 l 1,23,-1
 384 576 l 1,24,-1
 384 512 l 1,25,-1
 448 512 l 1,26,-1
 448 448 l 1,27,-1
 384 448 l 1,28,-1
 384 192 l 1,29,-1
 320 64 l 1,30,-1
 192 0 l 1,31,-1
 128 0 l 1,11,-1
EndSplineSet
EndChar

StartChar: ntilde
Encoding: 241 241 177
Width: 512
Flags: W
LayerCount: 2
Back
Fore
SplineSet
0 0 m 1,0,-1
 0 448 l 1,1,-1
 64 448 l 1,2,-1
 64 384 l 1,3,-1
 192 448 l 1,4,-1
 256 448 l 1,5,-1
 320 416 l 1,6,-1
 352 384 l 1,7,-1
 384 320 l 1,8,-1
 384 0 l 1,9,-1
 320 0 l 1,10,-1
 320 320 l 1,11,-1
 256 384 l 1,12,-1
 192 384 l 1,13,-1
 64 320 l 1,14,-1
 64 0 l 1,15,-1
 0 0 l 1,0,-1
32 512 m 1,16,-1
 32 576 l 1,17,-1
 64 608 l 1,18,-1
 128 640 l 1,19,-1
 256 576 l 1,20,-1
 320 608 l 1,21,-1
 352 640 l 1,22,-1
 352 576 l 1,23,-1
 320 544 l 1,24,-1
 256 512 l 1,25,-1
 128 576 l 1,26,-1
 64 544 l 1,27,-1
 32 512 l 1,28,-1
 32 512 l 1,16,-1
EndSplineSet
EndChar

StartChar: ograve
Encoding: 242 242 178
Width: 576
Flags: W
LayerCount: 2
Back
Fore
SplineSet
256 64 m 1,0,-1
 320 96 l 1,1,-1
 352 128 l 1,2,-1
 384 192 l 1,3,-1
 384 256 l 1,4,-1
 352 320 l 1,5,-1
 320 352 l 1,6,-1
 256 384 l 1,7,-1
 192 384 l 1,8,-1
 128 352 l 1,9,-1
 96 320 l 1,10,-1
 64 256 l 1,11,-1
 64 192 l 1,12,-1
 96 128 l 1,13,-1
 128 96 l 1,14,-1
 192 64 l 1,15,-1
 256 64 l 1,0,-1
192 0 m 1,16,-1
 64 64 l 1,17,-1
 0 192 l 1,18,-1
 0 256 l 1,19,-1
 64 384 l 1,20,-1
 192 448 l 1,21,-1
 256 448 l 1,22,-1
 384 384 l 1,23,-1
 448 256 l 1,24,-1
 448 192 l 1,25,-1
 384 64 l 1,26,-1
 256 0 l 1,27,-1
 192 0 l 1,16,-1
288 512 m 1,28,-1
 96 608 l 1,29,-1
 96 640 l 1,30,-1
 160 640 l 1,31,-1
 352 544 l 1,32,-1
 352 512 l 1,33,-1
 288 512 l 1,28,-1
EndSplineSet
EndChar

StartChar: oacute
Encoding: 243 243 179
Width: 576
Flags: W
LayerCount: 2
Back
Fore
SplineSet
256 64 m 1,0,-1
 320 96 l 1,1,-1
 352 128 l 1,2,-1
 384 192 l 1,3,-1
 384 256 l 1,4,-1
 352 320 l 1,5,-1
 320 352 l 1,6,-1
 256 384 l 1,7,-1
 192 384 l 1,8,-1
 128 352 l 1,9,-1
 96 320 l 1,10,-1
 64 256 l 1,11,-1
 64 192 l 1,12,-1
 96 128 l 1,13,-1
 128 96 l 1,14,-1
 192 64 l 1,15,-1
 256 64 l 1,0,-1
192 0 m 1,16,-1
 64 64 l 1,17,-1
 0 192 l 1,18,-1
 0 256 l 1,19,-1
 64 384 l 1,20,-1
 192 448 l 1,21,-1
 256 448 l 1,22,-1
 384 384 l 1,23,-1
 448 256 l 1,24,-1
 448 192 l 1,25,-1
 384 64 l 1,26,-1
 256 0 l 1,27,-1
 192 0 l 1,16,-1
96 512 m 1,28,-1
 96 544 l 1,29,-1
 288 640 l 1,30,-1
 352 640 l 1,31,-1
 352 608 l 1,32,-1
 160 512 l 1,33,-1
 96 512 l 1,28,-1
EndSplineSet
EndChar

StartChar: ocircumflex
Encoding: 244 244 180
Width: 576
Flags: W
LayerCount: 2
Back
Fore
SplineSet
256 64 m 1,0,-1
 320 96 l 1,1,-1
 352 128 l 1,2,-1
 384 192 l 1,3,-1
 384 256 l 1,4,-1
 352 320 l 1,5,-1
 320 352 l 1,6,-1
 256 384 l 1,7,-1
 192 384 l 1,8,-1
 128 352 l 1,9,-1
 96 320 l 1,10,-1
 64 256 l 1,11,-1
 64 192 l 1,12,-1
 96 128 l 1,13,-1
 128 96 l 1,14,-1
 192 64 l 1,15,-1
 256 64 l 1,0,-1
192 0 m 1,16,-1
 64 64 l 1,17,-1
 0 192 l 1,18,-1
 0 256 l 1,19,-1
 64 384 l 1,20,-1
 192 448 l 1,21,-1
 256 448 l 1,22,-1
 384 384 l 1,23,-1
 448 256 l 1,24,-1
 448 192 l 1,25,-1
 384 64 l 1,26,-1
 256 0 l 1,27,-1
 192 0 l 1,16,-1
64 512 m 1,28,-1
 224 672 l 1,29,-1
 384 512 l 1,30,-1
 320 512 l 1,31,-1
 256 576 l 1,32,-1
 256 576 l 1,33,-1
 224 608 l 1,34,-1
 128 512 l 1,35,-1
 64 512 l 1,28,-1
EndSplineSet
EndChar

StartChar: otilde
Encoding: 245 245 181
Width: 576
Flags: W
LayerCount: 2
Back
Fore
SplineSet
256 64 m 1,0,-1
 320 96 l 1,1,-1
 352 128 l 1,2,-1
 384 192 l 1,3,-1
 384 256 l 1,4,-1
 352 320 l 1,5,-1
 320 352 l 1,6,-1
 256 384 l 1,7,-1
 192 384 l 1,8,-1
 128 352 l 1,9,-1
 96 320 l 1,10,-1
 64 256 l 1,11,-1
 64 192 l 1,12,-1
 96 128 l 1,13,-1
 128 96 l 1,14,-1
 192 64 l 1,15,-1
 256 64 l 1,0,-1
192 0 m 1,16,-1
 64 64 l 1,17,-1
 0 192 l 1,18,-1
 0 256 l 1,19,-1
 64 384 l 1,20,-1
 192 448 l 1,21,-1
 256 448 l 1,22,-1
 384 384 l 1,23,-1
 448 256 l 1,24,-1
 448 192 l 1,25,-1
 384 64 l 1,26,-1
 256 0 l 1,27,-1
 192 0 l 1,16,-1
64 512 m 1,28,-1
 64 576 l 1,29,-1
 96 608 l 1,30,-1
 160 640 l 1,31,-1
 288 576 l 1,32,-1
 352 608 l 1,33,-1
 384 640 l 1,34,-1
 384 576 l 1,35,-1
 352 544 l 1,36,-1
 288 512 l 1,37,-1
 160 576 l 1,38,-1
 96 544 l 1,39,-1
 64 512 l 1,40,-1
 64 512 l 1,28,-1
EndSplineSet
EndChar

StartChar: odieresis
Encoding: 246 246 182
Width: 576
Flags: W
LayerCount: 2
Back
Fore
SplineSet
256 64 m 1,0,-1
 320 96 l 1,1,-1
 352 128 l 1,2,-1
 384 192 l 1,3,-1
 384 256 l 1,4,-1
 352 320 l 1,5,-1
 320 352 l 1,6,-1
 256 384 l 1,7,-1
 192 384 l 1,8,-1
 128 352 l 1,9,-1
 96 320 l 1,10,-1
 64 256 l 1,11,-1
 64 192 l 1,12,-1
 96 128 l 1,13,-1
 128 96 l 1,14,-1
 192 64 l 1,15,-1
 256 64 l 1,0,-1
192 0 m 1,16,-1
 64 64 l 1,17,-1
 0 192 l 1,18,-1
 0 256 l 1,19,-1
 64 384 l 1,20,-1
 192 448 l 1,21,-1
 256 448 l 1,22,-1
 384 384 l 1,23,-1
 448 256 l 1,24,-1
 448 192 l 1,25,-1
 384 64 l 1,26,-1
 256 0 l 1,27,-1
 192 0 l 1,16,-1
96 512 m 1,28,-1
 96 640 l 1,29,-1
 160 640 l 1,30,-1
 160 512 l 1,31,-1
 96 512 l 1,28,-1
288 512 m 1,32,-1
 288 640 l 1,33,-1
 352 640 l 1,34,-1
 352 512 l 1,35,-1
 288 512 l 1,32,-1
EndSplineSet
EndChar

StartChar: divide
Encoding: 247 247 183
Width: 576
Flags: W
LayerCount: 2
Back
Fore
SplineSet
192 128 m 1,0,-1
 192 256 l 1,1,-1
 256 256 l 1,2,-1
 256 128 l 1,3,-1
 192 128 l 1,0,-1
0 320 m 1,4,-1
 0 384 l 1,5,-1
 448 384 l 1,6,-1
 448 320 l 1,7,-1
 0 320 l 1,4,-1
192 448 m 1,8,-1
 192 576 l 1,9,-1
 256 576 l 1,10,-1
 256 448 l 1,11,-1
 192 448 l 1,8,-1
EndSplineSet
EndChar

StartChar: oslash
Encoding: 248 248 184
Width: 576
Flags: W
LayerCount: 2
Back
Fore
SplineSet
256 64 m 1,0,-1
 320 96 l 1,1,-1
 352 128 l 1,2,-1
 384 192 l 1,3,-1
 384 256 l 1,4,-1
 352 320 l 1,5,-1
 128 96 l 1,6,-1
 192 64 l 1,7,-1
 256 64 l 1,0,-1
85 149 m 1,8,-1
 298 362 l 1,9,-1
 256 384 l 1,10,-1
 192 384 l 1,11,-1
 128 352 l 1,12,-1
 96 320 l 1,13,-1
 64 256 l 1,14,-1
 64 192 l 1,15,-1
 85 149 l 1,16,-1
 85 149 l 1,8,-1
192 0 m 1,17,-1
 64 64 l 1,18,-1
 0 192 l 1,19,-1
 0 256 l 1,20,-1
 64 384 l 1,21,-1
 192 448 l 1,22,-1
 256 448 l 1,23,-1
 384 384 l 1,24,-1
 448 256 l 1,25,-1
 448 192 l 1,26,-1
 384 64 l 1,27,-1
 256 0 l 1,28,-1
 192 0 l 1,17,-1
EndSplineSet
EndChar

StartChar: ugrave
Encoding: 249 249 185
Width: 512
Flags: W
LayerCount: 2
Back
Fore
SplineSet
128 0 m 1,0,-1
 64 32 l 1,1,-1
 32 64 l 1,2,-1
 0 128 l 1,3,-1
 0 448 l 1,4,-1
 64 448 l 1,5,-1
 64 128 l 1,6,-1
 85 85 l 1,7,-1
 128 64 l 1,8,-1
 192 64 l 1,9,-1
 320 128 l 1,10,-1
 320 448 l 1,11,-1
 384 448 l 1,12,-1
 384 0 l 1,13,-1
 320 0 l 1,14,-1
 320 64 l 1,15,-1
 192 0 l 1,16,-1
 128 0 l 1,0,-1
256 512 m 1,17,-1
 64 608 l 1,18,-1
 64 640 l 1,19,-1
 128 640 l 1,20,-1
 320 544 l 1,21,-1
 320 512 l 1,22,-1
 256 512 l 1,17,-1
EndSplineSet
EndChar

StartChar: uacute
Encoding: 250 250 186
Width: 512
Flags: W
LayerCount: 2
Back
Fore
SplineSet
128 0 m 1,0,-1
 64 32 l 1,1,-1
 32 64 l 1,2,-1
 0 128 l 1,3,-1
 0 448 l 1,4,-1
 64 448 l 1,5,-1
 64 128 l 1,6,-1
 85 85 l 1,7,-1
 128 64 l 1,8,-1
 192 64 l 1,9,-1
 320 128 l 1,10,-1
 320 448 l 1,11,-1
 384 448 l 1,12,-1
 384 0 l 1,13,-1
 320 0 l 1,14,-1
 320 64 l 1,15,-1
 192 0 l 1,16,-1
 128 0 l 1,0,-1
64 512 m 1,17,-1
 64 544 l 1,18,-1
 256 640 l 1,19,-1
 320 640 l 1,20,-1
 320 608 l 1,21,-1
 128 512 l 1,22,-1
 64 512 l 1,17,-1
EndSplineSet
EndChar

StartChar: ucircumflex
Encoding: 251 251 187
Width: 512
Flags: W
LayerCount: 2
Back
Fore
SplineSet
128 0 m 1,0,-1
 64 32 l 1,1,-1
 32 64 l 1,2,-1
 0 128 l 1,3,-1
 0 448 l 1,4,-1
 64 448 l 1,5,-1
 64 128 l 1,6,-1
 85 85 l 1,7,-1
 128 64 l 1,8,-1
 192 64 l 1,9,-1
 320 128 l 1,10,-1
 320 448 l 1,11,-1
 384 448 l 1,12,-1
 384 0 l 1,13,-1
 320 0 l 1,14,-1
 320 64 l 1,15,-1
 192 0 l 1,16,-1
 128 0 l 1,0,-1
64 512 m 1,17,-1
 224 672 l 1,18,-1
 384 512 l 1,19,-1
 320 512 l 1,20,-1
 256 576 l 1,21,-1
 256 576 l 1,22,-1
 224 608 l 1,23,-1
 128 512 l 1,24,-1
 64 512 l 1,17,-1
EndSplineSet
EndChar

StartChar: udieresis
Encoding: 252 252 188
Width: 512
Flags: W
LayerCount: 2
Back
Fore
SplineSet
128 0 m 1,0,-1
 64 32 l 1,1,-1
 32 64 l 1,2,-1
 0 128 l 1,3,-1
 0 448 l 1,4,-1
 64 448 l 1,5,-1
 64 128 l 1,6,-1
 85 85 l 1,7,-1
 128 64 l 1,8,-1
 192 64 l 1,9,-1
 320 128 l 1,10,-1
 320 448 l 1,11,-1
 384 448 l 1,12,-1
 384 0 l 1,13,-1
 320 0 l 1,14,-1
 320 64 l 1,15,-1
 192 0 l 1,16,-1
 128 0 l 1,0,-1
64 512 m 1,17,-1
 64 640 l 1,18,-1
 128 640 l 1,19,-1
 128 512 l 1,20,-1
 64 512 l 1,17,-1
256 512 m 1,21,-1
 256 640 l 1,22,-1
 320 640 l 1,23,-1
 320 512 l 1,24,-1
 256 512 l 1,21,-1
EndSplineSet
EndChar

StartChar: yacute
Encoding: 253 253 189
Width: 512
Flags: W
LayerCount: 2
Back
Fore
SplineSet
-64 -192 m 1,0,-1
 -64 -128 l 1,1,-1
 0 -128 l 1,2,-1
 64 -96 l 1,3,-1
 96 -64 l 1,4,-1
 112 0 l 1,5,-1
 0 448 l 1,6,-1
 64 448 l 1,7,-1
 160 64 l 1,8,-1
 352 448 l 1,9,-1
 384 448 l 1,10,-1
 384 384 l 1,11,-1
 128 -128 l 1,12,-1
 0 -192 l 1,13,-1
 -64 -192 l 1,0,-1
64 512 m 1,14,-1
 64 544 l 1,15,-1
 256 640 l 1,16,-1
 320 640 l 1,17,-1
 320 608 l 1,18,-1
 128 512 l 1,19,-1
 64 512 l 1,14,-1
EndSplineSet
EndChar

StartChar: thorn
Encoding: 254 254 190
Width: 512
Flags: W
LayerCount: 2
Back
Fore
SplineSet
192 64 m 1,0,-1
 256 96 l 1,1,-1
 288 128 l 1,2,-1
 320 192 l 1,3,-1
 320 320 l 1,4,-1
 298 362 l 1,5,-1
 256 384 l 1,6,-1
 192 384 l 1,7,-1
 64 320 l 1,8,-1
 64 64 l 1,9,-1
 192 64 l 1,0,-1
0 -192 m 1,10,-1
 0 576 l 1,11,-1
 64 576 l 1,12,-1
 64 384 l 1,13,-1
 192 448 l 1,14,-1
 256 448 l 1,15,-1
 320 416 l 1,16,-1
 352 384 l 1,17,-1
 384 320 l 1,18,-1
 384 192 l 1,19,-1
 320 64 l 1,20,-1
 192 0 l 1,21,-1
 64 0 l 1,22,-1
 64 -192 l 1,23,-1
 0 -192 l 1,10,-1
EndSplineSet
EndChar

StartChar: ydieresis
Encoding: 255 255 191
Width: 512
Flags: W
LayerCount: 2
Back
Fore
SplineSet
-64 -192 m 1,0,-1
 -64 -128 l 1,1,-1
 0 -128 l 1,2,-1
 64 -96 l 1,3,-1
 96 -64 l 1,4,-1
 112 0 l 1,5,-1
 0 448 l 1,6,-1
 64 448 l 1,7,-1
 160 64 l 1,8,-1
 352 448 l 1,9,-1
 384 448 l 1,10,-1
 384 384 l 1,11,-1
 128 -128 l 1,12,-1
 0 -192 l 1,13,-1
 -64 -192 l 1,0,-1
64 512 m 1,14,-1
 64 640 l 1,15,-1
 128 640 l 1,16,-1
 128 512 l 1,17,-1
 64 512 l 1,14,-1
256 512 m 1,18,-1
 256 640 l 1,19,-1
 320 640 l 1,20,-1
 320 512 l 1,21,-1
 256 512 l 1,18,-1
EndSplineSet
EndChar

StartChar: Amacron
Encoding: 256 256 192
Width: 704
Flags: W
LayerCount: 2
Back
Fore
SplineSet
384 256 m 1,0,-1
 288 448 l 1,1,-1
 192 256 l 1,2,-1
 384 256 l 1,0,-1
0 0 m 1,3,-1
 288 576 l 1,4,-1
 576 0 l 1,5,-1
 512 0 l 1,6,-1
 416 192 l 1,7,-1
 160 192 l 1,8,-1
 64 0 l 1,9,-1
 0 0 l 1,3,-1
128 640 m 1,10,-1
 128 704 l 1,11,-1
 448 704 l 1,12,-1
 448 640 l 1,13,-1
 128 640 l 1,10,-1
EndSplineSet
EndChar

StartChar: amacron
Encoding: 257 257 193
Width: 512
Flags: W
LayerCount: 2
Back
Fore
SplineSet
192 64 m 1,0,-1
 320 128 l 1,1,-1
 320 192 l 1,2,-1
 128 192 l 1,3,-1
 85 170 l 1,4,-1
 64 128 l 1,5,-1
 85 85 l 1,6,-1
 128 64 l 1,7,-1
 192 64 l 1,0,-1
128 0 m 1,8,-1
 64 32 l 1,9,-1
 32 64 l 1,10,-1
 0 128 l 1,11,-1
 32 192 l 1,12,-1
 64 224 l 1,13,-1
 128 256 l 1,14,-1
 320 256 l 1,15,-1
 320 320 l 1,16,-1
 298 362 l 1,17,-1
 256 384 l 1,18,-1
 64 384 l 1,19,-1
 64 448 l 1,20,-1
 256 448 l 1,21,-1
 320 416 l 1,22,-1
 352 384 l 1,23,-1
 384 320 l 1,24,-1
 384 0 l 1,25,-1
 320 0 l 1,26,-1
 320 64 l 1,27,-1
 192 0 l 1,28,-1
 128 0 l 1,8,-1
64 512 m 1,29,-1
 64 576 l 1,30,-1
 320 576 l 1,31,-1
 320 512 l 1,32,-1
 64 512 l 1,29,-1
EndSplineSet
EndChar

StartChar: Abreve
Encoding: 258 258 194
Width: 704
Flags: W
LayerCount: 2
Back
Fore
SplineSet
384 256 m 1,0,-1
 288 448 l 1,1,-1
 192 256 l 1,2,-1
 384 256 l 1,0,-1
0 0 m 1,3,-1
 288 576 l 1,4,-1
 576 0 l 1,5,-1
 512 0 l 1,6,-1
 416 192 l 1,7,-1
 160 192 l 1,8,-1
 64 0 l 1,9,-1
 0 0 l 1,3,-1
192 640 m 1,10,-1
 128 704 l 1,11,-1
 128 768 l 1,12,-1
 160 768 l 1,13,-1
 224 704 l 1,14,-1
 352 704 l 1,15,-1
 416 768 l 1,16,-1
 448 768 l 1,17,-1
 448 704 l 1,18,-1
 384 640 l 1,19,-1
 192 640 l 1,10,-1
EndSplineSet
EndChar

StartChar: abreve
Encoding: 259 259 195
Width: 512
Flags: W
LayerCount: 2
Back
Fore
SplineSet
192 64 m 1,0,-1
 320 128 l 1,1,-1
 320 192 l 1,2,-1
 128 192 l 1,3,-1
 85 170 l 1,4,-1
 64 128 l 1,5,-1
 85 85 l 1,6,-1
 128 64 l 1,7,-1
 192 64 l 1,0,-1
128 0 m 1,8,-1
 64 32 l 1,9,-1
 32 64 l 1,10,-1
 0 128 l 1,11,-1
 32 192 l 1,12,-1
 64 224 l 1,13,-1
 128 256 l 1,14,-1
 320 256 l 1,15,-1
 320 320 l 1,16,-1
 298 362 l 1,17,-1
 256 384 l 1,18,-1
 64 384 l 1,19,-1
 64 448 l 1,20,-1
 256 448 l 1,21,-1
 320 416 l 1,22,-1
 352 384 l 1,23,-1
 384 320 l 1,24,-1
 384 0 l 1,25,-1
 320 0 l 1,26,-1
 320 64 l 1,27,-1
 192 0 l 1,28,-1
 128 0 l 1,8,-1
128 512 m 1,29,-1
 64 576 l 1,30,-1
 64 640 l 1,31,-1
 96 640 l 1,32,-1
 160 576 l 1,33,-1
 224 576 l 1,34,-1
 288 640 l 1,35,-1
 320 640 l 1,36,-1
 320 576 l 1,37,-1
 256 512 l 1,38,-1
 128 512 l 1,29,-1
EndSplineSet
EndChar

StartChar: Aogonek
Encoding: 260 260 196
Width: 704
Flags: W
LayerCount: 2
Back
Fore
SplineSet
448 -128 m 1,0,-1
 384 -64 l 1,1,-1
 416 0 l 1,2,-1
 448 0 l 1,3,-1
 448 -64 l 1,4,-1
 512 -96 l 1,5,-1
 512 -128 l 1,6,-1
 448 -128 l 1,0,-1
384 256 m 1,7,-1
 288 448 l 1,8,-1
 192 256 l 1,9,-1
 384 256 l 1,7,-1
0 0 m 1,10,-1
 288 576 l 1,11,-1
 576 0 l 1,12,-1
 512 0 l 1,13,-1
 416 192 l 1,14,-1
 160 192 l 1,15,-1
 64 0 l 1,16,-1
 0 0 l 1,10,-1
EndSplineSet
EndChar

StartChar: aogonek
Encoding: 261 261 197
Width: 512
Flags: W
LayerCount: 2
Back
Fore
SplineSet
320 -128 m 1,0,-1
 256 -64 l 1,1,-1
 288 0 l 1,2,-1
 320 0 l 1,3,-1
 320 -64 l 1,4,-1
 384 -96 l 1,5,-1
 384 -128 l 1,6,-1
 320 -128 l 1,0,-1
192 64 m 1,7,-1
 320 128 l 1,8,-1
 320 192 l 1,9,-1
 128 192 l 1,10,-1
 85 170 l 1,11,-1
 64 128 l 1,12,-1
 85 85 l 1,13,-1
 128 64 l 1,14,-1
 192 64 l 1,7,-1
128 0 m 1,15,-1
 64 32 l 1,16,-1
 32 64 l 1,17,-1
 0 128 l 1,18,-1
 32 192 l 1,19,-1
 64 224 l 1,20,-1
 128 256 l 1,21,-1
 320 256 l 1,22,-1
 320 320 l 1,23,-1
 298 362 l 1,24,-1
 256 384 l 1,25,-1
 64 384 l 1,26,-1
 64 448 l 1,27,-1
 256 448 l 1,28,-1
 320 416 l 1,29,-1
 352 384 l 1,30,-1
 384 320 l 1,31,-1
 384 0 l 1,32,-1
 320 0 l 1,33,-1
 320 64 l 1,34,-1
 192 0 l 1,35,-1
 128 0 l 1,15,-1
EndSplineSet
EndChar

StartChar: Cacute
Encoding: 262 262 198
Width: 512
Flags: W
LayerCount: 2
Back
Fore
SplineSet
192 0 m 1,0,-1
 64 64 l 1,1,-1
 0 192 l 1,2,-1
 0 384 l 1,3,-1
 64 512 l 1,4,-1
 192 576 l 1,5,-1
 384 576 l 1,6,-1
 384 512 l 1,7,-1
 192 512 l 1,8,-1
 128 480 l 1,9,-1
 96 448 l 1,10,-1
 64 384 l 1,11,-1
 64 192 l 1,12,-1
 96 128 l 1,13,-1
 128 96 l 1,14,-1
 192 64 l 1,15,-1
 384 64 l 1,16,-1
 384 0 l 1,17,-1
 192 0 l 1,0,-1
EndSplineSet
EndChar

StartChar: cacute
Encoding: 263 263 199
Width: 448
Flags: W
LayerCount: 2
Back
Fore
SplineSet
192 0 m 1,0,-1
 64 64 l 1,1,-1
 0 192 l 1,2,-1
 0 256 l 1,3,-1
 64 384 l 1,4,-1
 192 448 l 1,5,-1
 320 448 l 1,6,-1
 320 384 l 1,7,-1
 192 384 l 1,8,-1
 128 352 l 1,9,-1
 96 320 l 1,10,-1
 64 256 l 1,11,-1
 64 192 l 1,12,-1
 96 128 l 1,13,-1
 128 96 l 1,14,-1
 192 64 l 1,15,-1
 320 64 l 1,16,-1
 320 0 l 1,17,-1
 192 0 l 1,0,-1
64 512 m 1,18,-1
 64 544 l 1,19,-1
 256 640 l 1,20,-1
 320 640 l 1,21,-1
 320 608 l 1,22,-1
 128 512 l 1,23,-1
 64 512 l 1,18,-1
EndSplineSet
EndChar

StartChar: Ccircumflex
Encoding: 264 264 200
Width: 512
Flags: W
LayerCount: 2
Back
Fore
SplineSet
192 0 m 1,0,-1
 64 64 l 1,1,-1
 0 192 l 1,2,-1
 0 384 l 1,3,-1
 64 512 l 1,4,-1
 192 576 l 1,5,-1
 384 576 l 1,6,-1
 384 512 l 1,7,-1
 192 512 l 1,8,-1
 128 480 l 1,9,-1
 96 448 l 1,10,-1
 64 384 l 1,11,-1
 64 192 l 1,12,-1
 96 128 l 1,13,-1
 128 96 l 1,14,-1
 192 64 l 1,15,-1
 384 64 l 1,16,-1
 384 0 l 1,17,-1
 192 0 l 1,0,-1
64 640 m 1,18,-1
 224 800 l 1,19,-1
 384 640 l 1,20,-1
 320 640 l 1,21,-1
 256 704 l 1,22,-1
 256 704 l 1,23,-1
 224 736 l 1,24,-1
 128 640 l 1,25,-1
 64 640 l 1,18,-1
EndSplineSet
EndChar

StartChar: ccircumflex
Encoding: 265 265 201
Width: 448
Flags: W
LayerCount: 2
Back
Fore
SplineSet
192 0 m 1,0,-1
 64 64 l 1,1,-1
 0 192 l 1,2,-1
 0 256 l 1,3,-1
 64 384 l 1,4,-1
 192 448 l 1,5,-1
 320 448 l 1,6,-1
 320 384 l 1,7,-1
 192 384 l 1,8,-1
 128 352 l 1,9,-1
 96 320 l 1,10,-1
 64 256 l 1,11,-1
 64 192 l 1,12,-1
 96 128 l 1,13,-1
 128 96 l 1,14,-1
 192 64 l 1,15,-1
 320 64 l 1,16,-1
 320 0 l 1,17,-1
 192 0 l 1,0,-1
0 512 m 1,18,-1
 160 672 l 1,19,-1
 320 512 l 1,20,-1
 256 512 l 1,21,-1
 192 576 l 1,22,-1
 192 576 l 1,23,-1
 160 608 l 1,24,-1
 64 512 l 1,25,-1
 0 512 l 1,18,-1
EndSplineSet
EndChar

StartChar: Cdotaccent
Encoding: 266 266 202
Width: 512
Flags: W
LayerCount: 2
Back
Fore
SplineSet
192 0 m 1,0,-1
 64 64 l 1,1,-1
 0 192 l 1,2,-1
 0 384 l 1,3,-1
 64 512 l 1,4,-1
 192 576 l 1,5,-1
 384 576 l 1,6,-1
 384 512 l 1,7,-1
 192 512 l 1,8,-1
 128 480 l 1,9,-1
 96 448 l 1,10,-1
 64 384 l 1,11,-1
 64 192 l 1,12,-1
 96 128 l 1,13,-1
 128 96 l 1,14,-1
 192 64 l 1,15,-1
 384 64 l 1,16,-1
 384 0 l 1,17,-1
 192 0 l 1,0,-1
192 640 m 1,18,-1
 192 768 l 1,19,-1
 256 768 l 1,20,-1
 256 640 l 1,21,-1
 192 640 l 1,18,-1
EndSplineSet
EndChar

StartChar: cdotaccent
Encoding: 267 267 203
Width: 448
Flags: W
LayerCount: 2
Back
Fore
SplineSet
192 0 m 1,0,-1
 64 64 l 1,1,-1
 0 192 l 1,2,-1
 0 256 l 1,3,-1
 64 384 l 1,4,-1
 192 448 l 1,5,-1
 320 448 l 1,6,-1
 320 384 l 1,7,-1
 192 384 l 1,8,-1
 128 352 l 1,9,-1
 96 320 l 1,10,-1
 64 256 l 1,11,-1
 64 192 l 1,12,-1
 96 128 l 1,13,-1
 128 96 l 1,14,-1
 192 64 l 1,15,-1
 320 64 l 1,16,-1
 320 0 l 1,17,-1
 192 0 l 1,0,-1
128 512 m 1,18,-1
 128 640 l 1,19,-1
 192 640 l 1,20,-1
 192 512 l 1,21,-1
 128 512 l 1,18,-1
EndSplineSet
EndChar

StartChar: Ccaron
Encoding: 268 268 204
Width: 512
Flags: W
LayerCount: 2
Back
Fore
SplineSet
192 0 m 1,0,-1
 64 64 l 1,1,-1
 0 192 l 1,2,-1
 0 384 l 1,3,-1
 64 512 l 1,4,-1
 192 576 l 1,5,-1
 384 576 l 1,6,-1
 384 512 l 1,7,-1
 192 512 l 1,8,-1
 128 480 l 1,9,-1
 96 448 l 1,10,-1
 64 384 l 1,11,-1
 64 192 l 1,12,-1
 96 128 l 1,13,-1
 128 96 l 1,14,-1
 192 64 l 1,15,-1
 384 64 l 1,16,-1
 384 0 l 1,17,-1
 192 0 l 1,0,-1
192 640 m 1,18,-1
 64 704 l 1,19,-1
 64 768 l 1,20,-1
 192 704 l 1,21,-1
 320 768 l 1,22,-1
 320 704 l 1,23,-1
 192 640 l 1,24,-1
 192 640 l 1,18,-1
EndSplineSet
EndChar

StartChar: ccaron
Encoding: 269 269 205
Width: 448
Flags: W
LayerCount: 2
Back
Fore
SplineSet
192 0 m 1,0,-1
 64 64 l 1,1,-1
 0 192 l 1,2,-1
 0 256 l 1,3,-1
 64 384 l 1,4,-1
 192 448 l 1,5,-1
 320 448 l 1,6,-1
 320 384 l 1,7,-1
 192 384 l 1,8,-1
 128 352 l 1,9,-1
 96 320 l 1,10,-1
 64 256 l 1,11,-1
 64 192 l 1,12,-1
 96 128 l 1,13,-1
 128 96 l 1,14,-1
 192 64 l 1,15,-1
 320 64 l 1,16,-1
 320 0 l 1,17,-1
 192 0 l 1,0,-1
192 512 m 1,18,-1
 64 576 l 1,19,-1
 64 640 l 1,20,-1
 192 576 l 1,21,-1
 320 640 l 1,22,-1
 320 576 l 1,23,-1
 192 512 l 1,24,-1
 192 512 l 1,18,-1
EndSplineSet
EndChar

StartChar: Dcaron
Encoding: 270 270 206
Width: 576
Flags: W
LayerCount: 2
Back
Fore
SplineSet
256 64 m 1,0,-1
 320 96 l 1,1,-1
 352 128 l 1,2,-1
 384 192 l 1,3,-1
 384 384 l 1,4,-1
 352 448 l 1,5,-1
 320 480 l 1,6,-1
 256 512 l 1,7,-1
 64 512 l 1,8,-1
 64 64 l 1,9,-1
 256 64 l 1,0,-1
0 0 m 1,10,-1
 0 576 l 1,11,-1
 256 576 l 1,12,-1
 384 512 l 1,13,-1
 448 384 l 1,14,-1
 448 192 l 1,15,-1
 384 64 l 1,16,-1
 256 0 l 1,17,-1
 0 0 l 1,10,-1
192 640 m 1,18,-1
 64 704 l 1,19,-1
 64 768 l 1,20,-1
 192 704 l 1,21,-1
 320 768 l 1,22,-1
 320 704 l 1,23,-1
 192 640 l 1,24,-1
 192 640 l 1,18,-1
EndSplineSet
EndChar

StartChar: dcaron
Encoding: 271 271 207
Width: 640
Flags: W
LayerCount: 2
Back
Fore
SplineSet
192 64 m 1,0,-1
 320 128 l 1,1,-1
 320 384 l 1,2,-1
 192 384 l 1,3,-1
 128 352 l 1,4,-1
 96 320 l 1,5,-1
 64 256 l 1,6,-1
 64 128 l 1,7,-1
 128 64 l 1,8,-1
 192 64 l 1,0,-1
128 0 m 1,9,-1
 64 32 l 1,10,-1
 32 64 l 1,11,-1
 0 128 l 1,12,-1
 0 256 l 1,13,-1
 64 384 l 1,14,-1
 192 448 l 1,15,-1
 320 448 l 1,16,-1
 320 576 l 1,17,-1
 384 576 l 1,18,-1
 384 0 l 1,19,-1
 320 0 l 1,20,-1
 320 64 l 1,21,-1
 192 0 l 1,22,-1
 128 0 l 1,9,-1
416 384 m 1,23,-1
 448 448 l 1,24,-1
 448 576 l 1,25,-1
 512 576 l 1,26,-1
 512 448 l 1,27,-1
 448 384 l 1,28,-1
 416 384 l 1,23,-1
EndSplineSet
EndChar

StartChar: Dcroat
Encoding: 272 272 208
Width: 640
Flags: W
LayerCount: 2
Back
Fore
SplineSet
320 64 m 1,0,-1
 384 96 l 1,1,-1
 416 128 l 1,2,-1
 448 192 l 1,3,-1
 448 384 l 1,4,-1
 416 448 l 1,5,-1
 384 480 l 1,6,-1
 320 512 l 1,7,-1
 128 512 l 1,8,-1
 128 320 l 1,9,-1
 256 320 l 1,10,-1
 256 256 l 1,11,-1
 128 256 l 1,12,-1
 128 64 l 1,13,-1
 320 64 l 1,0,-1
64 0 m 1,14,-1
 64 256 l 1,15,-1
 0 256 l 1,16,-1
 0 320 l 1,17,-1
 64 320 l 1,18,-1
 64 576 l 1,19,-1
 320 576 l 1,20,-1
 448 512 l 1,21,-1
 512 384 l 1,22,-1
 512 192 l 1,23,-1
 448 64 l 1,24,-1
 320 0 l 1,25,-1
 64 0 l 1,14,-1
EndSplineSet
EndChar

StartChar: dcroat
Encoding: 273 273 209
Width: 576
Flags: W
LayerCount: 2
Back
Fore
SplineSet
192 64 m 1,0,-1
 320 128 l 1,1,-1
 320 320 l 1,2,-1
 192 320 l 1,3,-1
 128 288 l 1,4,-1
 96 256 l 1,5,-1
 64 192 l 1,6,-1
 64 128 l 1,7,-1
 128 64 l 1,8,-1
 192 64 l 1,0,-1
128 0 m 1,9,-1
 64 32 l 1,10,-1
 32 64 l 1,11,-1
 0 128 l 1,12,-1
 0 192 l 1,13,-1
 64 320 l 1,14,-1
 192 384 l 1,15,-1
 320 384 l 1,16,-1
 320 448 l 1,17,-1
 192 448 l 1,18,-1
 192 512 l 1,19,-1
 320 512 l 1,20,-1
 320 576 l 1,21,-1
 384 576 l 1,22,-1
 384 512 l 1,23,-1
 448 512 l 1,24,-1
 448 448 l 1,25,-1
 384 448 l 1,26,-1
 384 0 l 1,27,-1
 320 0 l 1,28,-1
 320 64 l 1,29,-1
 192 0 l 1,30,-1
 128 0 l 1,9,-1
EndSplineSet
EndChar

StartChar: Emacron
Encoding: 274 274 210
Width: 512
Flags: W
LayerCount: 2
Back
Fore
SplineSet
0 0 m 1,0,-1
 0 576 l 1,1,-1
 384 576 l 1,2,-1
 384 512 l 1,3,-1
 64 512 l 1,4,-1
 64 320 l 1,5,-1
 320 320 l 1,6,-1
 320 256 l 1,7,-1
 64 256 l 1,8,-1
 64 64 l 1,9,-1
 384 64 l 1,10,-1
 384 0 l 1,11,-1
 0 0 l 1,0,-1
64 640 m 1,12,-1
 64 704 l 1,13,-1
 320 704 l 1,14,-1
 320 640 l 1,15,-1
 64 640 l 1,12,-1
EndSplineSet
EndChar

StartChar: emacron
Encoding: 275 275 211
Width: 512
Flags: W
LayerCount: 2
Back
Fore
SplineSet
320 256 m 1,0,-1
 320 320 l 1,1,-1
 298 362 l 1,2,-1
 256 384 l 1,3,-1
 192 384 l 1,4,-1
 128 352 l 1,5,-1
 96 320 l 1,6,-1
 64 256 l 1,7,-1
 320 256 l 1,0,-1
128 0 m 1,8,-1
 64 32 l 1,9,-1
 32 64 l 1,10,-1
 0 128 l 1,11,-1
 0 256 l 1,12,-1
 64 384 l 1,13,-1
 192 448 l 1,14,-1
 256 448 l 1,15,-1
 320 416 l 1,16,-1
 352 384 l 1,17,-1
 384 320 l 1,18,-1
 384 192 l 1,19,-1
 64 192 l 1,20,-1
 64 128 l 1,21,-1
 85 85 l 1,22,-1
 128 64 l 1,23,-1
 384 64 l 1,24,-1
 384 0 l 1,25,-1
 128 0 l 1,8,-1
64 512 m 1,26,-1
 64 576 l 1,27,-1
 320 576 l 1,28,-1
 320 512 l 1,29,-1
 64 512 l 1,26,-1
EndSplineSet
EndChar

StartChar: Ebreve
Encoding: 276 276 212
Width: 512
Flags: W
LayerCount: 2
Back
Fore
SplineSet
0 0 m 1,0,-1
 0 576 l 1,1,-1
 384 576 l 1,2,-1
 384 512 l 1,3,-1
 64 512 l 1,4,-1
 64 320 l 1,5,-1
 320 320 l 1,6,-1
 320 256 l 1,7,-1
 64 256 l 1,8,-1
 64 64 l 1,9,-1
 384 64 l 1,10,-1
 384 0 l 1,11,-1
 0 0 l 1,0,-1
128 640 m 1,12,-1
 64 704 l 1,13,-1
 64 768 l 1,14,-1
 96 768 l 1,15,-1
 160 704 l 1,16,-1
 288 704 l 1,17,-1
 352 768 l 1,18,-1
 384 768 l 1,19,-1
 384 704 l 1,20,-1
 320 640 l 1,21,-1
 128 640 l 1,12,-1
EndSplineSet
EndChar

StartChar: ebreve
Encoding: 277 277 213
Width: 512
Flags: W
LayerCount: 2
Back
Fore
SplineSet
320 256 m 1,0,-1
 320 320 l 1,1,-1
 298 362 l 1,2,-1
 256 384 l 1,3,-1
 192 384 l 1,4,-1
 128 352 l 1,5,-1
 96 320 l 1,6,-1
 64 256 l 1,7,-1
 320 256 l 1,0,-1
128 0 m 1,8,-1
 64 32 l 1,9,-1
 32 64 l 1,10,-1
 0 128 l 1,11,-1
 0 256 l 1,12,-1
 64 384 l 1,13,-1
 192 448 l 1,14,-1
 256 448 l 1,15,-1
 320 416 l 1,16,-1
 352 384 l 1,17,-1
 384 320 l 1,18,-1
 384 192 l 1,19,-1
 64 192 l 1,20,-1
 64 128 l 1,21,-1
 85 85 l 1,22,-1
 128 64 l 1,23,-1
 384 64 l 1,24,-1
 384 0 l 1,25,-1
 128 0 l 1,8,-1
128 512 m 1,26,-1
 64 576 l 1,27,-1
 64 640 l 1,28,-1
 96 640 l 1,29,-1
 160 576 l 1,30,-1
 288 576 l 1,31,-1
 352 640 l 1,32,-1
 384 640 l 1,33,-1
 384 576 l 1,34,-1
 320 512 l 1,35,-1
 128 512 l 1,26,-1
EndSplineSet
EndChar

StartChar: Edotaccent
Encoding: 278 278 214
Width: 512
Flags: W
LayerCount: 2
Back
Fore
SplineSet
0 0 m 1,0,-1
 0 576 l 1,1,-1
 384 576 l 1,2,-1
 384 512 l 1,3,-1
 64 512 l 1,4,-1
 64 320 l 1,5,-1
 320 320 l 1,6,-1
 320 256 l 1,7,-1
 64 256 l 1,8,-1
 64 64 l 1,9,-1
 384 64 l 1,10,-1
 384 0 l 1,11,-1
 0 0 l 1,0,-1
128 640 m 1,12,-1
 128 768 l 1,13,-1
 192 768 l 1,14,-1
 192 640 l 1,15,-1
 128 640 l 1,12,-1
EndSplineSet
EndChar

StartChar: edotaccent
Encoding: 279 279 215
Width: 512
Flags: W
LayerCount: 2
Back
Fore
SplineSet
320 256 m 1,0,-1
 320 320 l 1,1,-1
 298 362 l 1,2,-1
 256 384 l 1,3,-1
 192 384 l 1,4,-1
 128 352 l 1,5,-1
 96 320 l 1,6,-1
 64 256 l 1,7,-1
 320 256 l 1,0,-1
128 0 m 1,8,-1
 64 32 l 1,9,-1
 32 64 l 1,10,-1
 0 128 l 1,11,-1
 0 256 l 1,12,-1
 64 384 l 1,13,-1
 192 448 l 1,14,-1
 256 448 l 1,15,-1
 320 416 l 1,16,-1
 352 384 l 1,17,-1
 384 320 l 1,18,-1
 384 192 l 1,19,-1
 64 192 l 1,20,-1
 64 128 l 1,21,-1
 85 85 l 1,22,-1
 128 64 l 1,23,-1
 384 64 l 1,24,-1
 384 0 l 1,25,-1
 128 0 l 1,8,-1
192 512 m 1,26,-1
 192 640 l 1,27,-1
 256 640 l 1,28,-1
 256 512 l 1,29,-1
 192 512 l 1,26,-1
EndSplineSet
EndChar

StartChar: Eogonek
Encoding: 280 280 216
Width: 512
Flags: W
LayerCount: 2
Back
Fore
SplineSet
320 -128 m 1,0,-1
 256 -64 l 1,1,-1
 288 0 l 1,2,-1
 0 0 l 1,3,-1
 0 576 l 1,4,-1
 384 576 l 1,5,-1
 384 512 l 1,6,-1
 64 512 l 1,7,-1
 64 320 l 1,8,-1
 320 320 l 1,9,-1
 320 256 l 1,10,-1
 64 256 l 1,11,-1
 64 64 l 1,12,-1
 384 64 l 1,13,-1
 384 0 l 1,14,-1
 320 0 l 1,15,-1
 320 -64 l 1,16,-1
 384 -96 l 1,17,-1
 384 -128 l 1,18,-1
 320 -128 l 1,0,-1
EndSplineSet
EndChar

StartChar: eogonek
Encoding: 281 281 217
Width: 512
Flags: W
LayerCount: 2
Back
Fore
SplineSet
320 256 m 1,0,-1
 320 320 l 1,1,-1
 298 362 l 1,2,-1
 256 384 l 1,3,-1
 192 384 l 1,4,-1
 128 352 l 1,5,-1
 96 320 l 1,6,-1
 64 256 l 1,7,-1
 320 256 l 1,0,-1
320 -128 m 1,8,-1
 256 -64 l 1,9,-1
 288 0 l 1,10,-1
 128 0 l 1,11,-1
 64 32 l 1,12,-1
 32 64 l 1,13,-1
 0 128 l 1,14,-1
 0 256 l 1,15,-1
 64 384 l 1,16,-1
 192 448 l 1,17,-1
 256 448 l 1,18,-1
 320 416 l 1,19,-1
 352 384 l 1,20,-1
 384 320 l 1,21,-1
 384 192 l 1,22,-1
 64 192 l 1,23,-1
 64 128 l 1,24,-1
 85 85 l 1,25,-1
 128 64 l 1,26,-1
 384 64 l 1,27,-1
 384 0 l 1,28,-1
 320 0 l 1,29,-1
 320 -64 l 1,30,-1
 384 -96 l 1,31,-1
 384 -128 l 1,32,-1
 320 -128 l 1,8,-1
EndSplineSet
EndChar

StartChar: Ecaron
Encoding: 282 282 218
Width: 512
Flags: W
LayerCount: 2
Back
Fore
SplineSet
0 0 m 1,0,-1
 0 576 l 1,1,-1
 384 576 l 1,2,-1
 384 512 l 1,3,-1
 64 512 l 1,4,-1
 64 320 l 1,5,-1
 320 320 l 1,6,-1
 320 256 l 1,7,-1
 64 256 l 1,8,-1
 64 64 l 1,9,-1
 384 64 l 1,10,-1
 384 0 l 1,11,-1
 0 0 l 1,0,-1
192 640 m 1,12,-1
 64 704 l 1,13,-1
 64 768 l 1,14,-1
 192 704 l 1,15,-1
 320 768 l 1,16,-1
 320 704 l 1,17,-1
 192 640 l 1,18,-1
 192 640 l 1,12,-1
EndSplineSet
EndChar

StartChar: ecaron
Encoding: 283 283 219
Width: 512
Flags: W
LayerCount: 2
Back
Fore
SplineSet
320 256 m 1,0,-1
 320 320 l 1,1,-1
 298 362 l 1,2,-1
 256 384 l 1,3,-1
 192 384 l 1,4,-1
 128 352 l 1,5,-1
 96 320 l 1,6,-1
 64 256 l 1,7,-1
 320 256 l 1,0,-1
128 0 m 1,8,-1
 64 32 l 1,9,-1
 32 64 l 1,10,-1
 0 128 l 1,11,-1
 0 256 l 1,12,-1
 64 384 l 1,13,-1
 192 448 l 1,14,-1
 256 448 l 1,15,-1
 320 416 l 1,16,-1
 352 384 l 1,17,-1
 384 320 l 1,18,-1
 384 192 l 1,19,-1
 64 192 l 1,20,-1
 64 128 l 1,21,-1
 85 85 l 1,22,-1
 128 64 l 1,23,-1
 384 64 l 1,24,-1
 384 0 l 1,25,-1
 128 0 l 1,8,-1
192 512 m 1,26,-1
 64 576 l 1,27,-1
 64 640 l 1,28,-1
 192 576 l 1,29,-1
 320 640 l 1,30,-1
 320 576 l 1,31,-1
 192 512 l 1,32,-1
 192 512 l 1,26,-1
EndSplineSet
EndChar

StartChar: Gcircumflex
Encoding: 284 284 220
Width: 576
Flags: W
LayerCount: 2
Back
Fore
SplineSet
192 0 m 1,0,-1
 64 64 l 1,1,-1
 0 192 l 1,2,-1
 0 384 l 1,3,-1
 64 512 l 1,4,-1
 192 576 l 1,5,-1
 384 576 l 1,6,-1
 384 512 l 1,7,-1
 192 512 l 1,8,-1
 128 480 l 1,9,-1
 96 448 l 1,10,-1
 64 384 l 1,11,-1
 64 192 l 1,12,-1
 96 128 l 1,13,-1
 128 96 l 1,14,-1
 192 64 l 1,15,-1
 352 64 l 1,16,-1
 384 96 l 1,17,-1
 384 256 l 1,18,-1
 256 256 l 1,19,-1
 256 320 l 1,20,-1
 448 320 l 1,21,-1
 448 64 l 1,22,-1
 384 0 l 1,23,-1
 192 0 l 1,0,-1
64 640 m 1,24,-1
 224 800 l 1,25,-1
 384 640 l 1,26,-1
 320 640 l 1,27,-1
 256 704 l 1,28,-1
 256 704 l 1,29,-1
 224 736 l 1,30,-1
 128 640 l 1,31,-1
 64 640 l 1,24,-1
EndSplineSet
EndChar

StartChar: gcircumflex
Encoding: 285 285 221
Width: 512
Flags: W
LayerCount: 2
Back
Fore
SplineSet
192 64 m 1,0,-1
 320 128 l 1,1,-1
 320 384 l 1,2,-1
 192 384 l 1,3,-1
 128 352 l 1,4,-1
 96 320 l 1,5,-1
 64 256 l 1,6,-1
 64 128 l 1,7,-1
 128 64 l 1,8,-1
 192 64 l 1,0,-1
64 -192 m 1,9,-1
 64 -128 l 1,10,-1
 192 -128 l 1,11,-1
 256 -96 l 1,12,-1
 288 -64 l 1,13,-1
 320 0 l 1,14,-1
 320 64 l 1,15,-1
 192 0 l 1,16,-1
 128 0 l 1,17,-1
 64 32 l 1,18,-1
 32 64 l 1,19,-1
 0 128 l 1,20,-1
 0 256 l 1,21,-1
 64 384 l 1,22,-1
 192 448 l 1,23,-1
 384 448 l 1,24,-1
 384 0 l 1,25,-1
 320 -128 l 1,26,-1
 192 -192 l 1,27,-1
 64 -192 l 1,9,-1
64 512 m 1,28,-1
 224 672 l 1,29,-1
 384 512 l 1,30,-1
 320 512 l 1,31,-1
 256 576 l 1,32,-1
 256 576 l 1,33,-1
 224 608 l 1,34,-1
 128 512 l 1,35,-1
 64 512 l 1,28,-1
EndSplineSet
EndChar

StartChar: Gbreve
Encoding: 286 286 222
Width: 576
Flags: W
LayerCount: 2
Back
Fore
SplineSet
192 0 m 1,0,-1
 64 64 l 1,1,-1
 0 192 l 1,2,-1
 0 384 l 1,3,-1
 64 512 l 1,4,-1
 192 576 l 1,5,-1
 384 576 l 1,6,-1
 384 512 l 1,7,-1
 192 512 l 1,8,-1
 128 480 l 1,9,-1
 96 448 l 1,10,-1
 64 384 l 1,11,-1
 64 192 l 1,12,-1
 96 128 l 1,13,-1
 128 96 l 1,14,-1
 192 64 l 1,15,-1
 352 64 l 1,16,-1
 384 96 l 1,17,-1
 384 256 l 1,18,-1
 256 256 l 1,19,-1
 256 320 l 1,20,-1
 448 320 l 1,21,-1
 448 64 l 1,22,-1
 384 0 l 1,23,-1
 192 0 l 1,0,-1
128 640 m 1,24,-1
 64 704 l 1,25,-1
 64 768 l 1,26,-1
 96 768 l 1,27,-1
 160 704 l 1,28,-1
 288 704 l 1,29,-1
 352 768 l 1,30,-1
 384 768 l 1,31,-1
 384 704 l 1,32,-1
 320 640 l 1,33,-1
 128 640 l 1,24,-1
EndSplineSet
EndChar

StartChar: gbreve
Encoding: 287 287 223
Width: 512
Flags: W
LayerCount: 2
Back
Fore
SplineSet
192 64 m 1,0,-1
 320 128 l 1,1,-1
 320 384 l 1,2,-1
 192 384 l 1,3,-1
 128 352 l 1,4,-1
 96 320 l 1,5,-1
 64 256 l 1,6,-1
 64 128 l 1,7,-1
 128 64 l 1,8,-1
 192 64 l 1,0,-1
64 -192 m 1,9,-1
 64 -128 l 1,10,-1
 192 -128 l 1,11,-1
 256 -96 l 1,12,-1
 288 -64 l 1,13,-1
 320 0 l 1,14,-1
 320 64 l 1,15,-1
 192 0 l 1,16,-1
 128 0 l 1,17,-1
 64 32 l 1,18,-1
 32 64 l 1,19,-1
 0 128 l 1,20,-1
 0 256 l 1,21,-1
 64 384 l 1,22,-1
 192 448 l 1,23,-1
 384 448 l 1,24,-1
 384 0 l 1,25,-1
 320 -128 l 1,26,-1
 192 -192 l 1,27,-1
 64 -192 l 1,9,-1
128 512 m 1,28,-1
 64 576 l 1,29,-1
 64 640 l 1,30,-1
 96 640 l 1,31,-1
 160 576 l 1,32,-1
 224 576 l 1,33,-1
 288 640 l 1,34,-1
 320 640 l 1,35,-1
 320 576 l 1,36,-1
 256 512 l 1,37,-1
 128 512 l 1,28,-1
EndSplineSet
EndChar

StartChar: Gdotaccent
Encoding: 288 288 224
Width: 576
Flags: W
LayerCount: 2
Back
Fore
SplineSet
192 0 m 1,0,-1
 64 64 l 1,1,-1
 0 192 l 1,2,-1
 0 384 l 1,3,-1
 64 512 l 1,4,-1
 192 576 l 1,5,-1
 384 576 l 1,6,-1
 384 512 l 1,7,-1
 192 512 l 1,8,-1
 128 480 l 1,9,-1
 96 448 l 1,10,-1
 64 384 l 1,11,-1
 64 192 l 1,12,-1
 96 128 l 1,13,-1
 128 96 l 1,14,-1
 192 64 l 1,15,-1
 352 64 l 1,16,-1
 384 96 l 1,17,-1
 384 256 l 1,18,-1
 256 256 l 1,19,-1
 256 320 l 1,20,-1
 448 320 l 1,21,-1
 448 64 l 1,22,-1
 384 0 l 1,23,-1
 192 0 l 1,0,-1
192 640 m 1,24,-1
 192 768 l 1,25,-1
 256 768 l 1,26,-1
 256 640 l 1,27,-1
 192 640 l 1,24,-1
EndSplineSet
EndChar

StartChar: gdotaccent
Encoding: 289 289 225
Width: 512
Flags: W
LayerCount: 2
Back
Fore
SplineSet
192 64 m 1,0,-1
 320 128 l 1,1,-1
 320 384 l 1,2,-1
 192 384 l 1,3,-1
 128 352 l 1,4,-1
 96 320 l 1,5,-1
 64 256 l 1,6,-1
 64 128 l 1,7,-1
 128 64 l 1,8,-1
 192 64 l 1,0,-1
64 -192 m 1,9,-1
 64 -128 l 1,10,-1
 192 -128 l 1,11,-1
 256 -96 l 1,12,-1
 288 -64 l 1,13,-1
 320 0 l 1,14,-1
 320 64 l 1,15,-1
 192 0 l 1,16,-1
 128 0 l 1,17,-1
 64 32 l 1,18,-1
 32 64 l 1,19,-1
 0 128 l 1,20,-1
 0 256 l 1,21,-1
 64 384 l 1,22,-1
 192 448 l 1,23,-1
 384 448 l 1,24,-1
 384 0 l 1,25,-1
 320 -128 l 1,26,-1
 192 -192 l 1,27,-1
 64 -192 l 1,9,-1
192 512 m 1,28,-1
 192 640 l 1,29,-1
 256 640 l 1,30,-1
 256 512 l 1,31,-1
 192 512 l 1,28,-1
EndSplineSet
EndChar

StartChar: uni0122
Encoding: 290 290 226
Width: 576
Flags: W
LayerCount: 2
Back
Fore
SplineSet
192 -160 m 1,0,-1
 192 -128 l 1,1,-1
 256 -96 l 1,2,-1
 256 -64 l 1,3,-1
 192 -32 l 1,4,-1
 192 0 l 1,5,-1
 64 64 l 1,6,-1
 0 192 l 1,7,-1
 0 384 l 1,8,-1
 64 512 l 1,9,-1
 192 576 l 1,10,-1
 384 576 l 1,11,-1
 384 512 l 1,12,-1
 192 512 l 1,13,-1
 128 480 l 1,14,-1
 96 448 l 1,15,-1
 64 384 l 1,16,-1
 64 192 l 1,17,-1
 96 128 l 1,18,-1
 128 96 l 1,19,-1
 192 64 l 1,20,-1
 352 64 l 1,21,-1
 384 96 l 1,22,-1
 384 256 l 1,23,-1
 256 256 l 1,24,-1
 256 320 l 1,25,-1
 448 320 l 1,26,-1
 448 64 l 1,27,-1
 384 0 l 1,28,-1
 256 0 l 1,29,-1
 320 -32 l 1,30,-1
 320 -128 l 1,31,-1
 256 -160 l 1,32,-1
 192 -160 l 1,0,-1
EndSplineSet
EndChar

StartChar: uni0123
Encoding: 291 291 227
Width: 512
Flags: W
LayerCount: 2
Back
Fore
SplineSet
192 64 m 1,0,-1
 320 128 l 1,1,-1
 320 384 l 1,2,-1
 192 384 l 1,3,-1
 128 352 l 1,4,-1
 96 320 l 1,5,-1
 64 256 l 1,6,-1
 64 128 l 1,7,-1
 128 64 l 1,8,-1
 192 64 l 1,0,-1
64 -192 m 1,9,-1
 64 -128 l 1,10,-1
 192 -128 l 1,11,-1
 256 -96 l 1,12,-1
 288 -64 l 1,13,-1
 320 0 l 1,14,-1
 320 64 l 1,15,-1
 192 0 l 1,16,-1
 128 0 l 1,17,-1
 64 32 l 1,18,-1
 32 64 l 1,19,-1
 0 128 l 1,20,-1
 0 256 l 1,21,-1
 64 384 l 1,22,-1
 192 448 l 1,23,-1
 384 448 l 1,24,-1
 384 0 l 1,25,-1
 320 -128 l 1,26,-1
 192 -192 l 1,27,-1
 64 -192 l 1,9,-1
192 512 m 1,28,-1
 192 640 l 1,29,-1
 256 704 l 1,30,-1
 288 704 l 1,31,-1
 256 640 l 1,32,-1
 256 512 l 1,33,-1
 192 512 l 1,28,-1
EndSplineSet
EndChar

StartChar: Hcircumflex
Encoding: 292 292 228
Width: 512
Flags: W
LayerCount: 2
Back
Fore
SplineSet
0 0 m 1,0,-1
 0 576 l 1,1,-1
 64 576 l 1,2,-1
 64 320 l 1,3,-1
 320 320 l 1,4,-1
 320 576 l 1,5,-1
 384 576 l 1,6,-1
 384 0 l 1,7,-1
 320 0 l 1,8,-1
 320 256 l 1,9,-1
 64 256 l 1,10,-1
 64 0 l 1,11,-1
 0 0 l 1,0,-1
32 640 m 1,12,-1
 192 800 l 1,13,-1
 352 640 l 1,14,-1
 288 640 l 1,15,-1
 224 704 l 1,16,-1
 224 704 l 1,17,-1
 192 736 l 1,18,-1
 96 640 l 1,19,-1
 32 640 l 1,12,-1
EndSplineSet
EndChar

StartChar: hcircumflex
Encoding: 293 293 229
Width: 512
Flags: W
LayerCount: 2
Back
Fore
SplineSet
0 0 m 1,0,-1
 0 576 l 1,1,-1
 64 576 l 1,2,-1
 64 384 l 1,3,-1
 192 448 l 1,4,-1
 256 448 l 1,5,-1
 320 416 l 1,6,-1
 352 384 l 1,7,-1
 384 320 l 1,8,-1
 384 0 l 1,9,-1
 320 0 l 1,10,-1
 320 320 l 1,11,-1
 256 384 l 1,12,-1
 192 384 l 1,13,-1
 64 320 l 1,14,-1
 64 0 l 1,15,-1
 0 0 l 1,0,-1
64 512 m 1,16,-1
 224 672 l 1,17,-1
 384 512 l 1,18,-1
 320 512 l 1,19,-1
 256 576 l 1,20,-1
 256 576 l 1,21,-1
 224 608 l 1,22,-1
 128 512 l 1,23,-1
 64 512 l 1,16,-1
EndSplineSet
EndChar

StartChar: Hbar
Encoding: 294 294 230
Width: 640
Flags: W
LayerCount: 2
Back
Fore
SplineSet
384 320 m 1,0,-1
 384 448 l 1,1,-1
 128 448 l 1,2,-1
 128 320 l 1,3,-1
 384 320 l 1,0,-1
64 0 m 1,4,-1
 64 448 l 1,5,-1
 0 448 l 1,6,-1
 0 512 l 1,7,-1
 64 512 l 1,8,-1
 64 576 l 1,9,-1
 128 576 l 1,10,-1
 128 512 l 1,11,-1
 384 512 l 1,12,-1
 384 576 l 1,13,-1
 448 576 l 1,14,-1
 448 512 l 1,15,-1
 512 512 l 1,16,-1
 512 448 l 1,17,-1
 448 448 l 1,18,-1
 448 0 l 1,19,-1
 384 0 l 1,20,-1
 384 256 l 1,21,-1
 128 256 l 1,22,-1
 128 0 l 1,23,-1
 64 0 l 1,4,-1
EndSplineSet
EndChar

StartChar: hbar
Encoding: 295 295 231
Width: 576
Flags: W
LayerCount: 2
Back
Fore
SplineSet
64 0 m 1,0,-1
 64 448 l 1,1,-1
 0 448 l 1,2,-1
 0 512 l 1,3,-1
 64 512 l 1,4,-1
 64 576 l 1,5,-1
 128 576 l 1,6,-1
 128 512 l 1,7,-1
 320 512 l 1,8,-1
 320 448 l 1,9,-1
 128 448 l 1,10,-1
 128 320 l 1,11,-1
 256 384 l 1,12,-1
 320 384 l 1,13,-1
 384 352 l 1,14,-1
 416 320 l 1,15,-1
 448 256 l 1,16,-1
 448 0 l 1,17,-1
 384 0 l 1,18,-1
 384 256 l 1,19,-1
 320 320 l 1,20,-1
 256 320 l 1,21,-1
 128 256 l 1,22,-1
 128 0 l 1,23,-1
 64 0 l 1,0,-1
EndSplineSet
EndChar

StartChar: Itilde
Encoding: 296 296 232
Width: 320
Flags: W
LayerCount: 2
Back
Fore
SplineSet
64 0 m 1,0,-1
 64 576 l 1,1,-1
 128 576 l 1,2,-1
 128 0 l 1,3,-1
 64 0 l 1,0,-1
0 640 m 1,4,-1
 0 704 l 1,5,-1
 64 736 l 1,6,-1
 128 704 l 1,7,-1
 192 736 l 1,8,-1
 192 672 l 1,9,-1
 128 640 l 1,10,-1
 64 672 l 1,11,-1
 0 640 l 1,12,-1
 0 640 l 1,4,-1
EndSplineSet
EndChar

StartChar: itilde
Encoding: 297 297 233
Width: 320
Flags: W
LayerCount: 2
Back
Fore
SplineSet
64 0 m 1,0,-1
 64 448 l 1,1,-1
 128 448 l 1,2,-1
 128 0 l 1,3,-1
 64 0 l 1,0,-1
0 512 m 1,4,-1
 0 576 l 1,5,-1
 64 608 l 1,6,-1
 128 576 l 1,7,-1
 192 608 l 1,8,-1
 192 544 l 1,9,-1
 128 512 l 1,10,-1
 64 544 l 1,11,-1
 0 512 l 1,12,-1
 0 512 l 1,4,-1
EndSplineSet
EndChar

StartChar: Imacron
Encoding: 298 298 234
Width: 320
Flags: W
LayerCount: 2
Back
Fore
SplineSet
64 0 m 1,0,-1
 64 576 l 1,1,-1
 128 576 l 1,2,-1
 128 0 l 1,3,-1
 64 0 l 1,0,-1
0 640 m 1,4,-1
 0 704 l 1,5,-1
 192 704 l 1,6,-1
 192 640 l 1,7,-1
 0 640 l 1,4,-1
EndSplineSet
EndChar

StartChar: imacron
Encoding: 299 299 235
Width: 320
Flags: W
LayerCount: 2
Back
Fore
SplineSet
64 0 m 1,0,-1
 64 448 l 1,1,-1
 128 448 l 1,2,-1
 128 0 l 1,3,-1
 64 0 l 1,0,-1
0 512 m 1,4,-1
 0 576 l 1,5,-1
 192 576 l 1,6,-1
 192 512 l 1,7,-1
 0 512 l 1,4,-1
EndSplineSet
EndChar

StartChar: Ibreve
Encoding: 300 300 236
Width: 384
Flags: W
LayerCount: 2
Back
Fore
SplineSet
96 0 m 1,0,-1
 96 576 l 1,1,-1
 160 576 l 1,2,-1
 160 0 l 1,3,-1
 96 0 l 1,0,-1
64 640 m 1,4,-1
 0 704 l 1,5,-1
 0 768 l 1,6,-1
 32 768 l 1,7,-1
 96 704 l 1,8,-1
 160 704 l 1,9,-1
 224 768 l 1,10,-1
 256 768 l 1,11,-1
 256 704 l 1,12,-1
 192 640 l 1,13,-1
 64 640 l 1,4,-1
EndSplineSet
EndChar

StartChar: ibreve
Encoding: 301 301 237
Width: 384
Flags: W
LayerCount: 2
Back
Fore
SplineSet
96 0 m 1,0,-1
 96 448 l 1,1,-1
 160 448 l 1,2,-1
 160 0 l 1,3,-1
 96 0 l 1,0,-1
64 512 m 1,4,-1
 0 576 l 1,5,-1
 0 640 l 1,6,-1
 32 640 l 1,7,-1
 96 576 l 1,8,-1
 160 576 l 1,9,-1
 224 640 l 1,10,-1
 256 640 l 1,11,-1
 256 576 l 1,12,-1
 192 512 l 1,13,-1
 64 512 l 1,4,-1
EndSplineSet
EndChar

StartChar: Iogonek
Encoding: 302 302 238
Width: 256
Flags: W
LayerCount: 2
Back
Fore
SplineSet
64 -128 m 1,0,-1
 0 -64 l 1,1,-1
 32 0 l 1,2,-1
 64 0 l 1,3,-1
 64 -64 l 1,4,-1
 128 -96 l 1,5,-1
 128 -128 l 1,6,-1
 64 -128 l 1,0,-1
64 0 m 1,7,-1
 64 576 l 1,8,-1
 128 576 l 1,9,-1
 128 0 l 1,10,-1
 64 0 l 1,7,-1
EndSplineSet
EndChar

StartChar: iogonek
Encoding: 303 303 239
Width: 256
Flags: W
LayerCount: 2
Back
Fore
SplineSet
64 -128 m 1,0,-1
 0 -64 l 1,1,-1
 32 0 l 1,2,-1
 64 0 l 1,3,-1
 64 -64 l 1,4,-1
 128 -96 l 1,5,-1
 128 -128 l 1,6,-1
 64 -128 l 1,0,-1
64 0 m 1,7,-1
 64 448 l 1,8,-1
 128 448 l 1,9,-1
 128 0 l 1,10,-1
 64 0 l 1,7,-1
64 512 m 1,11,-1
 64 576 l 1,12,-1
 128 576 l 1,13,-1
 128 512 l 1,14,-1
 64 512 l 1,11,-1
EndSplineSet
EndChar

StartChar: Idotaccent
Encoding: 304 304 240
Width: 192
Flags: W
LayerCount: 2
Back
Fore
SplineSet
0 0 m 1,0,-1
 0 576 l 1,1,-1
 64 576 l 1,2,-1
 64 0 l 1,3,-1
 0 0 l 1,0,-1
0 640 m 1,4,-1
 0 704 l 1,5,-1
 64 704 l 1,6,-1
 64 640 l 1,7,-1
 0 640 l 1,4,-1
EndSplineSet
EndChar

StartChar: dotlessi
Encoding: 305 305 241
Width: 192
Flags: W
LayerCount: 2
Back
Fore
SplineSet
0 0 m 1,0,-1
 0 448 l 1,1,-1
 64 448 l 1,2,-1
 64 0 l 1,3,-1
 0 0 l 1,0,-1
EndSplineSet
EndChar

StartChar: IJ
Encoding: 306 306 242
Width: 512
Flags: W
LayerCount: 2
Back
Fore
SplineSet
0 0 m 1,0,-1
 0 576 l 1,1,-1
 64 576 l 1,2,-1
 64 0 l 1,3,-1
 0 0 l 1,0,-1
128 0 m 1,4,-1
 128 64 l 1,5,-1
 256 64 l 1,6,-1
 320 128 l 1,7,-1
 320 576 l 1,8,-1
 384 576 l 1,9,-1
 384 128 l 1,10,-1
 352 64 l 1,11,-1
 320 32 l 1,12,-1
 256 0 l 1,13,-1
 128 0 l 1,4,-1
EndSplineSet
EndChar

StartChar: ij
Encoding: 307 307 243
Width: 384
Flags: W
LayerCount: 2
Back
Fore
SplineSet
0 0 m 1,0,-1
 0 448 l 1,1,-1
 64 448 l 1,2,-1
 64 0 l 1,3,-1
 0 0 l 1,0,-1
64 -128 m 1,4,-1
 64 -64 l 1,5,-1
 128 -64 l 1,6,-1
 170 -42 l 1,7,-1
 192 0 l 1,8,-1
 192 448 l 1,9,-1
 256 448 l 1,10,-1
 256 0 l 1,11,-1
 224 -64 l 1,12,-1
 192 -96 l 1,13,-1
 128 -128 l 1,14,-1
 64 -128 l 1,4,-1
0 512 m 1,15,-1
 0 576 l 1,16,-1
 64 576 l 1,17,-1
 64 512 l 1,18,-1
 0 512 l 1,15,-1
192 512 m 1,19,-1
 192 576 l 1,20,-1
 256 576 l 1,21,-1
 256 512 l 1,22,-1
 192 512 l 1,19,-1
EndSplineSet
EndChar

StartChar: Jcircumflex
Encoding: 308 308 244
Width: 448
Flags: W
LayerCount: 2
Back
Fore
SplineSet
0 0 m 1,0,-1
 0 64 l 1,1,-1
 128 64 l 1,2,-1
 192 128 l 1,3,-1
 192 576 l 1,4,-1
 256 576 l 1,5,-1
 256 128 l 1,6,-1
 224 64 l 1,7,-1
 192 32 l 1,8,-1
 128 0 l 1,9,-1
 0 0 l 1,0,-1
0 640 m 1,10,-1
 160 800 l 1,11,-1
 320 640 l 1,12,-1
 256 640 l 1,13,-1
 192 704 l 1,14,-1
 192 704 l 1,15,-1
 160 736 l 1,16,-1
 64 640 l 1,17,-1
 0 640 l 1,10,-1
EndSplineSet
EndChar

StartChar: jcircumflex
Encoding: 309 309 245
Width: 448
Flags: W
LayerCount: 2
Back
Fore
SplineSet
0 -128 m 1,0,-1
 0 -64 l 1,1,-1
 64 -64 l 1,2,-1
 106 -42 l 1,3,-1
 128 0 l 1,4,-1
 128 448 l 1,5,-1
 192 448 l 1,6,-1
 192 0 l 1,7,-1
 160 -64 l 1,8,-1
 128 -96 l 1,9,-1
 64 -128 l 1,10,-1
 0 -128 l 1,0,-1
0 512 m 1,11,-1
 160 672 l 1,12,-1
 320 512 l 1,13,-1
 256 512 l 1,14,-1
 192 576 l 1,15,-1
 192 576 l 1,16,-1
 160 608 l 1,17,-1
 64 512 l 1,18,-1
 0 512 l 1,11,-1
EndSplineSet
EndChar

StartChar: uni0136
Encoding: 310 310 246
Width: 512
Flags: W
LayerCount: 2
Back
Fore
SplineSet
128 -160 m 1,0,-1
 128 -128 l 1,1,-1
 192 -96 l 1,2,-1
 192 -64 l 1,3,-1
 128 -32 l 1,4,-1
 128 0 l 1,5,-1
 192 0 l 1,6,-1
 256 -32 l 1,7,-1
 256 -128 l 1,8,-1
 192 -160 l 1,9,-1
 128 -160 l 1,0,-1
0 0 m 1,10,-1
 0 576 l 1,11,-1
 64 576 l 1,12,-1
 64 320 l 1,13,-1
 320 576 l 1,14,-1
 384 576 l 1,15,-1
 384 544 l 1,16,-1
 128 288 l 1,17,-1
 384 32 l 1,18,-1
 384 0 l 1,19,-1
 320 0 l 1,20,-1
 64 256 l 1,21,-1
 64 0 l 1,22,-1
 0 0 l 1,10,-1
EndSplineSet
EndChar

StartChar: uni0137
Encoding: 311 311 247
Width: 448
Flags: W
LayerCount: 2
Back
Fore
SplineSet
128 -160 m 1,0,-1
 128 -128 l 1,1,-1
 192 -96 l 1,2,-1
 192 -64 l 1,3,-1
 128 -32 l 1,4,-1
 128 0 l 1,5,-1
 192 0 l 1,6,-1
 256 -32 l 1,7,-1
 256 -128 l 1,8,-1
 192 -160 l 1,9,-1
 128 -160 l 1,0,-1
0 0 m 1,10,-1
 0 576 l 1,11,-1
 64 576 l 1,12,-1
 64 256 l 1,13,-1
 256 448 l 1,14,-1
 320 448 l 1,15,-1
 320 416 l 1,16,-1
 144 240 l 1,17,-1
 320 64 l 1,18,-1
 320 0 l 1,19,-1
 288 0 l 1,20,-1
 64 224 l 1,21,-1
 64 0 l 1,22,-1
 0 0 l 1,10,-1
EndSplineSet
EndChar

StartChar: kgreenlandic
Encoding: 312 312 248
Width: 448
Flags: W
LayerCount: 2
Back
Fore
SplineSet
0 0 m 1,0,-1
 0 448 l 1,1,-1
 64 448 l 1,2,-1
 64 256 l 1,3,-1
 256 448 l 1,4,-1
 320 448 l 1,5,-1
 320 416 l 1,6,-1
 144 240 l 1,7,-1
 320 64 l 1,8,-1
 320 0 l 1,9,-1
 288 0 l 1,10,-1
 64 224 l 1,11,-1
 64 0 l 1,12,-1
 0 0 l 1,0,-1
EndSplineSet
EndChar

StartChar: Lacute
Encoding: 313 313 249
Width: 512
Flags: W
LayerCount: 2
Back
Fore
SplineSet
0 0 m 1,0,-1
 0 576 l 1,1,-1
 64 576 l 1,2,-1
 64 64 l 1,3,-1
 384 64 l 1,4,-1
 384 0 l 1,5,-1
 0 0 l 1,0,-1
64 640 m 1,6,-1
 64 672 l 1,7,-1
 256 768 l 1,8,-1
 320 768 l 1,9,-1
 320 736 l 1,10,-1
 128 640 l 1,11,-1
 64 640 l 1,6,-1
EndSplineSet
EndChar

StartChar: lacute
Encoding: 314 314 250
Width: 384
Flags: W
LayerCount: 2
Back
Fore
SplineSet
64 0 m 1,0,-1
 64 576 l 1,1,-1
 128 576 l 1,2,-1
 128 0 l 1,3,-1
 64 0 l 1,0,-1
0 640 m 1,4,-1
 0 672 l 1,5,-1
 192 768 l 1,6,-1
 256 768 l 1,7,-1
 256 736 l 1,8,-1
 64 640 l 1,9,-1
 0 640 l 1,4,-1
EndSplineSet
EndChar

StartChar: uni013B
Encoding: 315 315 251
Width: 512
Flags: W
LayerCount: 2
Back
Fore
SplineSet
128 -160 m 1,0,-1
 128 -128 l 1,1,-1
 192 -96 l 1,2,-1
 192 -64 l 1,3,-1
 128 -32 l 1,4,-1
 128 0 l 1,5,-1
 0 0 l 1,6,-1
 0 576 l 1,7,-1
 64 576 l 1,8,-1
 64 64 l 1,9,-1
 384 64 l 1,10,-1
 384 0 l 1,11,-1
 192 0 l 1,12,-1
 256 -32 l 1,13,-1
 256 -128 l 1,14,-1
 192 -160 l 1,15,-1
 128 -160 l 1,0,-1
EndSplineSet
EndChar

StartChar: uni013C
Encoding: 316 316 252
Width: 256
Flags: W
LayerCount: 2
Back
Fore
SplineSet
0 -160 m 1,0,-1
 0 -128 l 1,1,-1
 64 -96 l 1,2,-1
 64 -64 l 1,3,-1
 0 -32 l 1,4,-1
 0 576 l 1,5,-1
 64 576 l 1,6,-1
 64 0 l 1,7,-1
 128 -32 l 1,8,-1
 128 -128 l 1,9,-1
 64 -160 l 1,10,-1
 0 -160 l 1,0,-1
EndSplineSet
EndChar

StartChar: Lcaron
Encoding: 317 317 253
Width: 512
Flags: W
LayerCount: 2
Back
Fore
SplineSet
0 0 m 1,0,-1
 0 576 l 1,1,-1
 64 576 l 1,2,-1
 64 64 l 1,3,-1
 384 64 l 1,4,-1
 384 0 l 1,5,-1
 0 0 l 1,0,-1
160 384 m 1,6,-1
 192 448 l 1,7,-1
 192 576 l 1,8,-1
 256 576 l 1,9,-1
 256 448 l 1,10,-1
 192 384 l 1,11,-1
 160 384 l 1,6,-1
EndSplineSet
EndChar

StartChar: lcaron
Encoding: 318 318 254
Width: 320
Flags: W
LayerCount: 2
Back
Fore
SplineSet
0 0 m 1,0,-1
 0 576 l 1,1,-1
 64 576 l 1,2,-1
 64 0 l 1,3,-1
 0 0 l 1,0,-1
96 384 m 1,4,-1
 128 448 l 1,5,-1
 128 576 l 1,6,-1
 192 576 l 1,7,-1
 192 448 l 1,8,-1
 128 384 l 1,9,-1
 96 384 l 1,4,-1
EndSplineSet
EndChar

StartChar: Ldot
Encoding: 319 319 255
Width: 512
Flags: W
LayerCount: 2
Back
Fore
SplineSet
128 256 m 1,0,-1
 128 384 l 1,1,-1
 192 384 l 1,2,-1
 192 256 l 1,3,-1
 128 256 l 1,0,-1
0 0 m 1,4,-1
 0 576 l 1,5,-1
 64 576 l 1,6,-1
 64 64 l 1,7,-1
 384 64 l 1,8,-1
 384 0 l 1,9,-1
 0 0 l 1,4,-1
EndSplineSet
EndChar

StartChar: ldot
Encoding: 320 320 256
Width: 320
Flags: W
LayerCount: 2
Back
Fore
SplineSet
128 256 m 1,0,-1
 128 384 l 1,1,-1
 192 384 l 1,2,-1
 192 256 l 1,3,-1
 128 256 l 1,0,-1
0 0 m 1,4,-1
 0 576 l 1,5,-1
 64 576 l 1,6,-1
 64 0 l 1,7,-1
 0 0 l 1,4,-1
EndSplineSet
EndChar

StartChar: Lslash
Encoding: 321 321 257
Width: 576
Flags: W
LayerCount: 2
Back
Fore
SplineSet
64 0 m 1,0,-1
 64 224 l 1,1,-1
 0 192 l 1,2,-1
 0 256 l 1,3,-1
 64 288 l 1,4,-1
 64 576 l 1,5,-1
 128 576 l 1,6,-1
 128 320 l 1,7,-1
 192 352 l 1,8,-1
 192 288 l 1,9,-1
 128 256 l 1,10,-1
 128 64 l 1,11,-1
 448 64 l 1,12,-1
 448 0 l 1,13,-1
 64 0 l 1,0,-1
EndSplineSet
EndChar

StartChar: lslash
Encoding: 322 322 258
Width: 320
Flags: W
LayerCount: 2
Back
Fore
SplineSet
64 0 m 1,0,-1
 64 224 l 1,1,-1
 0 192 l 1,2,-1
 0 256 l 1,3,-1
 64 288 l 1,4,-1
 64 576 l 1,5,-1
 128 576 l 1,6,-1
 128 320 l 1,7,-1
 192 352 l 1,8,-1
 192 288 l 1,9,-1
 128 256 l 1,10,-1
 128 0 l 1,11,-1
 64 0 l 1,0,-1
EndSplineSet
EndChar

StartChar: Nacute
Encoding: 323 323 259
Width: 576
Flags: W
LayerCount: 2
Back
Fore
SplineSet
0 0 m 1,0,-1
 0 576 l 1,1,-1
 128 576 l 1,2,-1
 384 64 l 1,3,-1
 384 576 l 1,4,-1
 448 576 l 1,5,-1
 448 0 l 1,6,-1
 352 0 l 1,7,-1
 96 512 l 1,8,-1
 64 512 l 1,9,-1
 64 0 l 1,10,-1
 0 0 l 1,0,-1
128 640 m 1,11,-1
 128 672 l 1,12,-1
 320 768 l 1,13,-1
 384 768 l 1,14,-1
 384 736 l 1,15,-1
 192 640 l 1,16,-1
 128 640 l 1,11,-1
EndSplineSet
EndChar

StartChar: nacute
Encoding: 324 324 260
Width: 512
Flags: W
LayerCount: 2
Back
Fore
SplineSet
0 0 m 1,0,-1
 0 448 l 1,1,-1
 64 448 l 1,2,-1
 64 384 l 1,3,-1
 192 448 l 1,4,-1
 256 448 l 1,5,-1
 320 416 l 1,6,-1
 352 384 l 1,7,-1
 384 320 l 1,8,-1
 384 0 l 1,9,-1
 320 0 l 1,10,-1
 320 320 l 1,11,-1
 298 362 l 1,12,-1
 256 384 l 1,13,-1
 192 384 l 1,14,-1
 64 320 l 1,15,-1
 64 0 l 1,16,-1
 0 0 l 1,0,-1
64 512 m 1,17,-1
 64 544 l 1,18,-1
 256 640 l 1,19,-1
 320 640 l 1,20,-1
 320 608 l 1,21,-1
 128 512 l 1,22,-1
 64 512 l 1,17,-1
EndSplineSet
EndChar

StartChar: uni0145
Encoding: 325 325 261
Width: 576
Flags: W
LayerCount: 2
Back
Fore
SplineSet
192 -160 m 1,0,-1
 192 -128 l 1,1,-1
 256 -96 l 1,2,-1
 256 -64 l 1,3,-1
 192 -32 l 1,4,-1
 192 0 l 1,5,-1
 256 0 l 1,6,-1
 320 -32 l 1,7,-1
 320 -128 l 1,8,-1
 256 -160 l 1,9,-1
 192 -160 l 1,0,-1
0 0 m 1,10,-1
 0 576 l 1,11,-1
 128 576 l 1,12,-1
 384 64 l 1,13,-1
 384 576 l 1,14,-1
 448 576 l 1,15,-1
 448 0 l 1,16,-1
 352 0 l 1,17,-1
 96 512 l 1,18,-1
 64 512 l 1,19,-1
 64 0 l 1,20,-1
 0 0 l 1,10,-1
EndSplineSet
EndChar

StartChar: uni0146
Encoding: 326 326 262
Width: 512
Flags: W
LayerCount: 2
Back
Fore
SplineSet
128 -160 m 1,0,-1
 128 -128 l 1,1,-1
 192 -96 l 1,2,-1
 192 -64 l 1,3,-1
 128 -32 l 1,4,-1
 128 0 l 1,5,-1
 192 0 l 1,6,-1
 256 -32 l 1,7,-1
 256 -128 l 1,8,-1
 192 -160 l 1,9,-1
 128 -160 l 1,0,-1
0 0 m 1,10,-1
 0 448 l 1,11,-1
 64 448 l 1,12,-1
 64 384 l 1,13,-1
 192 448 l 1,14,-1
 256 448 l 1,15,-1
 320 416 l 1,16,-1
 352 384 l 1,17,-1
 384 320 l 1,18,-1
 384 0 l 1,19,-1
 320 0 l 1,20,-1
 320 320 l 1,21,-1
 298 362 l 1,22,-1
 256 384 l 1,23,-1
 192 384 l 1,24,-1
 64 320 l 1,25,-1
 64 0 l 1,26,-1
 0 0 l 1,10,-1
EndSplineSet
EndChar

StartChar: Ncaron
Encoding: 327 327 263
Width: 576
Flags: W
LayerCount: 2
Back
Fore
SplineSet
0 0 m 1,0,-1
 0 576 l 1,1,-1
 128 576 l 1,2,-1
 384 64 l 1,3,-1
 384 576 l 1,4,-1
 448 576 l 1,5,-1
 448 0 l 1,6,-1
 352 0 l 1,7,-1
 96 512 l 1,8,-1
 64 512 l 1,9,-1
 64 0 l 1,10,-1
 0 0 l 1,0,-1
256 640 m 1,11,-1
 128 704 l 1,12,-1
 128 768 l 1,13,-1
 256 704 l 1,14,-1
 384 768 l 1,15,-1
 384 704 l 1,16,-1
 256 640 l 1,17,-1
 256 640 l 1,11,-1
EndSplineSet
EndChar

StartChar: ncaron
Encoding: 328 328 264
Width: 512
Flags: W
LayerCount: 2
Back
Fore
SplineSet
0 0 m 1,0,-1
 0 448 l 1,1,-1
 64 448 l 1,2,-1
 64 384 l 1,3,-1
 192 448 l 1,4,-1
 256 448 l 1,5,-1
 320 416 l 1,6,-1
 352 384 l 1,7,-1
 384 320 l 1,8,-1
 384 0 l 1,9,-1
 320 0 l 1,10,-1
 320 320 l 1,11,-1
 298 362 l 1,12,-1
 256 384 l 1,13,-1
 192 384 l 1,14,-1
 64 320 l 1,15,-1
 64 0 l 1,16,-1
 0 0 l 1,0,-1
192 512 m 1,17,-1
 64 576 l 1,18,-1
 64 640 l 1,19,-1
 192 576 l 1,20,-1
 320 640 l 1,21,-1
 320 576 l 1,22,-1
 192 512 l 1,23,-1
 192 512 l 1,17,-1
EndSplineSet
EndChar

StartChar: napostrophe
Encoding: 329 329 265
Width: 640
Flags: W
LayerCount: 2
Back
Fore
SplineSet
128 0 m 1,0,-1
 128 448 l 1,1,-1
 192 448 l 1,2,-1
 192 384 l 1,3,-1
 320 448 l 1,4,-1
 384 448 l 1,5,-1
 448 416 l 1,6,-1
 480 384 l 1,7,-1
 512 320 l 1,8,-1
 512 0 l 1,9,-1
 448 0 l 1,10,-1
 448 320 l 1,11,-1
 426 362 l 1,12,-1
 384 384 l 1,13,-1
 320 384 l 1,14,-1
 192 320 l 1,15,-1
 192 0 l 1,16,-1
 128 0 l 1,0,-1
32 448 m 1,17,-1
 64 512 l 1,18,-1
 64 640 l 1,19,-1
 128 640 l 1,20,-1
 128 512 l 1,21,-1
 64 448 l 1,22,-1
 32 448 l 1,17,-1
EndSplineSet
EndChar

StartChar: Eng
Encoding: 330 330 266
Width: 512
Flags: W
LayerCount: 2
Back
Fore
SplineSet
192 -128 m 1,0,-1
 192 -64 l 1,1,-1
 256 -64 l 1,2,-1
 298 -42 l 1,3,-1
 320 0 l 1,4,-1
 320 448 l 1,5,-1
 298 490 l 1,6,-1
 256 512 l 1,7,-1
 192 512 l 1,8,-1
 64 448 l 1,9,-1
 64 0 l 1,10,-1
 0 0 l 1,11,-1
 0 576 l 1,12,-1
 64 576 l 1,13,-1
 64 512 l 1,14,-1
 192 576 l 1,15,-1
 256 576 l 1,16,-1
 320 544 l 1,17,-1
 352 512 l 1,18,-1
 384 448 l 1,19,-1
 384 0 l 1,20,-1
 352 -64 l 1,21,-1
 320 -96 l 1,22,-1
 256 -128 l 1,23,-1
 192 -128 l 1,0,-1
EndSplineSet
EndChar

StartChar: eng
Encoding: 331 331 267
Width: 512
Flags: W
LayerCount: 2
Back
Fore
SplineSet
192 -128 m 1,0,-1
 192 -64 l 1,1,-1
 256 -64 l 1,2,-1
 298 -42 l 1,3,-1
 320 0 l 1,4,-1
 320 320 l 1,5,-1
 298 362 l 1,6,-1
 256 384 l 1,7,-1
 192 384 l 1,8,-1
 64 320 l 1,9,-1
 64 0 l 1,10,-1
 0 0 l 1,11,-1
 0 448 l 1,12,-1
 64 448 l 1,13,-1
 64 384 l 1,14,-1
 192 448 l 1,15,-1
 256 448 l 1,16,-1
 320 416 l 1,17,-1
 352 384 l 1,18,-1
 384 320 l 1,19,-1
 384 0 l 1,20,-1
 352 -64 l 1,21,-1
 320 -96 l 1,22,-1
 256 -128 l 1,23,-1
 192 -128 l 1,0,-1
EndSplineSet
EndChar

StartChar: Omacron
Encoding: 332 332 268
Width: 576
Flags: W
LayerCount: 2
Back
Fore
SplineSet
256 64 m 1,0,-1
 320 96 l 1,1,-1
 352 128 l 1,2,-1
 384 192 l 1,3,-1
 384 384 l 1,4,-1
 352 448 l 1,5,-1
 320 480 l 1,6,-1
 256 512 l 1,7,-1
 192 512 l 1,8,-1
 128 480 l 1,9,-1
 96 448 l 1,10,-1
 64 384 l 1,11,-1
 64 192 l 1,12,-1
 96 128 l 1,13,-1
 128 96 l 1,14,-1
 192 64 l 1,15,-1
 256 64 l 1,0,-1
192 0 m 1,16,-1
 64 64 l 1,17,-1
 0 192 l 1,18,-1
 0 384 l 1,19,-1
 64 512 l 1,20,-1
 192 576 l 1,21,-1
 256 576 l 1,22,-1
 384 512 l 1,23,-1
 448 384 l 1,24,-1
 448 192 l 1,25,-1
 384 64 l 1,26,-1
 256 0 l 1,27,-1
 192 0 l 1,16,-1
64 640 m 1,28,-1
 64 704 l 1,29,-1
 384 704 l 1,30,-1
 384 640 l 1,31,-1
 64 640 l 1,28,-1
EndSplineSet
EndChar

StartChar: omacron
Encoding: 333 333 269
Width: 576
Flags: W
LayerCount: 2
Back
Fore
SplineSet
256 64 m 1,0,-1
 320 96 l 1,1,-1
 352 128 l 1,2,-1
 384 192 l 1,3,-1
 384 256 l 1,4,-1
 352 320 l 1,5,-1
 320 352 l 1,6,-1
 256 384 l 1,7,-1
 192 384 l 1,8,-1
 128 352 l 1,9,-1
 96 320 l 1,10,-1
 64 256 l 1,11,-1
 64 192 l 1,12,-1
 96 128 l 1,13,-1
 128 96 l 1,14,-1
 192 64 l 1,15,-1
 256 64 l 1,0,-1
192 0 m 1,16,-1
 64 64 l 1,17,-1
 0 192 l 1,18,-1
 0 256 l 1,19,-1
 64 384 l 1,20,-1
 192 448 l 1,21,-1
 256 448 l 1,22,-1
 384 384 l 1,23,-1
 448 256 l 1,24,-1
 448 192 l 1,25,-1
 384 64 l 1,26,-1
 256 0 l 1,27,-1
 192 0 l 1,16,-1
64 512 m 1,28,-1
 64 576 l 1,29,-1
 384 576 l 1,30,-1
 384 512 l 1,31,-1
 64 512 l 1,28,-1
EndSplineSet
EndChar

StartChar: Obreve
Encoding: 334 334 270
Width: 576
Flags: W
LayerCount: 2
Back
Fore
SplineSet
256 64 m 1,0,-1
 320 96 l 1,1,-1
 352 128 l 1,2,-1
 384 192 l 1,3,-1
 384 384 l 1,4,-1
 352 448 l 1,5,-1
 320 480 l 1,6,-1
 256 512 l 1,7,-1
 192 512 l 1,8,-1
 128 480 l 1,9,-1
 96 448 l 1,10,-1
 64 384 l 1,11,-1
 64 192 l 1,12,-1
 96 128 l 1,13,-1
 128 96 l 1,14,-1
 192 64 l 1,15,-1
 256 64 l 1,0,-1
192 0 m 1,16,-1
 64 64 l 1,17,-1
 0 192 l 1,18,-1
 0 384 l 1,19,-1
 64 512 l 1,20,-1
 192 576 l 1,21,-1
 256 576 l 1,22,-1
 384 512 l 1,23,-1
 448 384 l 1,24,-1
 448 192 l 1,25,-1
 384 64 l 1,26,-1
 256 0 l 1,27,-1
 192 0 l 1,16,-1
128 640 m 1,28,-1
 64 704 l 1,29,-1
 64 768 l 1,30,-1
 96 768 l 1,31,-1
 160 704 l 1,32,-1
 288 704 l 1,33,-1
 352 768 l 1,34,-1
 384 768 l 1,35,-1
 384 704 l 1,36,-1
 320 640 l 1,37,-1
 128 640 l 1,28,-1
EndSplineSet
EndChar

StartChar: obreve
Encoding: 335 335 271
Width: 576
Flags: W
LayerCount: 2
Back
Fore
SplineSet
256 64 m 1,0,-1
 320 96 l 1,1,-1
 352 128 l 1,2,-1
 384 192 l 1,3,-1
 384 256 l 1,4,-1
 352 320 l 1,5,-1
 320 352 l 1,6,-1
 256 384 l 1,7,-1
 192 384 l 1,8,-1
 128 352 l 1,9,-1
 96 320 l 1,10,-1
 64 256 l 1,11,-1
 64 192 l 1,12,-1
 96 128 l 1,13,-1
 128 96 l 1,14,-1
 192 64 l 1,15,-1
 256 64 l 1,0,-1
192 0 m 1,16,-1
 64 64 l 1,17,-1
 0 192 l 1,18,-1
 0 256 l 1,19,-1
 64 384 l 1,20,-1
 192 448 l 1,21,-1
 256 448 l 1,22,-1
 384 384 l 1,23,-1
 448 256 l 1,24,-1
 448 192 l 1,25,-1
 384 64 l 1,26,-1
 256 0 l 1,27,-1
 192 0 l 1,16,-1
160 512 m 1,28,-1
 96 576 l 1,29,-1
 96 640 l 1,30,-1
 128 640 l 1,31,-1
 192 576 l 1,32,-1
 256 576 l 1,33,-1
 320 640 l 1,34,-1
 352 640 l 1,35,-1
 352 576 l 1,36,-1
 288 512 l 1,37,-1
 160 512 l 1,28,-1
EndSplineSet
EndChar

StartChar: Ohungarumlaut
Encoding: 336 336 272
Width: 576
Flags: W
LayerCount: 2
Back
Fore
SplineSet
256 64 m 1,0,-1
 320 96 l 1,1,-1
 352 128 l 1,2,-1
 384 192 l 1,3,-1
 384 384 l 1,4,-1
 352 448 l 1,5,-1
 320 480 l 1,6,-1
 256 512 l 1,7,-1
 192 512 l 1,8,-1
 128 480 l 1,9,-1
 96 448 l 1,10,-1
 64 384 l 1,11,-1
 64 192 l 1,12,-1
 96 128 l 1,13,-1
 128 96 l 1,14,-1
 192 64 l 1,15,-1
 256 64 l 1,0,-1
192 0 m 1,16,-1
 64 64 l 1,17,-1
 0 192 l 1,18,-1
 0 384 l 1,19,-1
 64 512 l 1,20,-1
 192 576 l 1,21,-1
 256 576 l 1,22,-1
 384 512 l 1,23,-1
 448 384 l 1,24,-1
 448 192 l 1,25,-1
 384 64 l 1,26,-1
 256 0 l 1,27,-1
 192 0 l 1,16,-1
64 640 m 1,28,-1
 64 672 l 1,29,-1
 160 768 l 1,30,-1
 192 768 l 1,31,-1
 192 704 l 1,32,-1
 128 640 l 1,33,-1
 64 640 l 1,28,-1
256 640 m 1,34,-1
 256 672 l 1,35,-1
 352 768 l 1,36,-1
 384 768 l 1,37,-1
 384 704 l 1,38,-1
 320 640 l 1,39,-1
 256 640 l 1,34,-1
EndSplineSet
EndChar

StartChar: ohungarumlaut
Encoding: 337 337 273
Width: 576
Flags: W
LayerCount: 2
Back
Fore
SplineSet
256 64 m 1,0,-1
 320 96 l 1,1,-1
 352 128 l 1,2,-1
 384 192 l 1,3,-1
 384 256 l 1,4,-1
 352 320 l 1,5,-1
 320 352 l 1,6,-1
 256 384 l 1,7,-1
 192 384 l 1,8,-1
 128 352 l 1,9,-1
 96 320 l 1,10,-1
 64 256 l 1,11,-1
 64 192 l 1,12,-1
 96 128 l 1,13,-1
 128 96 l 1,14,-1
 192 64 l 1,15,-1
 256 64 l 1,0,-1
192 0 m 1,16,-1
 64 64 l 1,17,-1
 0 192 l 1,18,-1
 0 256 l 1,19,-1
 64 384 l 1,20,-1
 192 448 l 1,21,-1
 256 448 l 1,22,-1
 384 384 l 1,23,-1
 448 256 l 1,24,-1
 448 192 l 1,25,-1
 384 64 l 1,26,-1
 256 0 l 1,27,-1
 192 0 l 1,16,-1
64 512 m 1,28,-1
 64 544 l 1,29,-1
 160 640 l 1,30,-1
 192 640 l 1,31,-1
 192 576 l 1,32,-1
 128 512 l 1,33,-1
 64 512 l 1,28,-1
256 512 m 1,34,-1
 256 544 l 1,35,-1
 352 640 l 1,36,-1
 384 640 l 1,37,-1
 384 576 l 1,38,-1
 320 512 l 1,39,-1
 256 512 l 1,34,-1
EndSplineSet
EndChar

StartChar: OE
Encoding: 338 338 274
Width: 640
Flags: W
LayerCount: 2
Back
Fore
SplineSet
256 64 m 1,0,-1
 256 512 l 1,1,-1
 192 512 l 1,2,-1
 128 480 l 1,3,-1
 96 448 l 1,4,-1
 64 384 l 1,5,-1
 64 192 l 1,6,-1
 96 128 l 1,7,-1
 128 96 l 1,8,-1
 192 64 l 1,9,-1
 256 64 l 1,0,-1
192 0 m 1,10,-1
 64 64 l 1,11,-1
 0 192 l 1,12,-1
 0 384 l 1,13,-1
 64 512 l 1,14,-1
 192 576 l 1,15,-1
 512 576 l 1,16,-1
 512 512 l 1,17,-1
 320 512 l 1,18,-1
 320 320 l 1,19,-1
 512 320 l 1,20,-1
 512 256 l 1,21,-1
 320 256 l 1,22,-1
 320 64 l 1,23,-1
 512 64 l 1,24,-1
 512 0 l 1,25,-1
 192 0 l 1,10,-1
EndSplineSet
EndChar

StartChar: oe
Encoding: 339 339 275
Width: 576
Flags: W
LayerCount: 2
Back
Fore
SplineSet
192 64 m 1,0,-1
 192 384 l 1,1,-1
 128 352 l 1,2,-1
 96 320 l 1,3,-1
 64 256 l 1,4,-1
 64 192 l 1,5,-1
 96 128 l 1,6,-1
 128 96 l 1,7,-1
 192 64 l 1,8,-1
 192 64 l 1,0,-1
384 256 m 1,9,-1
 384 320 l 1,10,-1
 362 362 l 1,11,-1
 320 384 l 1,12,-1
 256 384 l 1,13,-1
 256 256 l 1,14,-1
 384 256 l 1,9,-1
192 0 m 1,15,-1
 64 64 l 1,16,-1
 0 192 l 1,17,-1
 0 256 l 1,18,-1
 64 384 l 1,19,-1
 192 448 l 1,20,-1
 320 448 l 1,21,-1
 384 416 l 1,22,-1
 416 384 l 1,23,-1
 448 320 l 1,24,-1
 448 192 l 1,25,-1
 256 192 l 1,26,-1
 256 64 l 1,27,-1
 448 64 l 1,28,-1
 448 0 l 1,29,-1
 192 0 l 1,15,-1
EndSplineSet
EndChar

StartChar: Racute
Encoding: 340 340 276
Width: 512
Flags: W
LayerCount: 2
Back
Fore
SplineSet
192 256 m 1,0,-1
 256 288 l 1,1,-1
 288 320 l 1,2,-1
 320 384 l 1,3,-1
 288 448 l 1,4,-1
 256 480 l 1,5,-1
 192 512 l 1,6,-1
 64 512 l 1,7,-1
 64 256 l 1,8,-1
 192 256 l 1,0,-1
0 0 m 1,9,-1
 0 576 l 1,10,-1
 192 576 l 1,11,-1
 320 512 l 1,12,-1
 384 384 l 1,13,-1
 320 256 l 1,14,-1
 234 213 l 1,15,-1
 384 64 l 1,16,-1
 384 0 l 1,17,-1
 352 0 l 1,18,-1
 160 192 l 1,19,-1
 64 192 l 1,20,-1
 64 0 l 1,21,-1
 0 0 l 1,9,-1
64 640 m 1,22,-1
 64 672 l 1,23,-1
 256 768 l 1,24,-1
 320 768 l 1,25,-1
 320 736 l 1,26,-1
 128 640 l 1,27,-1
 64 640 l 1,22,-1
EndSplineSet
EndChar

StartChar: racute
Encoding: 341 341 277
Width: 384
Flags: W
LayerCount: 2
Back
Fore
SplineSet
0 0 m 1,0,-1
 0 448 l 1,1,-1
 64 448 l 1,2,-1
 64 384 l 1,3,-1
 192 448 l 1,4,-1
 256 448 l 1,5,-1
 256 384 l 1,6,-1
 192 384 l 1,7,-1
 64 320 l 1,8,-1
 64 0 l 1,9,-1
 0 0 l 1,0,-1
0 512 m 1,10,-1
 0 544 l 1,11,-1
 192 640 l 1,12,-1
 256 640 l 1,13,-1
 256 608 l 1,14,-1
 64 512 l 1,15,-1
 0 512 l 1,10,-1
EndSplineSet
EndChar

StartChar: uni0156
Encoding: 342 342 278
Width: 512
Flags: W
LayerCount: 2
Back
Fore
SplineSet
128 -160 m 1,0,-1
 128 -128 l 1,1,-1
 192 -96 l 1,2,-1
 192 -64 l 1,3,-1
 128 -32 l 1,4,-1
 128 0 l 1,5,-1
 192 0 l 1,6,-1
 256 -32 l 1,7,-1
 256 -128 l 1,8,-1
 192 -160 l 1,9,-1
 128 -160 l 1,0,-1
192 256 m 1,10,-1
 256 288 l 1,11,-1
 288 320 l 1,12,-1
 320 384 l 1,13,-1
 288 448 l 1,14,-1
 256 480 l 1,15,-1
 192 512 l 1,16,-1
 64 512 l 1,17,-1
 64 256 l 1,18,-1
 192 256 l 1,10,-1
0 0 m 1,19,-1
 0 576 l 1,20,-1
 192 576 l 1,21,-1
 320 512 l 1,22,-1
 384 384 l 1,23,-1
 320 256 l 1,24,-1
 234 213 l 1,25,-1
 384 64 l 1,26,-1
 384 0 l 1,27,-1
 352 0 l 1,28,-1
 160 192 l 1,29,-1
 64 192 l 1,30,-1
 64 0 l 1,31,-1
 0 0 l 1,19,-1
EndSplineSet
EndChar

StartChar: uni0157
Encoding: 343 343 279
Width: 384
Flags: W
LayerCount: 2
Back
Fore
SplineSet
64 -160 m 1,0,-1
 64 -128 l 1,1,-1
 128 -96 l 1,2,-1
 128 -64 l 1,3,-1
 64 -32 l 1,4,-1
 64 0 l 1,5,-1
 128 0 l 1,6,-1
 192 -32 l 1,7,-1
 192 -128 l 1,8,-1
 128 -160 l 1,9,-1
 64 -160 l 1,0,-1
0 0 m 1,10,-1
 0 448 l 1,11,-1
 64 448 l 1,12,-1
 64 384 l 1,13,-1
 192 448 l 1,14,-1
 256 448 l 1,15,-1
 256 384 l 1,16,-1
 192 384 l 1,17,-1
 64 320 l 1,18,-1
 64 0 l 1,19,-1
 0 0 l 1,10,-1
EndSplineSet
EndChar

StartChar: Rcaron
Encoding: 344 344 280
Width: 512
Flags: W
LayerCount: 2
Back
Fore
SplineSet
192 256 m 1,0,-1
 256 288 l 1,1,-1
 288 320 l 1,2,-1
 320 384 l 1,3,-1
 288 448 l 1,4,-1
 256 480 l 1,5,-1
 192 512 l 1,6,-1
 64 512 l 1,7,-1
 64 256 l 1,8,-1
 192 256 l 1,0,-1
0 0 m 1,9,-1
 0 576 l 1,10,-1
 192 576 l 1,11,-1
 320 512 l 1,12,-1
 384 384 l 1,13,-1
 320 256 l 1,14,-1
 234 213 l 1,15,-1
 384 64 l 1,16,-1
 384 0 l 1,17,-1
 352 0 l 1,18,-1
 160 192 l 1,19,-1
 64 192 l 1,20,-1
 64 0 l 1,21,-1
 0 0 l 1,9,-1
192 640 m 1,22,-1
 64 704 l 1,23,-1
 64 768 l 1,24,-1
 192 704 l 1,25,-1
 320 768 l 1,26,-1
 320 704 l 1,27,-1
 192 640 l 1,28,-1
 192 640 l 1,22,-1
EndSplineSet
EndChar

StartChar: rcaron
Encoding: 345 345 281
Width: 384
Flags: W
LayerCount: 2
Back
Fore
SplineSet
0 0 m 1,0,-1
 0 448 l 1,1,-1
 64 448 l 1,2,-1
 64 384 l 1,3,-1
 192 448 l 1,4,-1
 256 448 l 1,5,-1
 256 384 l 1,6,-1
 192 384 l 1,7,-1
 64 320 l 1,8,-1
 64 0 l 1,9,-1
 0 0 l 1,0,-1
128 512 m 1,10,-1
 0 576 l 1,11,-1
 0 640 l 1,12,-1
 128 576 l 1,13,-1
 256 640 l 1,14,-1
 256 576 l 1,15,-1
 128 512 l 1,16,-1
 128 512 l 1,10,-1
EndSplineSet
EndChar

StartChar: Sacute
Encoding: 346 346 282
Width: 512
Flags: W
LayerCount: 2
Back
Fore
SplineSet
0 0 m 1,0,-1
 0 64 l 1,1,-1
 256 64 l 1,2,-1
 320 128 l 1,3,-1
 288 192 l 1,4,-1
 256 224 l 1,5,-1
 64 320 l 1,6,-1
 0 448 l 1,7,-1
 32 512 l 1,8,-1
 64 544 l 1,9,-1
 128 576 l 1,10,-1
 384 576 l 1,11,-1
 384 512 l 1,12,-1
 128 512 l 1,13,-1
 64 448 l 1,14,-1
 96 384 l 1,15,-1
 128 352 l 1,16,-1
 320 256 l 1,17,-1
 384 128 l 1,18,-1
 352 64 l 1,19,-1
 320 32 l 1,20,-1
 256 0 l 1,21,-1
 0 0 l 1,0,-1
64 640 m 1,22,-1
 64 672 l 1,23,-1
 256 768 l 1,24,-1
 320 768 l 1,25,-1
 320 736 l 1,26,-1
 128 640 l 1,27,-1
 64 640 l 1,22,-1
EndSplineSet
EndChar

StartChar: sacute
Encoding: 347 347 283
Width: 448
Flags: W
LayerCount: 2
Back
Fore
SplineSet
0 0 m 1,0,-1
 0 64 l 1,1,-1
 192 64 l 1,2,-1
 234 85 l 1,3,-1
 256 128 l 1,4,-1
 234 170 l 1,5,-1
 192 192 l 1,6,-1
 128 192 l 1,7,-1
 64 224 l 1,8,-1
 32 256 l 1,9,-1
 0 320 l 1,10,-1
 32 384 l 1,11,-1
 64 416 l 1,12,-1
 128 448 l 1,13,-1
 320 448 l 1,14,-1
 320 384 l 1,15,-1
 128 384 l 1,16,-1
 85 362 l 1,17,-1
 64 320 l 1,18,-1
 85 277 l 1,19,-1
 128 256 l 1,20,-1
 192 256 l 1,21,-1
 256 224 l 1,22,-1
 288 192 l 1,23,-1
 320 128 l 1,24,-1
 288 64 l 1,25,-1
 256 32 l 1,26,-1
 192 0 l 1,27,-1
 0 0 l 1,0,-1
64 512 m 1,28,-1
 64 544 l 1,29,-1
 256 640 l 1,30,-1
 320 640 l 1,31,-1
 320 608 l 1,32,-1
 128 512 l 1,33,-1
 64 512 l 1,28,-1
EndSplineSet
EndChar

StartChar: Scircumflex
Encoding: 348 348 284
Width: 512
Flags: W
LayerCount: 2
Back
Fore
SplineSet
0 0 m 1,0,-1
 0 64 l 1,1,-1
 256 64 l 1,2,-1
 320 128 l 1,3,-1
 288 192 l 1,4,-1
 256 224 l 1,5,-1
 64 320 l 1,6,-1
 0 448 l 1,7,-1
 32 512 l 1,8,-1
 64 544 l 1,9,-1
 128 576 l 1,10,-1
 384 576 l 1,11,-1
 384 512 l 1,12,-1
 128 512 l 1,13,-1
 64 448 l 1,14,-1
 96 384 l 1,15,-1
 128 352 l 1,16,-1
 320 256 l 1,17,-1
 384 128 l 1,18,-1
 352 64 l 1,19,-1
 320 32 l 1,20,-1
 256 0 l 1,21,-1
 0 0 l 1,0,-1
32 640 m 1,22,-1
 192 800 l 1,23,-1
 352 640 l 1,24,-1
 288 640 l 1,25,-1
 224 704 l 1,26,-1
 224 704 l 1,27,-1
 192 736 l 1,28,-1
 96 640 l 1,29,-1
 32 640 l 1,22,-1
EndSplineSet
EndChar

StartChar: scircumflex
Encoding: 349 349 285
Width: 448
Flags: W
LayerCount: 2
Back
Fore
SplineSet
0 0 m 1,0,-1
 0 64 l 1,1,-1
 192 64 l 1,2,-1
 234 85 l 1,3,-1
 256 128 l 1,4,-1
 234 170 l 1,5,-1
 192 192 l 1,6,-1
 128 192 l 1,7,-1
 64 224 l 1,8,-1
 32 256 l 1,9,-1
 0 320 l 1,10,-1
 32 384 l 1,11,-1
 64 416 l 1,12,-1
 128 448 l 1,13,-1
 320 448 l 1,14,-1
 320 384 l 1,15,-1
 128 384 l 1,16,-1
 85 362 l 1,17,-1
 64 320 l 1,18,-1
 85 277 l 1,19,-1
 128 256 l 1,20,-1
 192 256 l 1,21,-1
 256 224 l 1,22,-1
 288 192 l 1,23,-1
 320 128 l 1,24,-1
 288 64 l 1,25,-1
 256 32 l 1,26,-1
 192 0 l 1,27,-1
 0 0 l 1,0,-1
0 512 m 1,28,-1
 160 672 l 1,29,-1
 320 512 l 1,30,-1
 256 512 l 1,31,-1
 192 576 l 1,32,-1
 192 576 l 1,33,-1
 160 608 l 1,34,-1
 64 512 l 1,35,-1
 0 512 l 1,28,-1
EndSplineSet
EndChar

StartChar: Scedilla
Encoding: 350 350 286
Width: 512
Flags: W
LayerCount: 2
Back
Fore
SplineSet
128 -160 m 1,0,-1
 128 -128 l 1,1,-1
 192 -96 l 1,2,-1
 192 -64 l 1,3,-1
 128 -32 l 1,4,-1
 128 0 l 1,5,-1
 0 0 l 1,6,-1
 0 64 l 1,7,-1
 256 64 l 1,8,-1
 320 128 l 1,9,-1
 288 192 l 1,10,-1
 256 224 l 1,11,-1
 64 320 l 1,12,-1
 0 448 l 1,13,-1
 32 512 l 1,14,-1
 64 544 l 1,15,-1
 128 576 l 1,16,-1
 384 576 l 1,17,-1
 384 512 l 1,18,-1
 128 512 l 1,19,-1
 64 448 l 1,20,-1
 96 384 l 1,21,-1
 128 352 l 1,22,-1
 320 256 l 1,23,-1
 384 128 l 1,24,-1
 352 64 l 1,25,-1
 320 32 l 1,26,-1
 256 0 l 1,27,-1
 192 0 l 1,28,-1
 256 -32 l 1,29,-1
 256 -128 l 1,30,-1
 192 -160 l 1,31,-1
 128 -160 l 1,0,-1
EndSplineSet
EndChar

StartChar: scedilla
Encoding: 351 351 287
Width: 448
Flags: W
LayerCount: 2
Back
Fore
SplineSet
128 -160 m 1,0,-1
 128 -128 l 1,1,-1
 192 -96 l 1,2,-1
 192 -64 l 1,3,-1
 128 -32 l 1,4,-1
 128 0 l 1,5,-1
 0 0 l 1,6,-1
 0 64 l 1,7,-1
 192 64 l 1,8,-1
 234 85 l 1,9,-1
 256 128 l 1,10,-1
 234 170 l 1,11,-1
 192 192 l 1,12,-1
 128 192 l 1,13,-1
 64 224 l 1,14,-1
 32 256 l 1,15,-1
 0 320 l 1,16,-1
 32 384 l 1,17,-1
 64 416 l 1,18,-1
 128 448 l 1,19,-1
 320 448 l 1,20,-1
 320 384 l 1,21,-1
 128 384 l 1,22,-1
 85 362 l 1,23,-1
 64 320 l 1,24,-1
 85 277 l 1,25,-1
 128 256 l 1,26,-1
 192 256 l 1,27,-1
 256 224 l 1,28,-1
 288 192 l 1,29,-1
 320 128 l 1,30,-1
 288 64 l 1,31,-1
 256 32 l 1,32,-1
 192 0 l 1,33,-1
 256 -32 l 1,34,-1
 256 -128 l 1,35,-1
 192 -160 l 1,36,-1
 128 -160 l 1,0,-1
EndSplineSet
EndChar

StartChar: Scaron
Encoding: 352 352 288
Width: 512
Flags: W
LayerCount: 2
Back
Fore
SplineSet
0 0 m 1,0,-1
 0 64 l 1,1,-1
 256 64 l 1,2,-1
 320 128 l 1,3,-1
 288 192 l 1,4,-1
 256 224 l 1,5,-1
 64 320 l 1,6,-1
 0 448 l 1,7,-1
 32 512 l 1,8,-1
 64 544 l 1,9,-1
 128 576 l 1,10,-1
 384 576 l 1,11,-1
 384 512 l 1,12,-1
 128 512 l 1,13,-1
 64 448 l 1,14,-1
 96 384 l 1,15,-1
 128 352 l 1,16,-1
 320 256 l 1,17,-1
 384 128 l 1,18,-1
 352 64 l 1,19,-1
 320 32 l 1,20,-1
 256 0 l 1,21,-1
 0 0 l 1,0,-1
192 640 m 1,22,-1
 64 704 l 1,23,-1
 64 768 l 1,24,-1
 192 704 l 1,25,-1
 320 768 l 1,26,-1
 320 704 l 1,27,-1
 192 640 l 1,28,-1
 192 640 l 1,22,-1
EndSplineSet
EndChar

StartChar: scaron
Encoding: 353 353 289
Width: 448
Flags: W
LayerCount: 2
Back
Fore
SplineSet
0 0 m 1,0,-1
 0 64 l 1,1,-1
 192 64 l 1,2,-1
 234 85 l 1,3,-1
 256 128 l 1,4,-1
 234 170 l 1,5,-1
 192 192 l 1,6,-1
 128 192 l 1,7,-1
 64 224 l 1,8,-1
 32 256 l 1,9,-1
 0 320 l 1,10,-1
 32 384 l 1,11,-1
 64 416 l 1,12,-1
 128 448 l 1,13,-1
 320 448 l 1,14,-1
 320 384 l 1,15,-1
 128 384 l 1,16,-1
 85 362 l 1,17,-1
 64 320 l 1,18,-1
 85 277 l 1,19,-1
 128 256 l 1,20,-1
 192 256 l 1,21,-1
 256 224 l 1,22,-1
 288 192 l 1,23,-1
 320 128 l 1,24,-1
 288 64 l 1,25,-1
 256 32 l 1,26,-1
 192 0 l 1,27,-1
 0 0 l 1,0,-1
192 512 m 1,28,-1
 64 576 l 1,29,-1
 64 640 l 1,30,-1
 192 576 l 1,31,-1
 320 640 l 1,32,-1
 320 576 l 1,33,-1
 192 512 l 1,34,-1
 192 512 l 1,28,-1
EndSplineSet
EndChar

StartChar: uni0162
Encoding: 354 354 290
Width: 576
Flags: W
LayerCount: 2
Back
Fore
SplineSet
160 -256 m 1,0,-1
 192 -192 l 1,1,-1
 192 -64 l 1,2,-1
 256 -64 l 1,3,-1
 256 -192 l 1,4,-1
 192 -256 l 1,5,-1
 160 -256 l 1,0,-1
192 0 m 1,6,-1
 192 512 l 1,7,-1
 0 512 l 1,8,-1
 0 576 l 1,9,-1
 448 576 l 1,10,-1
 448 512 l 1,11,-1
 256 512 l 1,12,-1
 256 0 l 1,13,-1
 192 0 l 1,6,-1
EndSplineSet
EndChar

StartChar: uni0163
Encoding: 355 355 291
Width: 448
Flags: W
LayerCount: 2
Back
Fore
SplineSet
160 -256 m 1,0,-1
 192 -192 l 1,1,-1
 192 -64 l 1,2,-1
 256 -64 l 1,3,-1
 256 -192 l 1,4,-1
 192 -256 l 1,5,-1
 160 -256 l 1,0,-1
192 0 m 1,6,-1
 128 32 l 1,7,-1
 96 64 l 1,8,-1
 64 128 l 1,9,-1
 64 384 l 1,10,-1
 0 384 l 1,11,-1
 0 448 l 1,12,-1
 64 448 l 1,13,-1
 64 576 l 1,14,-1
 128 576 l 1,15,-1
 128 448 l 1,16,-1
 320 448 l 1,17,-1
 320 384 l 1,18,-1
 128 384 l 1,19,-1
 128 128 l 1,20,-1
 149 85 l 1,21,-1
 192 64 l 1,22,-1
 320 64 l 1,23,-1
 320 0 l 1,24,-1
 192 0 l 1,6,-1
EndSplineSet
EndChar

StartChar: Tcaron
Encoding: 356 356 292
Width: 576
Flags: W
LayerCount: 2
Back
Fore
SplineSet
192 0 m 1,0,-1
 192 512 l 1,1,-1
 0 512 l 1,2,-1
 0 576 l 1,3,-1
 448 576 l 1,4,-1
 448 512 l 1,5,-1
 256 512 l 1,6,-1
 256 0 l 1,7,-1
 192 0 l 1,0,-1
224 640 m 1,8,-1
 96 704 l 1,9,-1
 96 768 l 1,10,-1
 224 704 l 1,11,-1
 352 768 l 1,12,-1
 352 704 l 1,13,-1
 224 640 l 1,14,-1
 224 640 l 1,8,-1
EndSplineSet
EndChar

StartChar: tcaron
Encoding: 357 357 293
Width: 576
Flags: W
LayerCount: 2
Back
Fore
SplineSet
192 0 m 1,0,-1
 128 32 l 1,1,-1
 96 64 l 1,2,-1
 64 128 l 1,3,-1
 64 384 l 1,4,-1
 0 384 l 1,5,-1
 0 448 l 1,6,-1
 64 448 l 1,7,-1
 64 576 l 1,8,-1
 128 576 l 1,9,-1
 128 448 l 1,10,-1
 320 448 l 1,11,-1
 320 384 l 1,12,-1
 128 384 l 1,13,-1
 128 128 l 1,14,-1
 149 85 l 1,15,-1
 192 64 l 1,16,-1
 320 64 l 1,17,-1
 320 0 l 1,18,-1
 192 0 l 1,0,-1
352 384 m 1,19,-1
 384 448 l 1,20,-1
 384 576 l 1,21,-1
 448 576 l 1,22,-1
 448 448 l 1,23,-1
 384 384 l 1,24,-1
 352 384 l 1,19,-1
EndSplineSet
EndChar

StartChar: Tbar
Encoding: 358 358 294
Width: 576
Flags: W
LayerCount: 2
Back
Fore
SplineSet
192 0 m 1,0,-1
 192 256 l 1,1,-1
 64 256 l 1,2,-1
 64 320 l 1,3,-1
 192 320 l 1,4,-1
 192 512 l 1,5,-1
 0 512 l 1,6,-1
 0 576 l 1,7,-1
 448 576 l 1,8,-1
 448 512 l 1,9,-1
 256 512 l 1,10,-1
 256 320 l 1,11,-1
 384 320 l 1,12,-1
 384 256 l 1,13,-1
 256 256 l 1,14,-1
 256 0 l 1,15,-1
 192 0 l 1,0,-1
EndSplineSet
EndChar

StartChar: tbar
Encoding: 359 359 295
Width: 448
Flags: W
LayerCount: 2
Back
Fore
SplineSet
192 0 m 1,0,-1
 128 32 l 1,1,-1
 96 64 l 1,2,-1
 64 128 l 1,3,-1
 64 192 l 1,4,-1
 0 192 l 1,5,-1
 0 256 l 1,6,-1
 64 256 l 1,7,-1
 64 384 l 1,8,-1
 0 384 l 1,9,-1
 0 448 l 1,10,-1
 64 448 l 1,11,-1
 64 576 l 1,12,-1
 128 576 l 1,13,-1
 128 448 l 1,14,-1
 320 448 l 1,15,-1
 320 384 l 1,16,-1
 128 384 l 1,17,-1
 128 256 l 1,18,-1
 256 256 l 1,19,-1
 256 192 l 1,20,-1
 128 192 l 1,21,-1
 128 128 l 1,22,-1
 149 85 l 1,23,-1
 192 64 l 1,24,-1
 320 64 l 1,25,-1
 320 0 l 1,26,-1
 192 0 l 1,0,-1
EndSplineSet
EndChar

StartChar: Utilde
Encoding: 360 360 296
Width: 576
Flags: W
LayerCount: 2
Back
Fore
SplineSet
192 0 m 1,0,-1
 64 64 l 1,1,-1
 0 192 l 1,2,-1
 0 576 l 1,3,-1
 64 576 l 1,4,-1
 64 192 l 1,5,-1
 96 128 l 1,6,-1
 128 96 l 1,7,-1
 192 64 l 1,8,-1
 256 64 l 1,9,-1
 320 96 l 1,10,-1
 352 128 l 1,11,-1
 384 192 l 1,12,-1
 384 576 l 1,13,-1
 448 576 l 1,14,-1
 448 192 l 1,15,-1
 384 64 l 1,16,-1
 256 0 l 1,17,-1
 192 0 l 1,0,-1
EndSplineSet
EndChar

StartChar: utilde
Encoding: 361 361 297
Width: 512
Flags: W
LayerCount: 2
Back
Fore
SplineSet
128 0 m 1,0,-1
 64 32 l 1,1,-1
 32 64 l 1,2,-1
 0 128 l 1,3,-1
 0 448 l 1,4,-1
 64 448 l 1,5,-1
 64 128 l 1,6,-1
 85 85 l 1,7,-1
 128 64 l 1,8,-1
 192 64 l 1,9,-1
 320 128 l 1,10,-1
 320 448 l 1,11,-1
 384 448 l 1,12,-1
 384 0 l 1,13,-1
 320 0 l 1,14,-1
 320 64 l 1,15,-1
 192 0 l 1,16,-1
 128 0 l 1,0,-1
EndSplineSet
EndChar

StartChar: Umacron
Encoding: 362 362 298
Width: 576
Flags: W
LayerCount: 2
Back
Fore
SplineSet
192 0 m 1,0,-1
 64 64 l 1,1,-1
 0 192 l 1,2,-1
 0 576 l 1,3,-1
 64 576 l 1,4,-1
 64 192 l 1,5,-1
 96 128 l 1,6,-1
 128 96 l 1,7,-1
 192 64 l 1,8,-1
 256 64 l 1,9,-1
 320 96 l 1,10,-1
 352 128 l 1,11,-1
 384 192 l 1,12,-1
 384 576 l 1,13,-1
 448 576 l 1,14,-1
 448 192 l 1,15,-1
 384 64 l 1,16,-1
 256 0 l 1,17,-1
 192 0 l 1,0,-1
EndSplineSet
EndChar

StartChar: umacron
Encoding: 363 363 299
Width: 512
Flags: W
LayerCount: 2
Back
Fore
SplineSet
128 0 m 1,0,-1
 64 32 l 1,1,-1
 32 64 l 1,2,-1
 0 128 l 1,3,-1
 0 448 l 1,4,-1
 64 448 l 1,5,-1
 64 128 l 1,6,-1
 85 85 l 1,7,-1
 128 64 l 1,8,-1
 192 64 l 1,9,-1
 320 128 l 1,10,-1
 320 448 l 1,11,-1
 384 448 l 1,12,-1
 384 0 l 1,13,-1
 320 0 l 1,14,-1
 320 64 l 1,15,-1
 192 0 l 1,16,-1
 128 0 l 1,0,-1
64 512 m 1,17,-1
 64 576 l 1,18,-1
 320 576 l 1,19,-1
 320 512 l 1,20,-1
 64 512 l 1,17,-1
EndSplineSet
EndChar

StartChar: Ubreve
Encoding: 364 364 300
Width: 576
Flags: W
LayerCount: 2
Back
Fore
SplineSet
192 0 m 1,0,-1
 64 64 l 1,1,-1
 0 192 l 1,2,-1
 0 576 l 1,3,-1
 64 576 l 1,4,-1
 64 192 l 1,5,-1
 96 128 l 1,6,-1
 128 96 l 1,7,-1
 192 64 l 1,8,-1
 256 64 l 1,9,-1
 320 96 l 1,10,-1
 352 128 l 1,11,-1
 384 192 l 1,12,-1
 384 576 l 1,13,-1
 448 576 l 1,14,-1
 448 192 l 1,15,-1
 384 64 l 1,16,-1
 256 0 l 1,17,-1
 192 0 l 1,0,-1
160 640 m 1,18,-1
 96 704 l 1,19,-1
 96 768 l 1,20,-1
 128 768 l 1,21,-1
 192 704 l 1,22,-1
 256 704 l 1,23,-1
 320 768 l 1,24,-1
 352 768 l 1,25,-1
 352 704 l 1,26,-1
 288 640 l 1,27,-1
 160 640 l 1,18,-1
EndSplineSet
EndChar

StartChar: ubreve
Encoding: 365 365 301
Width: 512
Flags: W
LayerCount: 2
Back
Fore
SplineSet
128 0 m 1,0,-1
 64 32 l 1,1,-1
 32 64 l 1,2,-1
 0 128 l 1,3,-1
 0 448 l 1,4,-1
 64 448 l 1,5,-1
 64 128 l 1,6,-1
 85 85 l 1,7,-1
 128 64 l 1,8,-1
 192 64 l 1,9,-1
 320 128 l 1,10,-1
 320 448 l 1,11,-1
 384 448 l 1,12,-1
 384 0 l 1,13,-1
 320 0 l 1,14,-1
 320 64 l 1,15,-1
 192 0 l 1,16,-1
 128 0 l 1,0,-1
128 512 m 1,17,-1
 64 576 l 1,18,-1
 64 640 l 1,19,-1
 96 640 l 1,20,-1
 160 576 l 1,21,-1
 224 576 l 1,22,-1
 288 640 l 1,23,-1
 320 640 l 1,24,-1
 320 576 l 1,25,-1
 256 512 l 1,26,-1
 128 512 l 1,17,-1
EndSplineSet
EndChar

StartChar: Uring
Encoding: 366 366 302
Width: 576
Flags: W
LayerCount: 2
Back
Fore
SplineSet
192 0 m 1,0,-1
 64 64 l 1,1,-1
 0 192 l 1,2,-1
 0 576 l 1,3,-1
 64 576 l 1,4,-1
 64 192 l 1,5,-1
 96 128 l 1,6,-1
 128 96 l 1,7,-1
 192 64 l 1,8,-1
 256 64 l 1,9,-1
 320 96 l 1,10,-1
 352 128 l 1,11,-1
 384 192 l 1,12,-1
 384 576 l 1,13,-1
 448 576 l 1,14,-1
 448 192 l 1,15,-1
 384 64 l 1,16,-1
 256 0 l 1,17,-1
 192 0 l 1,0,-1
256 640 m 1,18,-1
 256 704 l 1,19,-1
 192 704 l 1,20,-1
 192 640 l 1,21,-1
 256 640 l 1,18,-1
192 576 m 1,22,-1
 128 640 l 1,23,-1
 128 704 l 1,24,-1
 192 768 l 1,25,-1
 256 768 l 1,26,-1
 320 704 l 1,27,-1
 320 640 l 1,28,-1
 256 576 l 1,29,-1
 192 576 l 1,22,-1
EndSplineSet
EndChar

StartChar: uring
Encoding: 367 367 303
Width: 512
Flags: W
LayerCount: 2
Back
Fore
SplineSet
128 0 m 1,0,-1
 64 32 l 1,1,-1
 32 64 l 1,2,-1
 0 128 l 1,3,-1
 0 448 l 1,4,-1
 64 448 l 1,5,-1
 64 128 l 1,6,-1
 85 85 l 1,7,-1
 128 64 l 1,8,-1
 192 64 l 1,9,-1
 320 128 l 1,10,-1
 320 448 l 1,11,-1
 384 448 l 1,12,-1
 384 0 l 1,13,-1
 320 0 l 1,14,-1
 320 64 l 1,15,-1
 192 0 l 1,16,-1
 128 0 l 1,0,-1
224 576 m 1,17,-1
 224 640 l 1,18,-1
 160 640 l 1,19,-1
 160 576 l 1,20,-1
 224 576 l 1,17,-1
160 512 m 1,21,-1
 96 576 l 1,22,-1
 96 640 l 1,23,-1
 160 704 l 1,24,-1
 224 704 l 1,25,-1
 288 640 l 1,26,-1
 288 576 l 1,27,-1
 224 512 l 1,28,-1
 160 512 l 1,21,-1
EndSplineSet
EndChar

StartChar: Uhungarumlaut
Encoding: 368 368 304
Width: 576
Flags: W
LayerCount: 2
Back
Fore
SplineSet
192 0 m 1,0,-1
 64 64 l 1,1,-1
 0 192 l 1,2,-1
 0 576 l 1,3,-1
 64 576 l 1,4,-1
 64 192 l 1,5,-1
 96 128 l 1,6,-1
 128 96 l 1,7,-1
 192 64 l 1,8,-1
 256 64 l 1,9,-1
 320 96 l 1,10,-1
 352 128 l 1,11,-1
 384 192 l 1,12,-1
 384 576 l 1,13,-1
 448 576 l 1,14,-1
 448 192 l 1,15,-1
 384 64 l 1,16,-1
 256 0 l 1,17,-1
 192 0 l 1,0,-1
64 640 m 1,18,-1
 64 672 l 1,19,-1
 160 768 l 1,20,-1
 192 768 l 1,21,-1
 192 704 l 1,22,-1
 128 640 l 1,23,-1
 64 640 l 1,18,-1
256 640 m 1,24,-1
 256 672 l 1,25,-1
 352 768 l 1,26,-1
 384 768 l 1,27,-1
 384 704 l 1,28,-1
 320 640 l 1,29,-1
 256 640 l 1,24,-1
EndSplineSet
EndChar

StartChar: uhungarumlaut
Encoding: 369 369 305
Width: 512
Flags: W
LayerCount: 2
Back
Fore
SplineSet
128 0 m 1,0,-1
 64 32 l 1,1,-1
 32 64 l 1,2,-1
 0 128 l 1,3,-1
 0 448 l 1,4,-1
 64 448 l 1,5,-1
 64 128 l 1,6,-1
 85 85 l 1,7,-1
 128 64 l 1,8,-1
 192 64 l 1,9,-1
 320 128 l 1,10,-1
 320 448 l 1,11,-1
 384 448 l 1,12,-1
 384 0 l 1,13,-1
 320 0 l 1,14,-1
 320 64 l 1,15,-1
 192 0 l 1,16,-1
 128 0 l 1,0,-1
64 512 m 1,17,-1
 64 544 l 1,18,-1
 160 640 l 1,19,-1
 192 640 l 1,20,-1
 192 576 l 1,21,-1
 128 512 l 1,22,-1
 64 512 l 1,17,-1
256 512 m 1,23,-1
 256 544 l 1,24,-1
 352 640 l 1,25,-1
 384 640 l 1,26,-1
 384 576 l 1,27,-1
 320 512 l 1,28,-1
 256 512 l 1,23,-1
EndSplineSet
EndChar

StartChar: Uogonek
Encoding: 370 370 306
Width: 576
Flags: W
LayerCount: 2
Back
Fore
SplineSet
320 -128 m 1,0,-1
 256 -64 l 1,1,-1
 288 0 l 1,2,-1
 320 0 l 1,3,-1
 320 -64 l 1,4,-1
 384 -96 l 1,5,-1
 384 -128 l 1,6,-1
 320 -128 l 1,0,-1
192 0 m 1,7,-1
 64 64 l 1,8,-1
 0 192 l 1,9,-1
 0 576 l 1,10,-1
 64 576 l 1,11,-1
 64 192 l 1,12,-1
 96 128 l 1,13,-1
 128 96 l 1,14,-1
 192 64 l 1,15,-1
 256 64 l 1,16,-1
 320 96 l 1,17,-1
 352 128 l 1,18,-1
 384 192 l 1,19,-1
 384 576 l 1,20,-1
 448 576 l 1,21,-1
 448 192 l 1,22,-1
 384 64 l 1,23,-1
 256 0 l 1,24,-1
 192 0 l 1,7,-1
EndSplineSet
EndChar

StartChar: uogonek
Encoding: 371 371 307
Width: 512
Flags: W
LayerCount: 2
Back
Fore
SplineSet
320 -128 m 1,0,-1
 256 -64 l 1,1,-1
 288 0 l 1,2,-1
 320 0 l 1,3,-1
 320 -64 l 1,4,-1
 384 -96 l 1,5,-1
 384 -128 l 1,6,-1
 320 -128 l 1,0,-1
128 0 m 1,7,-1
 64 32 l 1,8,-1
 32 64 l 1,9,-1
 0 128 l 1,10,-1
 0 448 l 1,11,-1
 64 448 l 1,12,-1
 64 128 l 1,13,-1
 85 85 l 1,14,-1
 128 64 l 1,15,-1
 192 64 l 1,16,-1
 320 128 l 1,17,-1
 320 448 l 1,18,-1
 384 448 l 1,19,-1
 384 0 l 1,20,-1
 320 0 l 1,21,-1
 320 64 l 1,22,-1
 192 0 l 1,23,-1
 128 0 l 1,7,-1
EndSplineSet
EndChar

StartChar: Wcircumflex
Encoding: 372 372 308
Width: 704
Flags: W
LayerCount: 2
Back
Fore
SplineSet
144 0 m 1,0,-1
 0 576 l 1,1,-1
 64 576 l 1,2,-1
 160 192 l 1,3,-1
 256 576 l 1,4,-1
 320 576 l 1,5,-1
 416 192 l 1,6,-1
 512 576 l 1,7,-1
 576 576 l 1,8,-1
 432 0 l 1,9,-1
 400 0 l 1,10,-1
 288 448 l 1,11,-1
 176 0 l 1,12,-1
 144 0 l 1,0,-1
128 640 m 1,13,-1
 288 800 l 1,14,-1
 448 640 l 1,15,-1
 384 640 l 1,16,-1
 320 704 l 1,17,-1
 320 704 l 1,18,-1
 288 736 l 1,19,-1
 192 640 l 1,20,-1
 128 640 l 1,13,-1
EndSplineSet
EndChar

StartChar: wcircumflex
Encoding: 373 373 309
Width: 704
Flags: W
LayerCount: 2
Back
Fore
SplineSet
149 0 m 1,0,-1
 0 448 l 1,1,-1
 64 448 l 1,2,-1
 149 192 l 1,3,-1
 149 191 l 1,4,-1
 160 160 l 1,5,-1
 256 448 l 1,6,-1
 320 448 l 1,7,-1
 405 192 l 1,8,-1
 405 191 l 1,9,-1
 416 160 l 1,10,-1
 512 448 l 1,11,-1
 576 448 l 1,12,-1
 426 0 l 1,13,-1
 405 0 l 1,14,-1
 288 352 l 1,15,-1
 277 320 l 1,16,-1
 277 320 l 1,17,-1
 170 0 l 1,18,-1
 149 0 l 1,0,-1
128 512 m 1,19,-1
 288 672 l 1,20,-1
 448 512 l 1,21,-1
 384 512 l 1,22,-1
 320 576 l 1,23,-1
 320 576 l 1,24,-1
 288 608 l 1,25,-1
 192 512 l 1,26,-1
 128 512 l 1,19,-1
EndSplineSet
EndChar

StartChar: Ycircumflex
Encoding: 374 374 310
Width: 576
Flags: W
LayerCount: 2
Back
Fore
SplineSet
192 0 m 1,0,-1
 192 192 l 1,1,-1
 0 576 l 1,2,-1
 64 576 l 1,3,-1
 224 256 l 1,4,-1
 384 576 l 1,5,-1
 448 576 l 1,6,-1
 256 192 l 1,7,-1
 256 0 l 1,8,-1
 192 0 l 1,0,-1
64 640 m 1,9,-1
 224 800 l 1,10,-1
 384 640 l 1,11,-1
 320 640 l 1,12,-1
 256 704 l 1,13,-1
 256 704 l 1,14,-1
 224 736 l 1,15,-1
 128 640 l 1,16,-1
 64 640 l 1,9,-1
EndSplineSet
EndChar

StartChar: ycircumflex
Encoding: 375 375 311
Width: 512
Flags: W
LayerCount: 2
Back
Fore
SplineSet
-64 -192 m 1,0,-1
 -64 -128 l 1,1,-1
 0 -128 l 1,2,-1
 64 -96 l 1,3,-1
 96 -64 l 1,4,-1
 112 0 l 1,5,-1
 0 448 l 1,6,-1
 64 448 l 1,7,-1
 160 64 l 1,8,-1
 352 448 l 1,9,-1
 384 448 l 1,10,-1
 384 384 l 1,11,-1
 128 -128 l 1,12,-1
 0 -192 l 1,13,-1
 -64 -192 l 1,0,-1
64 512 m 1,14,-1
 224 672 l 1,15,-1
 384 512 l 1,16,-1
 320 512 l 1,17,-1
 256 576 l 1,18,-1
 256 576 l 1,19,-1
 224 608 l 1,20,-1
 128 512 l 1,21,-1
 64 512 l 1,14,-1
EndSplineSet
EndChar

StartChar: Ydieresis
Encoding: 376 376 312
Width: 576
Flags: W
LayerCount: 2
Back
Fore
SplineSet
192 0 m 1,0,-1
 192 192 l 1,1,-1
 0 576 l 1,2,-1
 64 576 l 1,3,-1
 224 256 l 1,4,-1
 384 576 l 1,5,-1
 448 576 l 1,6,-1
 256 192 l 1,7,-1
 256 0 l 1,8,-1
 192 0 l 1,0,-1
96 640 m 1,9,-1
 96 768 l 1,10,-1
 160 768 l 1,11,-1
 160 640 l 1,12,-1
 96 640 l 1,9,-1
288 640 m 1,13,-1
 288 768 l 1,14,-1
 352 768 l 1,15,-1
 352 640 l 1,16,-1
 288 640 l 1,13,-1
EndSplineSet
EndChar

StartChar: Zacute
Encoding: 377 377 313
Width: 576
Flags: W
LayerCount: 2
Back
Fore
SplineSet
0 0 m 1,0,-1
 0 96 l 1,1,-1
 416 512 l 1,2,-1
 0 512 l 1,3,-1
 0 576 l 1,4,-1
 448 576 l 1,5,-1
 448 448 l 1,6,-1
 64 64 l 1,7,-1
 448 64 l 1,8,-1
 448 0 l 1,9,-1
 0 0 l 1,0,-1
128 640 m 1,10,-1
 128 672 l 1,11,-1
 320 768 l 1,12,-1
 384 768 l 1,13,-1
 384 736 l 1,14,-1
 192 640 l 1,15,-1
 128 640 l 1,10,-1
EndSplineSet
EndChar

StartChar: zacute
Encoding: 378 378 314
Width: 448
Flags: W
LayerCount: 2
Back
Fore
SplineSet
0 0 m 1,0,-1
 0 96 l 1,1,-1
 288 384 l 1,2,-1
 0 384 l 1,3,-1
 0 448 l 1,4,-1
 320 448 l 1,5,-1
 320 320 l 1,6,-1
 64 64 l 1,7,-1
 320 64 l 1,8,-1
 320 0 l 1,9,-1
 0 0 l 1,0,-1
32 512 m 1,10,-1
 32 544 l 1,11,-1
 224 640 l 1,12,-1
 288 640 l 1,13,-1
 288 608 l 1,14,-1
 96 512 l 1,15,-1
 32 512 l 1,10,-1
EndSplineSet
EndChar

StartChar: Zdotaccent
Encoding: 379 379 315
Width: 576
Flags: W
LayerCount: 2
Back
Fore
SplineSet
0 0 m 1,0,-1
 0 96 l 1,1,-1
 416 512 l 1,2,-1
 0 512 l 1,3,-1
 0 576 l 1,4,-1
 448 576 l 1,5,-1
 448 448 l 1,6,-1
 64 64 l 1,7,-1
 448 64 l 1,8,-1
 448 0 l 1,9,-1
 0 0 l 1,0,-1
192 640 m 1,10,-1
 192 768 l 1,11,-1
 256 768 l 1,12,-1
 256 640 l 1,13,-1
 192 640 l 1,10,-1
EndSplineSet
EndChar

StartChar: zdotaccent
Encoding: 380 380 316
Width: 448
Flags: W
LayerCount: 2
Back
Fore
SplineSet
0 0 m 1,0,-1
 0 96 l 1,1,-1
 288 384 l 1,2,-1
 0 384 l 1,3,-1
 0 448 l 1,4,-1
 320 448 l 1,5,-1
 320 320 l 1,6,-1
 64 64 l 1,7,-1
 320 64 l 1,8,-1
 320 0 l 1,9,-1
 0 0 l 1,0,-1
128 512 m 1,10,-1
 128 640 l 1,11,-1
 192 640 l 1,12,-1
 192 512 l 1,13,-1
 128 512 l 1,10,-1
EndSplineSet
EndChar

StartChar: Zcaron
Encoding: 381 381 317
Width: 576
Flags: W
LayerCount: 2
Back
Fore
SplineSet
0 0 m 1,0,-1
 0 96 l 1,1,-1
 416 512 l 1,2,-1
 0 512 l 1,3,-1
 0 576 l 1,4,-1
 448 576 l 1,5,-1
 448 448 l 1,6,-1
 64 64 l 1,7,-1
 448 64 l 1,8,-1
 448 0 l 1,9,-1
 0 0 l 1,0,-1
224 640 m 1,10,-1
 96 704 l 1,11,-1
 96 768 l 1,12,-1
 224 704 l 1,13,-1
 352 768 l 1,14,-1
 352 704 l 1,15,-1
 224 640 l 1,16,-1
 224 640 l 1,10,-1
EndSplineSet
EndChar

StartChar: zcaron
Encoding: 382 382 318
Width: 448
Flags: W
LayerCount: 2
Back
Fore
SplineSet
0 0 m 1,0,-1
 0 96 l 1,1,-1
 288 384 l 1,2,-1
 0 384 l 1,3,-1
 0 448 l 1,4,-1
 320 448 l 1,5,-1
 320 320 l 1,6,-1
 64 64 l 1,7,-1
 320 64 l 1,8,-1
 320 0 l 1,9,-1
 0 0 l 1,0,-1
160 512 m 1,10,-1
 32 576 l 1,11,-1
 32 640 l 1,12,-1
 160 576 l 1,13,-1
 288 640 l 1,14,-1
 288 576 l 1,15,-1
 160 512 l 1,16,-1
 160 512 l 1,10,-1
EndSplineSet
EndChar

StartChar: longs
Encoding: 383 383 319
Width: 384
Flags: W
LayerCount: 2
Back
Fore
SplineSet
0 0 m 1,0,-1
 0 448 l 1,1,-1
 32 512 l 1,2,-1
 64 544 l 1,3,-1
 128 576 l 1,4,-1
 256 576 l 1,5,-1
 256 512 l 1,6,-1
 128 512 l 1,7,-1
 85 490 l 1,8,-1
 64 448 l 1,9,-1
 64 0 l 1,10,-1
 0 0 l 1,0,-1
EndSplineSet
EndChar

StartChar: uni0180
Encoding: 384 384 320
Width: 576
Flags: W
LayerCount: 2
Back
Fore
SplineSet
256 64 m 1,0,-1
 320 96 l 1,1,-1
 352 128 l 1,2,-1
 384 192 l 1,3,-1
 384 256 l 1,4,-1
 320 320 l 1,5,-1
 256 320 l 1,6,-1
 128 256 l 1,7,-1
 128 64 l 1,8,-1
 256 64 l 1,0,-1
64 0 m 1,9,-1
 64 448 l 1,10,-1
 0 448 l 1,11,-1
 0 512 l 1,12,-1
 64 512 l 1,13,-1
 64 576 l 1,14,-1
 128 576 l 1,15,-1
 128 512 l 1,16,-1
 320 512 l 1,17,-1
 320 448 l 1,18,-1
 128 448 l 1,19,-1
 128 320 l 1,20,-1
 256 384 l 1,21,-1
 320 384 l 1,22,-1
 384 352 l 1,23,-1
 416 320 l 1,24,-1
 448 256 l 1,25,-1
 448 192 l 1,26,-1
 384 64 l 1,27,-1
 256 0 l 1,28,-1
 64 0 l 1,9,-1
EndSplineSet
EndChar

StartChar: uni0181
Encoding: 385 385 321
Width: 640
Flags: W
LayerCount: 2
Back
Fore
SplineSet
384 64 m 1,0,-1
 448 128 l 1,1,-1
 416 192 l 1,2,-1
 384 224 l 1,3,-1
 320 256 l 1,4,-1
 192 256 l 1,5,-1
 192 64 l 1,6,-1
 384 64 l 1,0,-1
320 320 m 1,7,-1
 384 384 l 1,8,-1
 384 448 l 1,9,-1
 320 512 l 1,10,-1
 192 512 l 1,11,-1
 192 320 l 1,12,-1
 320 320 l 1,7,-1
128 0 m 1,13,-1
 128 512 l 1,14,-1
 85 490 l 1,15,-1
 64 448 l 1,16,-1
 0 448 l 1,17,-1
 32 512 l 1,18,-1
 64 544 l 1,19,-1
 128 576 l 1,20,-1
 320 576 l 1,21,-1
 384 544 l 1,22,-1
 416 512 l 1,23,-1
 448 448 l 1,24,-1
 448 384 l 1,25,-1
 384 320 l 1,26,-1
 512 192 l 1,27,-1
 512 128 l 1,28,-1
 480 64 l 1,29,-1
 448 32 l 1,30,-1
 384 0 l 1,31,-1
 128 0 l 1,13,-1
EndSplineSet
EndChar

StartChar: uni0182
Encoding: 386 386 322
Width: 512
Flags: W
LayerCount: 2
Back
Fore
SplineSet
256 64 m 1,0,-1
 320 128 l 1,1,-1
 288 192 l 1,2,-1
 256 224 l 1,3,-1
 192 256 l 1,4,-1
 64 256 l 1,5,-1
 64 64 l 1,6,-1
 256 64 l 1,0,-1
0 0 m 1,7,-1
 0 576 l 1,8,-1
 320 576 l 1,9,-1
 320 512 l 1,10,-1
 64 512 l 1,11,-1
 64 320 l 1,12,-1
 192 320 l 1,13,-1
 320 256 l 1,14,-1
 384 192 l 1,15,-1
 384 128 l 1,16,-1
 352 64 l 1,17,-1
 320 32 l 1,18,-1
 256 0 l 1,19,-1
 0 0 l 1,7,-1
EndSplineSet
EndChar

StartChar: uni0183
Encoding: 387 387 323
Width: 512
Flags: W
LayerCount: 2
Back
Fore
SplineSet
192 64 m 1,0,-1
 256 96 l 1,1,-1
 288 128 l 1,2,-1
 320 192 l 1,3,-1
 320 320 l 1,4,-1
 256 384 l 1,5,-1
 192 384 l 1,6,-1
 64 320 l 1,7,-1
 64 64 l 1,8,-1
 192 64 l 1,0,-1
0 0 m 1,9,-1
 0 576 l 1,10,-1
 384 576 l 1,11,-1
 384 512 l 1,12,-1
 64 512 l 1,13,-1
 64 384 l 1,14,-1
 192 448 l 1,15,-1
 256 448 l 1,16,-1
 320 416 l 1,17,-1
 352 384 l 1,18,-1
 384 320 l 1,19,-1
 384 192 l 1,20,-1
 320 64 l 1,21,-1
 192 0 l 1,22,-1
 0 0 l 1,9,-1
EndSplineSet
EndChar

StartChar: uni0189
Encoding: 393 393 324
Width: 640
Flags: W
LayerCount: 2
Back
Fore
SplineSet
320 64 m 1,0,-1
 384 96 l 1,1,-1
 416 128 l 1,2,-1
 448 192 l 1,3,-1
 448 384 l 1,4,-1
 416 448 l 1,5,-1
 384 480 l 1,6,-1
 320 512 l 1,7,-1
 128 512 l 1,8,-1
 128 320 l 1,9,-1
 256 320 l 1,10,-1
 256 256 l 1,11,-1
 128 256 l 1,12,-1
 128 64 l 1,13,-1
 320 64 l 1,0,-1
64 0 m 1,14,-1
 64 256 l 1,15,-1
 0 256 l 1,16,-1
 0 320 l 1,17,-1
 64 320 l 1,18,-1
 64 576 l 1,19,-1
 320 576 l 1,20,-1
 448 512 l 1,21,-1
 512 384 l 1,22,-1
 512 192 l 1,23,-1
 448 64 l 1,24,-1
 320 0 l 1,25,-1
 64 0 l 1,14,-1
EndSplineSet
EndChar

StartChar: uni018A
Encoding: 394 394 325
Width: 704
Flags: W
LayerCount: 2
Back
Fore
SplineSet
384 64 m 1,0,-1
 448 96 l 1,1,-1
 480 128 l 1,2,-1
 512 192 l 1,3,-1
 512 384 l 1,4,-1
 480 448 l 1,5,-1
 448 480 l 1,6,-1
 384 512 l 1,7,-1
 192 512 l 1,8,-1
 192 64 l 1,9,-1
 384 64 l 1,0,-1
128 0 m 1,10,-1
 128 512 l 1,11,-1
 85 490 l 1,12,-1
 64 448 l 1,13,-1
 0 448 l 1,14,-1
 32 512 l 1,15,-1
 64 544 l 1,16,-1
 128 576 l 1,17,-1
 384 576 l 1,18,-1
 512 512 l 1,19,-1
 576 384 l 1,20,-1
 576 192 l 1,21,-1
 512 64 l 1,22,-1
 384 0 l 1,23,-1
 128 0 l 1,10,-1
EndSplineSet
EndChar

StartChar: uni018B
Encoding: 395 395 326
Width: 512
Flags: W
LayerCount: 2
Back
Fore
SplineSet
320 64 m 1,0,-1
 320 256 l 1,1,-1
 128 256 l 1,2,-1
 64 192 l 1,3,-1
 96 128 l 1,4,-1
 128 96 l 1,5,-1
 192 64 l 1,6,-1
 320 64 l 1,0,-1
192 0 m 1,7,-1
 64 64 l 1,8,-1
 0 128 l 1,9,-1
 0 192 l 1,10,-1
 32 256 l 1,11,-1
 64 288 l 1,12,-1
 128 320 l 1,13,-1
 320 320 l 1,14,-1
 320 512 l 1,15,-1
 64 512 l 1,16,-1
 64 576 l 1,17,-1
 384 576 l 1,18,-1
 384 0 l 1,19,-1
 192 0 l 1,7,-1
EndSplineSet
EndChar

StartChar: uni018C
Encoding: 396 396 327
Width: 512
Flags: W
LayerCount: 2
Back
Fore
SplineSet
192 64 m 1,0,-1
 320 128 l 1,1,-1
 320 384 l 1,2,-1
 192 384 l 1,3,-1
 128 352 l 1,4,-1
 96 320 l 1,5,-1
 64 256 l 1,6,-1
 64 128 l 1,7,-1
 128 64 l 1,8,-1
 192 64 l 1,0,-1
128 0 m 1,9,-1
 64 32 l 1,10,-1
 32 64 l 1,11,-1
 0 128 l 1,12,-1
 0 256 l 1,13,-1
 64 384 l 1,14,-1
 192 448 l 1,15,-1
 320 448 l 1,16,-1
 320 512 l 1,17,-1
 64 512 l 1,18,-1
 64 576 l 1,19,-1
 384 576 l 1,20,-1
 384 0 l 1,21,-1
 320 0 l 1,22,-1
 320 64 l 1,23,-1
 192 0 l 1,24,-1
 128 0 l 1,9,-1
EndSplineSet
EndChar

StartChar: uni018E
Encoding: 398 398 328
Width: 512
Flags: W
LayerCount: 2
Back
Fore
SplineSet
0 0 m 1,0,-1
 0 64 l 1,1,-1
 320 64 l 1,2,-1
 320 256 l 1,3,-1
 64 256 l 1,4,-1
 64 320 l 1,5,-1
 320 320 l 1,6,-1
 320 512 l 1,7,-1
 0 512 l 1,8,-1
 0 576 l 1,9,-1
 384 576 l 1,10,-1
 384 0 l 1,11,-1
 0 0 l 1,0,-1
EndSplineSet
EndChar

StartChar: uni018F
Encoding: 399 399 329
Width: 576
Flags: W
LayerCount: 2
Back
Fore
SplineSet
256 64 m 1,0,-1
 320 96 l 1,1,-1
 352 128 l 1,2,-1
 384 192 l 1,3,-1
 384 256 l 1,4,-1
 128 256 l 1,5,-1
 85 234 l 1,6,-1
 64 192 l 1,7,-1
 96 128 l 1,8,-1
 128 96 l 1,9,-1
 192 64 l 1,10,-1
 256 64 l 1,0,-1
192 0 m 1,11,-1
 64 64 l 1,12,-1
 0 192 l 1,13,-1
 32 256 l 1,14,-1
 64 288 l 1,15,-1
 128 320 l 1,16,-1
 384 320 l 1,17,-1
 384 384 l 1,18,-1
 352 448 l 1,19,-1
 320 480 l 1,20,-1
 256 512 l 1,21,-1
 0 512 l 1,22,-1
 0 576 l 1,23,-1
 256 576 l 1,24,-1
 384 512 l 1,25,-1
 448 384 l 1,26,-1
 448 192 l 1,27,-1
 384 64 l 1,28,-1
 256 0 l 1,29,-1
 192 0 l 1,11,-1
EndSplineSet
EndChar

StartChar: uni0190
Encoding: 400 400 330
Width: 512
Flags: W
LayerCount: 2
Back
Fore
SplineSet
128 0 m 1,0,-1
 64 32 l 1,1,-1
 32 64 l 1,2,-1
 0 128 l 1,3,-1
 0 192 l 1,4,-1
 32 256 l 1,5,-1
 64 288 l 1,6,-1
 32 320 l 1,7,-1
 0 384 l 1,8,-1
 0 448 l 1,9,-1
 32 512 l 1,10,-1
 64 544 l 1,11,-1
 128 576 l 1,12,-1
 384 576 l 1,13,-1
 384 512 l 1,14,-1
 128 512 l 1,15,-1
 85 490 l 1,16,-1
 64 448 l 1,17,-1
 64 384 l 1,18,-1
 85 341 l 1,19,-1
 128 320 l 1,20,-1
 320 320 l 1,21,-1
 320 256 l 1,22,-1
 128 256 l 1,23,-1
 85 234 l 1,24,-1
 64 192 l 1,25,-1
 64 128 l 1,26,-1
 85 85 l 1,27,-1
 128 64 l 1,28,-1
 384 64 l 1,29,-1
 384 0 l 1,30,-1
 128 0 l 1,0,-1
EndSplineSet
EndChar

StartChar: uni0191
Encoding: 401 401 331
Width: 512
Flags: W
LayerCount: 2
Back
Fore
SplineSet
-64 -128 m 1,0,-1
 -64 -64 l 1,1,-1
 -21 -42 l 1,2,-1
 0 0 l 1,3,-1
 0 576 l 1,4,-1
 384 576 l 1,5,-1
 384 512 l 1,6,-1
 64 512 l 1,7,-1
 64 320 l 1,8,-1
 320 320 l 1,9,-1
 320 256 l 1,10,-1
 64 256 l 1,11,-1
 64 0 l 1,12,-1
 32 -64 l 1,13,-1
 0 -96 l 1,14,-1
 -64 -128 l 1,15,-1
 -64 -128 l 1,0,-1
EndSplineSet
EndChar

StartChar: florin
Encoding: 402 402 332
Width: 448
Flags: W
LayerCount: 2
Back
Fore
SplineSet
-64 -128 m 1,0,-1
 -64 -64 l 1,1,-1
 0 -64 l 1,2,-1
 42 -42 l 1,3,-1
 64 0 l 1,4,-1
 64 384 l 1,5,-1
 0 384 l 1,6,-1
 0 448 l 1,7,-1
 64 448 l 1,8,-1
 96 512 l 1,9,-1
 128 544 l 1,10,-1
 192 576 l 1,11,-1
 320 576 l 1,12,-1
 320 512 l 1,13,-1
 192 512 l 1,14,-1
 149 490 l 1,15,-1
 128 448 l 1,16,-1
 256 448 l 1,17,-1
 256 384 l 1,18,-1
 128 384 l 1,19,-1
 128 0 l 1,20,-1
 96 -64 l 1,21,-1
 64 -96 l 1,22,-1
 0 -128 l 1,23,-1
 -64 -128 l 1,0,-1
EndSplineSet
EndChar

StartChar: uni0195
Encoding: 405 405 333
Width: 768
Flags: W
LayerCount: 2
Back
Fore
SplineSet
0 0 m 1,0,-1
 0 576 l 1,1,-1
 64 576 l 1,2,-1
 64 384 l 1,3,-1
 192 448 l 1,4,-1
 256 448 l 1,5,-1
 320 416 l 1,6,-1
 352 384 l 1,7,-1
 384 320 l 1,8,-1
 384 128 l 1,9,-1
 405 85 l 1,10,-1
 448 64 l 1,11,-1
 512 96 l 1,12,-1
 544 128 l 1,13,-1
 576 192 l 1,14,-1
 576 448 l 1,15,-1
 640 448 l 1,16,-1
 640 192 l 1,17,-1
 576 64 l 1,18,-1
 448 0 l 1,19,-1
 384 32 l 1,20,-1
 352 64 l 1,21,-1
 320 128 l 1,22,-1
 320 320 l 1,23,-1
 256 384 l 1,24,-1
 192 384 l 1,25,-1
 64 320 l 1,26,-1
 64 0 l 1,27,-1
 0 0 l 1,0,-1
EndSplineSet
EndChar

StartChar: uni0196
Encoding: 406 406 334
Width: 256
Flags: W
LayerCount: 2
Back
Fore
SplineSet
128 0 m 1,0,-1
 64 32 l 1,1,-1
 32 64 l 1,2,-1
 0 128 l 1,3,-1
 0 576 l 1,4,-1
 64 576 l 1,5,-1
 64 128 l 1,6,-1
 85 85 l 1,7,-1
 128 64 l 1,8,-1
 128 0 l 1,9,-1
 128 0 l 1,0,-1
EndSplineSet
EndChar

StartChar: uni0197
Encoding: 407 407 335
Width: 320
Flags: W
LayerCount: 2
Back
Fore
SplineSet
64 0 m 1,0,-1
 64 256 l 1,1,-1
 0 256 l 1,2,-1
 0 320 l 1,3,-1
 64 320 l 1,4,-1
 64 576 l 1,5,-1
 128 576 l 1,6,-1
 128 320 l 1,7,-1
 192 320 l 1,8,-1
 192 256 l 1,9,-1
 128 256 l 1,10,-1
 128 0 l 1,11,-1
 64 0 l 1,0,-1
EndSplineSet
EndChar

StartChar: uni019D
Encoding: 413 413 336
Width: 576
Flags: W
LayerCount: 2
Back
Fore
SplineSet
-64 -128 m 1,0,-1
 -64 -64 l 1,1,-1
 -21 -42 l 1,2,-1
 0 0 l 1,3,-1
 0 576 l 1,4,-1
 128 576 l 1,5,-1
 384 64 l 1,6,-1
 384 576 l 1,7,-1
 448 576 l 1,8,-1
 448 0 l 1,9,-1
 352 0 l 1,10,-1
 96 512 l 1,11,-1
 64 512 l 1,12,-1
 64 0 l 1,13,-1
 32 -64 l 1,14,-1
 0 -96 l 1,15,-1
 -64 -128 l 1,16,-1
 -64 -128 l 1,0,-1
EndSplineSet
EndChar

StartChar: uni019E
Encoding: 414 414 337
Width: 512
Flags: W
LayerCount: 2
Back
Fore
SplineSet
320 -192 m 1,0,-1
 320 320 l 1,1,-1
 298 362 l 1,2,-1
 256 384 l 1,3,-1
 192 384 l 1,4,-1
 64 320 l 1,5,-1
 64 0 l 1,6,-1
 0 0 l 1,7,-1
 0 448 l 1,8,-1
 64 448 l 1,9,-1
 64 384 l 1,10,-1
 192 448 l 1,11,-1
 256 448 l 1,12,-1
 320 416 l 1,13,-1
 352 384 l 1,14,-1
 384 320 l 1,15,-1
 384 -192 l 1,16,-1
 320 -192 l 1,0,-1
EndSplineSet
EndChar

StartChar: uni019F
Encoding: 415 415 338
Width: 576
Flags: W
LayerCount: 2
Back
Fore
SplineSet
256 64 m 1,0,-1
 320 96 l 1,1,-1
 352 128 l 1,2,-1
 384 192 l 1,3,-1
 384 256 l 1,4,-1
 64 256 l 1,5,-1
 64 192 l 1,6,-1
 96 128 l 1,7,-1
 128 96 l 1,8,-1
 192 64 l 1,9,-1
 256 64 l 1,0,-1
384 320 m 1,10,-1
 384 384 l 1,11,-1
 352 448 l 1,12,-1
 320 480 l 1,13,-1
 256 512 l 1,14,-1
 192 512 l 1,15,-1
 128 480 l 1,16,-1
 96 448 l 1,17,-1
 64 384 l 1,18,-1
 64 320 l 1,19,-1
 384 320 l 1,10,-1
192 0 m 1,20,-1
 64 64 l 1,21,-1
 0 192 l 1,22,-1
 0 384 l 1,23,-1
 64 512 l 1,24,-1
 192 576 l 1,25,-1
 256 576 l 1,26,-1
 384 512 l 1,27,-1
 448 384 l 1,28,-1
 448 192 l 1,29,-1
 384 64 l 1,30,-1
 256 0 l 1,31,-1
 192 0 l 1,20,-1
EndSplineSet
EndChar

StartChar: Ohorn
Encoding: 416 416 339
Width: 640
Flags: W
LayerCount: 2
Back
Fore
SplineSet
256 64 m 1,0,-1
 320 96 l 1,1,-1
 352 128 l 1,2,-1
 384 192 l 1,3,-1
 384 384 l 1,4,-1
 352 448 l 1,5,-1
 320 480 l 1,6,-1
 256 512 l 1,7,-1
 192 512 l 1,8,-1
 128 480 l 1,9,-1
 96 448 l 1,10,-1
 64 384 l 1,11,-1
 64 192 l 1,12,-1
 96 128 l 1,13,-1
 128 96 l 1,14,-1
 192 64 l 1,15,-1
 256 64 l 1,0,-1
192 0 m 1,16,-1
 64 64 l 1,17,-1
 0 192 l 1,18,-1
 0 384 l 1,19,-1
 64 512 l 1,20,-1
 192 576 l 1,21,-1
 256 576 l 1,22,-1
 384 512 l 1,23,-1
 416 448 l 1,24,-1
 448 512 l 1,25,-1
 448 576 l 1,26,-1
 512 576 l 1,27,-1
 512 512 l 1,28,-1
 426 426 l 1,29,-1
 448 384 l 1,30,-1
 448 192 l 1,31,-1
 384 64 l 1,32,-1
 256 0 l 1,33,-1
 192 0 l 1,16,-1
EndSplineSet
EndChar

StartChar: ohorn
Encoding: 417 417 340
Width: 640
Flags: W
LayerCount: 2
Back
Fore
SplineSet
256 64 m 1,0,-1
 320 96 l 1,1,-1
 352 128 l 1,2,-1
 384 192 l 1,3,-1
 384 256 l 1,4,-1
 352 320 l 1,5,-1
 320 352 l 1,6,-1
 256 384 l 1,7,-1
 192 384 l 1,8,-1
 128 352 l 1,9,-1
 96 320 l 1,10,-1
 64 256 l 1,11,-1
 64 192 l 1,12,-1
 96 128 l 1,13,-1
 128 96 l 1,14,-1
 192 64 l 1,15,-1
 256 64 l 1,0,-1
192 0 m 1,16,-1
 64 64 l 1,17,-1
 0 192 l 1,18,-1
 0 256 l 1,19,-1
 64 384 l 1,20,-1
 192 448 l 1,21,-1
 256 448 l 1,22,-1
 384 384 l 1,23,-1
 416 320 l 1,24,-1
 448 384 l 1,25,-1
 448 448 l 1,26,-1
 512 448 l 1,27,-1
 512 384 l 1,28,-1
 426 298 l 1,29,-1
 448 256 l 1,30,-1
 448 192 l 1,31,-1
 384 64 l 1,32,-1
 256 0 l 1,33,-1
 192 0 l 1,16,-1
EndSplineSet
EndChar

StartChar: uni01A2
Encoding: 418 418 341
Width: 704
Flags: W
LayerCount: 2
Back
Fore
SplineSet
256 64 m 1,0,-1
 320 96 l 1,1,-1
 352 128 l 1,2,-1
 384 192 l 1,3,-1
 384 384 l 1,4,-1
 352 448 l 1,5,-1
 320 480 l 1,6,-1
 256 512 l 1,7,-1
 192 512 l 1,8,-1
 128 480 l 1,9,-1
 96 448 l 1,10,-1
 64 384 l 1,11,-1
 64 192 l 1,12,-1
 96 128 l 1,13,-1
 128 96 l 1,14,-1
 192 64 l 1,15,-1
 256 64 l 1,0,-1
192 0 m 1,16,-1
 64 64 l 1,17,-1
 0 192 l 1,18,-1
 0 384 l 1,19,-1
 64 512 l 1,20,-1
 192 576 l 1,21,-1
 256 576 l 1,22,-1
 384 512 l 1,23,-1
 448 576 l 1,24,-1
 512 544 l 1,25,-1
 544 512 l 1,26,-1
 576 448 l 1,27,-1
 576 0 l 1,28,-1
 512 0 l 1,29,-1
 512 448 l 1,30,-1
 490 490 l 1,31,-1
 448 512 l 1,32,-1
 416 448 l 1,33,-1
 448 384 l 1,34,-1
 448 192 l 1,35,-1
 384 64 l 1,36,-1
 256 0 l 1,37,-1
 192 0 l 1,16,-1
EndSplineSet
EndChar

StartChar: uni01A3
Encoding: 419 419 342
Width: 704
Flags: W
LayerCount: 2
Back
Fore
SplineSet
256 64 m 1,0,-1
 320 96 l 1,1,-1
 352 128 l 1,2,-1
 384 192 l 1,3,-1
 384 256 l 1,4,-1
 352 320 l 1,5,-1
 320 352 l 1,6,-1
 256 384 l 1,7,-1
 192 384 l 1,8,-1
 128 352 l 1,9,-1
 96 320 l 1,10,-1
 64 256 l 1,11,-1
 64 192 l 1,12,-1
 96 128 l 1,13,-1
 128 96 l 1,14,-1
 192 64 l 1,15,-1
 256 64 l 1,0,-1
512 -128 m 1,16,-1
 512 320 l 1,17,-1
 490 362 l 1,18,-1
 448 384 l 1,19,-1
 416 320 l 1,20,-1
 448 256 l 1,21,-1
 448 192 l 1,22,-1
 384 64 l 1,23,-1
 256 0 l 1,24,-1
 192 0 l 1,25,-1
 64 64 l 1,26,-1
 0 192 l 1,27,-1
 0 256 l 1,28,-1
 64 384 l 1,29,-1
 192 448 l 1,30,-1
 256 448 l 1,31,-1
 384 384 l 1,32,-1
 448 448 l 1,33,-1
 512 416 l 1,34,-1
 544 384 l 1,35,-1
 576 320 l 1,36,-1
 576 -128 l 1,37,-1
 512 -128 l 1,16,-1
EndSplineSet
EndChar

StartChar: uni01A9
Encoding: 425 425 343
Width: 576
Flags: W
LayerCount: 2
Back
Fore
SplineSet
0 0 m 1,0,-1
 0 96 l 1,1,-1
 192 288 l 1,2,-1
 0 480 l 1,3,-1
 0 576 l 1,4,-1
 448 576 l 1,5,-1
 448 512 l 1,6,-1
 64 512 l 1,7,-1
 288 288 l 1,8,-1
 64 64 l 1,9,-1
 448 64 l 1,10,-1
 448 0 l 1,11,-1
 0 0 l 1,0,-1
EndSplineSet
EndChar

StartChar: uni01AB
Encoding: 427 427 344
Width: 448
Flags: W
LayerCount: 2
Back
Fore
SplineSet
192 -128 m 1,0,-1
 192 -96 l 1,1,-1
 224 -64 l 1,2,-1
 256 -64 l 1,3,-1
 256 0 l 1,4,-1
 192 0 l 1,5,-1
 128 32 l 1,6,-1
 96 64 l 1,7,-1
 64 128 l 1,8,-1
 64 384 l 1,9,-1
 0 384 l 1,10,-1
 0 448 l 1,11,-1
 64 448 l 1,12,-1
 64 576 l 1,13,-1
 128 576 l 1,14,-1
 128 448 l 1,15,-1
 320 448 l 1,16,-1
 320 384 l 1,17,-1
 128 384 l 1,18,-1
 128 128 l 1,19,-1
 149 85 l 1,20,-1
 192 64 l 1,21,-1
 320 64 l 1,22,-1
 320 -96 l 1,23,-1
 288 -128 l 1,24,-1
 192 -128 l 1,0,-1
EndSplineSet
EndChar

StartChar: uni01AC
Encoding: 428 428 345
Width: 576
Flags: W
LayerCount: 2
Back
Fore
SplineSet
192 0 m 1,0,-1
 192 512 l 1,1,-1
 128 512 l 1,2,-1
 85 490 l 1,3,-1
 64 448 l 1,4,-1
 0 448 l 1,5,-1
 32 512 l 1,6,-1
 64 544 l 1,7,-1
 128 576 l 1,8,-1
 448 576 l 1,9,-1
 448 512 l 1,10,-1
 256 512 l 1,11,-1
 256 0 l 1,12,-1
 192 0 l 1,0,-1
EndSplineSet
EndChar

StartChar: uni01AD
Encoding: 429 429 346
Width: 448
Flags: W
LayerCount: 2
Back
Fore
SplineSet
192 0 m 1,0,-1
 128 32 l 1,1,-1
 96 64 l 1,2,-1
 64 128 l 1,3,-1
 64 384 l 1,4,-1
 0 384 l 1,5,-1
 0 448 l 1,6,-1
 64 448 l 1,7,-1
 96 512 l 1,8,-1
 128 544 l 1,9,-1
 192 576 l 1,10,-1
 256 576 l 1,11,-1
 256 512 l 1,12,-1
 192 512 l 1,13,-1
 149 490 l 1,14,-1
 128 448 l 1,15,-1
 320 448 l 1,16,-1
 320 384 l 1,17,-1
 128 384 l 1,18,-1
 128 128 l 1,19,-1
 149 85 l 1,20,-1
 192 64 l 1,21,-1
 320 64 l 1,22,-1
 320 0 l 1,23,-1
 192 0 l 1,0,-1
EndSplineSet
EndChar

StartChar: uni01AE
Encoding: 430 430 347
Width: 576
Flags: W
LayerCount: 2
Back
Fore
SplineSet
320 -128 m 1,0,-1
 256 -96 l 1,1,-1
 224 -64 l 1,2,-1
 192 0 l 1,3,-1
 192 512 l 1,4,-1
 0 512 l 1,5,-1
 0 576 l 1,6,-1
 448 576 l 1,7,-1
 448 512 l 1,8,-1
 256 512 l 1,9,-1
 256 0 l 1,10,-1
 277 -42 l 1,11,-1
 320 -64 l 1,12,-1
 320 -128 l 1,13,-1
 320 -128 l 1,0,-1
EndSplineSet
EndChar

StartChar: Uhorn
Encoding: 431 431 348
Width: 704
Flags: W
LayerCount: 2
Back
Fore
SplineSet
192 0 m 1,0,-1
 64 64 l 1,1,-1
 0 192 l 1,2,-1
 0 576 l 1,3,-1
 64 576 l 1,4,-1
 64 192 l 1,5,-1
 96 128 l 1,6,-1
 128 96 l 1,7,-1
 192 64 l 1,8,-1
 256 64 l 1,9,-1
 320 96 l 1,10,-1
 352 128 l 1,11,-1
 384 192 l 1,12,-1
 384 576 l 1,13,-1
 448 576 l 1,14,-1
 448 448 l 1,15,-1
 512 512 l 1,16,-1
 512 576 l 1,17,-1
 576 576 l 1,18,-1
 576 512 l 1,19,-1
 512 448 l 1,20,-1
 448 416 l 1,21,-1
 448 192 l 1,22,-1
 384 64 l 1,23,-1
 256 0 l 1,24,-1
 192 0 l 1,0,-1
EndSplineSet
EndChar

StartChar: uhorn
Encoding: 432 432 349
Width: 640
Flags: W
LayerCount: 2
Back
Fore
SplineSet
128 0 m 1,0,-1
 64 32 l 1,1,-1
 32 64 l 1,2,-1
 0 128 l 1,3,-1
 0 448 l 1,4,-1
 64 448 l 1,5,-1
 64 128 l 1,6,-1
 85 85 l 1,7,-1
 128 64 l 1,8,-1
 192 64 l 1,9,-1
 320 128 l 1,10,-1
 320 448 l 1,11,-1
 384 448 l 1,12,-1
 384 320 l 1,13,-1
 448 384 l 1,14,-1
 448 448 l 1,15,-1
 512 448 l 1,16,-1
 512 384 l 1,17,-1
 448 320 l 1,18,-1
 384 288 l 1,19,-1
 384 0 l 1,20,-1
 320 0 l 1,21,-1
 320 64 l 1,22,-1
 192 0 l 1,23,-1
 128 0 l 1,0,-1
EndSplineSet
EndChar

StartChar: uni01B2
Encoding: 434 434 350
Width: 575
Flags: W
LayerCount: 2
Back
Fore
SplineSet
192 0 m 1,0,-1
 0 576 l 1,1,-1
 64 576 l 1,2,-1
 213 128 l 1,3,-1
 213 127 l 1,4,-1
 224 96 l 1,5,-1
 362 512 l 1,6,-1
 320 576 l 1,7,-1
 384 576 l 1,8,-1
 426 512 l 1,9,-1
 256 0 l 1,10,-1
 192 0 l 1,0,-1
EndSplineSet
EndChar

StartChar: uni01B3
Encoding: 435 435 351
Width: 576
Flags: W
LayerCount: 2
Back
Fore
SplineSet
192 0 m 1,0,-1
 192 192 l 1,1,-1
 32 512 l 1,2,-1
 -64 512 l 1,3,-1
 -64 576 l 1,4,-1
 64 576 l 1,5,-1
 224 256 l 1,6,-1
 384 576 l 1,7,-1
 448 576 l 1,8,-1
 256 192 l 1,9,-1
 256 0 l 1,10,-1
 192 0 l 1,0,-1
EndSplineSet
EndChar

StartChar: uni01B4
Encoding: 436 436 352
Width: 640
Flags: W
LayerCount: 2
Back
Fore
SplineSet
-64 -192 m 1,0,-1
 -64 -128 l 1,1,-1
 0 -128 l 1,2,-1
 64 -96 l 1,3,-1
 96 -64 l 1,4,-1
 112 0 l 1,5,-1
 0 448 l 1,6,-1
 64 448 l 1,7,-1
 160 64 l 1,8,-1
 352 448 l 1,9,-1
 416 448 l 1,10,-1
 480 384 l 1,11,-1
 512 320 l 1,12,-1
 448 320 l 1,13,-1
 416 384 l 1,14,-1
 384 384 l 1,15,-1
 128 -128 l 1,16,-1
 0 -192 l 1,17,-1
 -64 -192 l 1,0,-1
EndSplineSet
EndChar

StartChar: uni01B5
Encoding: 437 437 353
Width: 576
Flags: W
LayerCount: 2
Back
Fore
SplineSet
0 0 m 1,0,-1
 0 96 l 1,1,-1
 160 256 l 1,2,-1
 64 256 l 1,3,-1
 64 320 l 1,4,-1
 224 320 l 1,5,-1
 416 512 l 1,6,-1
 0 512 l 1,7,-1
 0 576 l 1,8,-1
 448 576 l 1,9,-1
 448 448 l 1,10,-1
 320 320 l 1,11,-1
 384 320 l 1,12,-1
 384 256 l 1,13,-1
 256 256 l 1,14,-1
 64 64 l 1,15,-1
 448 64 l 1,16,-1
 448 0 l 1,17,-1
 0 0 l 1,0,-1
EndSplineSet
EndChar

StartChar: uni01B6
Encoding: 438 438 354
Width: 448
Flags: W
LayerCount: 2
Back
Fore
SplineSet
0 0 m 1,0,-1
 0 96 l 1,1,-1
 96 192 l 1,2,-1
 0 192 l 1,3,-1
 0 256 l 1,4,-1
 160 256 l 1,5,-1
 288 384 l 1,6,-1
 0 384 l 1,7,-1
 0 448 l 1,8,-1
 320 448 l 1,9,-1
 320 320 l 1,10,-1
 256 256 l 1,11,-1
 320 256 l 1,12,-1
 320 192 l 1,13,-1
 192 192 l 1,14,-1
 64 64 l 1,15,-1
 320 64 l 1,16,-1
 320 0 l 1,17,-1
 0 0 l 1,0,-1
EndSplineSet
EndChar

StartChar: uni01B7
Encoding: 439 439 355
Width: 512
Flags: W
LayerCount: 2
Back
Fore
SplineSet
128 0 m 1,0,-1
 64 32 l 1,1,-1
 32 64 l 1,2,-1
 0 128 l 1,3,-1
 64 128 l 1,4,-1
 85 85 l 1,5,-1
 128 64 l 1,6,-1
 256 64 l 1,7,-1
 298 85 l 1,8,-1
 320 128 l 1,9,-1
 320 192 l 1,10,-1
 298 234 l 1,11,-1
 256 256 l 1,12,-1
 160 256 l 1,13,-1
 96 320 l 1,14,-1
 288 512 l 1,15,-1
 0 512 l 1,16,-1
 0 576 l 1,17,-1
 384 576 l 1,18,-1
 384 512 l 1,19,-1
 192 320 l 1,20,-1
 256 320 l 1,21,-1
 320 288 l 1,22,-1
 352 256 l 1,23,-1
 384 192 l 1,24,-1
 384 128 l 1,25,-1
 352 64 l 1,26,-1
 320 32 l 1,27,-1
 256 0 l 1,28,-1
 128 0 l 1,0,-1
EndSplineSet
EndChar

StartChar: uni01B8
Encoding: 440 440 356
Width: 512
Flags: W
LayerCount: 2
Back
Fore
SplineSet
128 0 m 1,0,-1
 64 32 l 1,1,-1
 32 64 l 1,2,-1
 0 128 l 1,3,-1
 0 192 l 1,4,-1
 32 256 l 1,5,-1
 64 288 l 1,6,-1
 128 320 l 1,7,-1
 192 320 l 1,8,-1
 0 512 l 1,9,-1
 0 576 l 1,10,-1
 384 576 l 1,11,-1
 384 512 l 1,12,-1
 96 512 l 1,13,-1
 288 320 l 1,14,-1
 224 256 l 1,15,-1
 128 256 l 1,16,-1
 85 234 l 1,17,-1
 64 192 l 1,18,-1
 64 128 l 1,19,-1
 85 85 l 1,20,-1
 128 64 l 1,21,-1
 256 64 l 1,22,-1
 298 85 l 1,23,-1
 320 128 l 1,24,-1
 384 128 l 1,25,-1
 352 64 l 1,26,-1
 320 32 l 1,27,-1
 256 0 l 1,28,-1
 128 0 l 1,0,-1
EndSplineSet
EndChar

StartChar: uni01BF
Encoding: 447 447 357
Width: 512
Flags: W
LayerCount: 2
Back
Fore
SplineSet
192 64 m 1,0,-1
 256 96 l 1,1,-1
 288 128 l 1,2,-1
 320 192 l 1,3,-1
 320 320 l 1,4,-1
 256 384 l 1,5,-1
 192 384 l 1,6,-1
 64 320 l 1,7,-1
 64 64 l 1,8,-1
 192 64 l 1,0,-1
0 -192 m 1,9,-1
 0 352 l 1,10,-1
 192 448 l 1,11,-1
 256 448 l 1,12,-1
 320 416 l 1,13,-1
 352 384 l 1,14,-1
 384 320 l 1,15,-1
 384 192 l 1,16,-1
 320 64 l 1,17,-1
 192 0 l 1,18,-1
 64 0 l 1,19,-1
 64 -192 l 1,20,-1
 0 -192 l 1,9,-1
EndSplineSet
EndChar

StartChar: uni01C0
Encoding: 448 448 358
Width: 192
Flags: W
LayerCount: 2
Back
Fore
SplineSet
0 -64 m 1,0,-1
 0 640 l 1,1,-1
 64 640 l 1,2,-1
 64 -64 l 1,3,-1
 0 -64 l 1,0,-1
EndSplineSet
EndChar

StartChar: uni01C1
Encoding: 449 449 359
Width: 384
Flags: W
LayerCount: 2
Back
Fore
SplineSet
0 -64 m 1,0,-1
 0 640 l 1,1,-1
 64 640 l 1,2,-1
 64 -64 l 1,3,-1
 0 -64 l 1,0,-1
192 -64 m 1,4,-1
 192 640 l 1,5,-1
 256 640 l 1,6,-1
 256 -64 l 1,7,-1
 192 -64 l 1,4,-1
EndSplineSet
EndChar

StartChar: uni01C2
Encoding: 450 450 360
Width: 448
Flags: W
LayerCount: 2
Back
Fore
SplineSet
128 -64 m 1,0,-1
 128 192 l 1,1,-1
 0 192 l 1,2,-1
 0 256 l 1,3,-1
 128 256 l 1,4,-1
 128 384 l 1,5,-1
 0 384 l 1,6,-1
 0 448 l 1,7,-1
 128 448 l 1,8,-1
 128 640 l 1,9,-1
 192 640 l 1,10,-1
 192 448 l 1,11,-1
 320 448 l 1,12,-1
 320 384 l 1,13,-1
 192 384 l 1,14,-1
 192 256 l 1,15,-1
 320 256 l 1,16,-1
 320 192 l 1,17,-1
 192 192 l 1,18,-1
 192 -64 l 1,19,-1
 128 -64 l 1,0,-1
EndSplineSet
EndChar

StartChar: uni01C3
Encoding: 451 451 361
Width: 192
Flags: W
LayerCount: 2
Back
Fore
SplineSet
0 0 m 1,0,-1
 0 128 l 1,1,-1
 64 128 l 1,2,-1
 64 0 l 1,3,-1
 0 0 l 1,0,-1
0 192 m 1,4,-1
 0 576 l 1,5,-1
 64 576 l 1,6,-1
 64 192 l 1,7,-1
 0 192 l 1,4,-1
EndSplineSet
EndChar

StartChar: uni01C4
Encoding: 452 452 362
Width: 1088
Flags: W
LayerCount: 2
Back
Fore
SplineSet
256 64 m 1,0,-1
 320 96 l 1,1,-1
 352 128 l 1,2,-1
 384 192 l 1,3,-1
 384 384 l 1,4,-1
 352 448 l 1,5,-1
 320 480 l 1,6,-1
 256 512 l 1,7,-1
 64 512 l 1,8,-1
 64 64 l 1,9,-1
 256 64 l 1,0,-1
0 0 m 1,10,-1
 0 576 l 1,11,-1
 256 576 l 1,12,-1
 384 512 l 1,13,-1
 448 384 l 1,14,-1
 448 192 l 1,15,-1
 384 64 l 1,16,-1
 256 0 l 1,17,-1
 0 0 l 1,10,-1
512 0 m 1,18,-1
 512 96 l 1,19,-1
 928 512 l 1,20,-1
 512 512 l 1,21,-1
 512 576 l 1,22,-1
 960 576 l 1,23,-1
 960 448 l 1,24,-1
 576 64 l 1,25,-1
 960 64 l 1,26,-1
 960 0 l 1,27,-1
 512 0 l 1,18,-1
704 640 m 1,28,-1
 576 704 l 1,29,-1
 576 768 l 1,30,-1
 704 704 l 1,31,-1
 832 768 l 1,32,-1
 832 704 l 1,33,-1
 704 640 l 1,34,-1
 704 640 l 1,28,-1
EndSplineSet
EndChar

StartChar: uni01C5
Encoding: 453 453 363
Width: 960
Flags: W
LayerCount: 2
Back
Fore
SplineSet
512 0 m 1,0,-1
 512 96 l 1,1,-1
 800 384 l 1,2,-1
 512 384 l 1,3,-1
 512 448 l 1,4,-1
 832 448 l 1,5,-1
 832 320 l 1,6,-1
 576 64 l 1,7,-1
 832 64 l 1,8,-1
 832 0 l 1,9,-1
 512 0 l 1,0,-1
256 64 m 1,10,-1
 320 96 l 1,11,-1
 352 128 l 1,12,-1
 384 192 l 1,13,-1
 384 384 l 1,14,-1
 352 448 l 1,15,-1
 320 480 l 1,16,-1
 256 512 l 1,17,-1
 64 512 l 1,18,-1
 64 64 l 1,19,-1
 256 64 l 1,10,-1
0 0 m 1,20,-1
 0 576 l 1,21,-1
 256 576 l 1,22,-1
 384 512 l 1,23,-1
 448 384 l 1,24,-1
 448 192 l 1,25,-1
 384 64 l 1,26,-1
 256 0 l 1,27,-1
 0 0 l 1,20,-1
672 512 m 1,28,-1
 544 576 l 1,29,-1
 544 640 l 1,30,-1
 672 576 l 1,31,-1
 800 640 l 1,32,-1
 800 576 l 1,33,-1
 672 512 l 1,34,-1
 672 512 l 1,28,-1
EndSplineSet
EndChar

StartChar: uni01C6
Encoding: 454 454 364
Width: 896
Flags: W
LayerCount: 2
Back
Fore
SplineSet
192 64 m 1,0,-1
 320 128 l 1,1,-1
 320 384 l 1,2,-1
 192 384 l 1,3,-1
 128 352 l 1,4,-1
 96 320 l 1,5,-1
 64 256 l 1,6,-1
 64 128 l 1,7,-1
 128 64 l 1,8,-1
 192 64 l 1,0,-1
448 0 m 1,9,-1
 448 96 l 1,10,-1
 736 384 l 1,11,-1
 448 384 l 1,12,-1
 448 448 l 1,13,-1
 768 448 l 1,14,-1
 768 320 l 1,15,-1
 512 64 l 1,16,-1
 768 64 l 1,17,-1
 768 0 l 1,18,-1
 448 0 l 1,9,-1
128 0 m 1,19,-1
 64 32 l 1,20,-1
 32 64 l 1,21,-1
 0 128 l 1,22,-1
 0 256 l 1,23,-1
 64 384 l 1,24,-1
 192 448 l 1,25,-1
 320 448 l 1,26,-1
 320 576 l 1,27,-1
 384 576 l 1,28,-1
 384 0 l 1,29,-1
 320 0 l 1,30,-1
 320 64 l 1,31,-1
 192 0 l 1,32,-1
 128 0 l 1,19,-1
608 512 m 1,33,-1
 480 576 l 1,34,-1
 480 640 l 1,35,-1
 608 576 l 1,36,-1
 736 640 l 1,37,-1
 736 576 l 1,38,-1
 608 512 l 1,39,-1
 608 512 l 1,33,-1
EndSplineSet
EndChar

StartChar: uni01C7
Encoding: 455 455 365
Width: 832
Flags: W
LayerCount: 2
Back
Fore
SplineSet
0 0 m 1,0,-1
 0 576 l 1,1,-1
 64 576 l 1,2,-1
 64 64 l 1,3,-1
 384 64 l 1,4,-1
 384 0 l 1,5,-1
 0 0 l 1,0,-1
448 0 m 1,6,-1
 448 64 l 1,7,-1
 576 64 l 1,8,-1
 618 85 l 1,9,-1
 640 128 l 1,10,-1
 640 576 l 1,11,-1
 704 576 l 1,12,-1
 704 128 l 1,13,-1
 672 64 l 1,14,-1
 640 32 l 1,15,-1
 576 0 l 1,16,-1
 448 0 l 1,6,-1
EndSplineSet
EndChar

StartChar: uni01C8
Encoding: 456 456 366
Width: 640
Flags: W
LayerCount: 2
Back
Fore
SplineSet
320 -128 m 1,0,-1
 320 -64 l 1,1,-1
 384 -64 l 1,2,-1
 426 -42 l 1,3,-1
 448 0 l 1,4,-1
 448 448 l 1,5,-1
 512 448 l 1,6,-1
 512 0 l 1,7,-1
 480 -64 l 1,8,-1
 448 -96 l 1,9,-1
 384 -128 l 1,10,-1
 320 -128 l 1,0,-1
0 0 m 1,11,-1
 0 576 l 1,12,-1
 64 576 l 1,13,-1
 64 64 l 1,14,-1
 384 64 l 1,15,-1
 384 0 l 1,16,-1
 0 0 l 1,11,-1
448 512 m 1,17,-1
 448 576 l 1,18,-1
 512 576 l 1,19,-1
 512 512 l 1,20,-1
 448 512 l 1,17,-1
EndSplineSet
EndChar

StartChar: uni01C9
Encoding: 457 457 367
Width: 384
Flags: W
LayerCount: 2
Back
Fore
SplineSet
64 -128 m 1,0,-1
 64 -64 l 1,1,-1
 128 -64 l 1,2,-1
 170 -42 l 1,3,-1
 192 0 l 1,4,-1
 192 448 l 1,5,-1
 256 448 l 1,6,-1
 256 0 l 1,7,-1
 224 -64 l 1,8,-1
 192 -96 l 1,9,-1
 128 -128 l 1,10,-1
 64 -128 l 1,0,-1
0 0 m 1,11,-1
 0 576 l 1,12,-1
 64 576 l 1,13,-1
 64 0 l 1,14,-1
 0 0 l 1,11,-1
192 512 m 1,15,-1
 192 576 l 1,16,-1
 256 576 l 1,17,-1
 256 512 l 1,18,-1
 192 512 l 1,15,-1
EndSplineSet
EndChar

StartChar: uni01CA
Encoding: 458 458 368
Width: 896
Flags: W
LayerCount: 2
Back
Fore
SplineSet
0 0 m 1,0,-1
 0 576 l 1,1,-1
 128 576 l 1,2,-1
 384 64 l 1,3,-1
 384 576 l 1,4,-1
 448 576 l 1,5,-1
 448 0 l 1,6,-1
 352 0 l 1,7,-1
 96 512 l 1,8,-1
 64 512 l 1,9,-1
 64 0 l 1,10,-1
 0 0 l 1,0,-1
512 0 m 1,11,-1
 512 64 l 1,12,-1
 640 64 l 1,13,-1
 682 85 l 1,14,-1
 704 128 l 1,15,-1
 704 576 l 1,16,-1
 768 576 l 1,17,-1
 768 128 l 1,18,-1
 736 64 l 1,19,-1
 704 32 l 1,20,-1
 640 0 l 1,21,-1
 512 0 l 1,11,-1
EndSplineSet
EndChar

StartChar: uni01CB
Encoding: 459 459 369
Width: 768
Flags: W
LayerCount: 2
Back
Fore
SplineSet
448 -128 m 1,0,-1
 448 -64 l 1,1,-1
 512 -64 l 1,2,-1
 554 -42 l 1,3,-1
 576 0 l 1,4,-1
 576 448 l 1,5,-1
 640 448 l 1,6,-1
 640 0 l 1,7,-1
 608 -64 l 1,8,-1
 576 -96 l 1,9,-1
 512 -128 l 1,10,-1
 448 -128 l 1,0,-1
0 0 m 1,11,-1
 0 576 l 1,12,-1
 128 576 l 1,13,-1
 384 64 l 1,14,-1
 384 576 l 1,15,-1
 448 576 l 1,16,-1
 448 0 l 1,17,-1
 352 0 l 1,18,-1
 96 512 l 1,19,-1
 64 512 l 1,20,-1
 64 0 l 1,21,-1
 0 0 l 1,11,-1
576 512 m 1,22,-1
 576 576 l 1,23,-1
 640 576 l 1,24,-1
 640 512 l 1,25,-1
 576 512 l 1,22,-1
EndSplineSet
EndChar

StartChar: uni01CC
Encoding: 460 460 370
Width: 640
Flags: W
LayerCount: 2
Back
Fore
SplineSet
0 0 m 1,0,-1
 0 448 l 1,1,-1
 64 448 l 1,2,-1
 64 384 l 1,3,-1
 192 448 l 1,4,-1
 256 448 l 1,5,-1
 320 416 l 1,6,-1
 352 384 l 1,7,-1
 384 320 l 1,8,-1
 384 0 l 1,9,-1
 320 0 l 1,10,-1
 320 320 l 1,11,-1
 298 362 l 1,12,-1
 256 384 l 1,13,-1
 192 384 l 1,14,-1
 64 320 l 1,15,-1
 64 0 l 1,16,-1
 0 0 l 1,0,-1
320 -128 m 1,17,-1
 320 -64 l 1,18,-1
 384 -64 l 1,19,-1
 426 -42 l 1,20,-1
 448 0 l 1,21,-1
 448 448 l 1,22,-1
 512 448 l 1,23,-1
 512 0 l 1,24,-1
 480 -64 l 1,25,-1
 448 -96 l 1,26,-1
 384 -128 l 1,27,-1
 320 -128 l 1,17,-1
448 512 m 1,28,-1
 448 576 l 1,29,-1
 512 576 l 1,30,-1
 512 512 l 1,31,-1
 448 512 l 1,28,-1
EndSplineSet
EndChar

StartChar: uni01CD
Encoding: 461 461 371
Width: 704
Flags: W
LayerCount: 2
Back
Fore
SplineSet
384 256 m 1,0,-1
 288 448 l 1,1,-1
 192 256 l 1,2,-1
 384 256 l 1,0,-1
0 0 m 1,3,-1
 288 576 l 1,4,-1
 576 0 l 1,5,-1
 512 0 l 1,6,-1
 416 192 l 1,7,-1
 160 192 l 1,8,-1
 64 0 l 1,9,-1
 0 0 l 1,3,-1
288 640 m 1,10,-1
 160 704 l 1,11,-1
 160 768 l 1,12,-1
 288 704 l 1,13,-1
 416 768 l 1,14,-1
 416 704 l 1,15,-1
 288 640 l 1,16,-1
 288 640 l 1,10,-1
EndSplineSet
EndChar

StartChar: uni01CE
Encoding: 462 462 372
Width: 512
Flags: W
LayerCount: 2
Back
Fore
SplineSet
192 64 m 1,0,-1
 320 128 l 1,1,-1
 320 192 l 1,2,-1
 128 192 l 1,3,-1
 85 170 l 1,4,-1
 64 128 l 1,5,-1
 85 85 l 1,6,-1
 128 64 l 1,7,-1
 192 64 l 1,0,-1
128 0 m 1,8,-1
 64 32 l 1,9,-1
 32 64 l 1,10,-1
 0 128 l 1,11,-1
 32 192 l 1,12,-1
 64 224 l 1,13,-1
 128 256 l 1,14,-1
 320 256 l 1,15,-1
 320 320 l 1,16,-1
 298 362 l 1,17,-1
 256 384 l 1,18,-1
 64 384 l 1,19,-1
 64 448 l 1,20,-1
 256 448 l 1,21,-1
 320 416 l 1,22,-1
 352 384 l 1,23,-1
 384 320 l 1,24,-1
 384 0 l 1,25,-1
 320 0 l 1,26,-1
 320 64 l 1,27,-1
 192 0 l 1,28,-1
 128 0 l 1,8,-1
192 512 m 1,29,-1
 64 576 l 1,30,-1
 64 640 l 1,31,-1
 192 576 l 1,32,-1
 320 640 l 1,33,-1
 320 576 l 1,34,-1
 192 512 l 1,35,-1
 192 512 l 1,29,-1
EndSplineSet
EndChar

StartChar: uni01CF
Encoding: 463 463 373
Width: 384
Flags: W
LayerCount: 2
Back
Fore
SplineSet
64 0 m 1,0,-1
 64 576 l 1,1,-1
 128 576 l 1,2,-1
 128 0 l 1,3,-1
 64 0 l 1,0,-1
96 640 m 1,4,-1
 -32 704 l 1,5,-1
 -32 768 l 1,6,-1
 96 704 l 1,7,-1
 224 768 l 1,8,-1
 224 704 l 1,9,-1
 96 640 l 1,10,-1
 96 640 l 1,4,-1
EndSplineSet
EndChar

StartChar: uni01D0
Encoding: 464 464 374
Width: 384
Flags: W
LayerCount: 2
Back
Fore
SplineSet
64 0 m 1,0,-1
 64 448 l 1,1,-1
 128 448 l 1,2,-1
 128 0 l 1,3,-1
 64 0 l 1,0,-1
96 512 m 1,4,-1
 -32 576 l 1,5,-1
 -32 640 l 1,6,-1
 96 576 l 1,7,-1
 224 640 l 1,8,-1
 224 576 l 1,9,-1
 96 512 l 1,10,-1
 96 512 l 1,4,-1
EndSplineSet
EndChar

StartChar: uni01D1
Encoding: 465 465 375
Width: 576
Flags: W
LayerCount: 2
Back
Fore
SplineSet
256 64 m 1,0,-1
 320 96 l 1,1,-1
 352 128 l 1,2,-1
 384 192 l 1,3,-1
 384 384 l 1,4,-1
 352 448 l 1,5,-1
 320 480 l 1,6,-1
 256 512 l 1,7,-1
 192 512 l 1,8,-1
 128 480 l 1,9,-1
 96 448 l 1,10,-1
 64 384 l 1,11,-1
 64 192 l 1,12,-1
 96 128 l 1,13,-1
 128 96 l 1,14,-1
 192 64 l 1,15,-1
 256 64 l 1,0,-1
192 0 m 1,16,-1
 64 64 l 1,17,-1
 0 192 l 1,18,-1
 0 384 l 1,19,-1
 64 512 l 1,20,-1
 192 576 l 1,21,-1
 256 576 l 1,22,-1
 384 512 l 1,23,-1
 448 384 l 1,24,-1
 448 192 l 1,25,-1
 384 64 l 1,26,-1
 256 0 l 1,27,-1
 192 0 l 1,16,-1
224 640 m 1,28,-1
 96 704 l 1,29,-1
 96 768 l 1,30,-1
 224 704 l 1,31,-1
 352 768 l 1,32,-1
 352 704 l 1,33,-1
 224 640 l 1,34,-1
 224 640 l 1,28,-1
EndSplineSet
EndChar

StartChar: uni01D2
Encoding: 466 466 376
Width: 576
Flags: W
LayerCount: 2
Back
Fore
SplineSet
256 64 m 1,0,-1
 320 96 l 1,1,-1
 352 128 l 1,2,-1
 384 192 l 1,3,-1
 384 256 l 1,4,-1
 352 320 l 1,5,-1
 320 352 l 1,6,-1
 256 384 l 1,7,-1
 192 384 l 1,8,-1
 128 352 l 1,9,-1
 96 320 l 1,10,-1
 64 256 l 1,11,-1
 64 192 l 1,12,-1
 96 128 l 1,13,-1
 128 96 l 1,14,-1
 192 64 l 1,15,-1
 256 64 l 1,0,-1
192 0 m 1,16,-1
 64 64 l 1,17,-1
 0 192 l 1,18,-1
 0 256 l 1,19,-1
 64 384 l 1,20,-1
 192 448 l 1,21,-1
 256 448 l 1,22,-1
 384 384 l 1,23,-1
 448 256 l 1,24,-1
 448 192 l 1,25,-1
 384 64 l 1,26,-1
 256 0 l 1,27,-1
 192 0 l 1,16,-1
224 512 m 1,28,-1
 96 576 l 1,29,-1
 96 640 l 1,30,-1
 224 576 l 1,31,-1
 352 640 l 1,32,-1
 352 576 l 1,33,-1
 224 512 l 1,34,-1
 224 512 l 1,28,-1
EndSplineSet
EndChar

